<?xml version="1.0" encoding="UTF-8" standalone="no"?><svg xmlns="http://www.w3.org/2000/svg" xmlns:xlink="http://www.w3.org/1999/xlink" contentScriptType="application/ecmascript" contentStyleType="text/css" height="472px" preserveAspectRatio="none" style="width:827px;height:472px;" version="1.1" viewBox="0 0 827 472" width="827px" zoomAndPan="magnify"><defs><filter height="300%" id="f1u1hjntrkj4cu" width="300%" x="-1" y="-1"><feGaussianBlur result="blurOut" stdDeviation="2.0"/><feColorMatrix in="blurOut" result="blurOut2" type="matrix" values="0 0 0 0 0 0 0 0 0 0 0 0 0 0 0 0 0 0 .4 0"/><feOffset dx="4.0" dy="4.0" in="blurOut2" result="blurOut3"/><feBlend in="SourceGraphic" in2="blurOut3" mode="normal"/></filter></defs><g><rect fill="#FFFFFF" filter="url(#f1u1hjntrkj4cu)" height="280.3281" style="stroke: #A80036; stroke-width: 1.0;" width="10" x="69" y="96.2969"/><rect fill="#FFFFFF" filter="url(#f1u1hjntrkj4cu)" height="44.2656" style="stroke: #A80036; stroke-width: 1.0;" width="10" x="762" y="117.4297"/><rect fill="#FFFFFF" filter="url(#f1u1hjntrkj4cu)" height="29.1328" style="stroke: #A80036; stroke-width: 1.0;" width="10" x="762" y="190.8281"/><rect fill="#FFFFFF" filter="url(#f1u1hjntrkj4cu)" height="36.1328" style="stroke: #A80036; stroke-width: 1.0;" width="10" x="762" y="273.2266"/><rect fill="#FFFFFF" filter="url(#f1u1hjntrkj4cu)" height="29.1328" style="stroke: #A80036; stroke-width: 1.0;" width="10" x="762" y="338.4922"/><rect fill="#FFFFFF" filter="url(#f1u1hjntrkj4cu)" height="46.2656" style="stroke: #000000; stroke-width: 2.0;" width="803" x="13" y="234.9609"/><line style="stroke: #A80036; stroke-width: 1.0; stroke-dasharray: 5.0,5.0;" x1="74" x2="74" y1="86.2969" y2="385.625"/><line style="stroke: #A80036; stroke-width: 1.0; stroke-dasharray: 5.0,5.0;" x1="767" x2="767" y1="86.2969" y2="385.625"/><text fill="#000000" font-family="sans-serif" font-size="14" lengthAdjust="spacingAndGlyphs" textLength="96" x="23" y="82.9951">Administrativo</text><ellipse cx="74" cy="13" fill="#FEFECE" filter="url(#f1u1hjntrkj4cu)" rx="8" ry="8" style="stroke: #A80036; stroke-width: 2.0;"/><path d="M74,21 L74,48 M61,29 L87,29 M74,48 L61,63 M74,48 L87,63 " fill="none" filter="url(#f1u1hjntrkj4cu)" style="stroke: #A80036; stroke-width: 2.0;"/><text fill="#000000" font-family="sans-serif" font-size="14" lengthAdjust="spacingAndGlyphs" textLength="96" x="23" y="397.6201">Administrativo</text><ellipse cx="74" cy="410.9219" fill="#FEFECE" filter="url(#f1u1hjntrkj4cu)" rx="8" ry="8" style="stroke: #A80036; stroke-width: 2.0;"/><path d="M74,418.9219 L74,445.9219 M61,426.9219 L87,426.9219 M74,445.9219 L61,460.9219 M74,445.9219 L87,460.9219 " fill="none" filter="url(#f1u1hjntrkj4cu)" style="stroke: #A80036; stroke-width: 2.0;"/><rect fill="#FEFECE" filter="url(#f1u1hjntrkj4cu)" height="30.2969" style="stroke: #A80036; stroke-width: 1.5;" width="74" x="728" y="51"/><text fill="#000000" font-family="sans-serif" font-size="14" lengthAdjust="spacingAndGlyphs" textLength="60" x="735" y="70.9951">:Sistema</text><rect fill="#FEFECE" filter="url(#f1u1hjntrkj4cu)" height="30.2969" style="stroke: #A80036; stroke-width: 1.5;" width="74" x="728" y="384.625"/><text fill="#000000" font-family="sans-serif" font-size="14" lengthAdjust="spacingAndGlyphs" textLength="60" x="735" y="404.6201">:Sistema</text><rect fill="#FFFFFF" filter="url(#f1u1hjntrkj4cu)" height="280.3281" style="stroke: #A80036; stroke-width: 1.0;" width="10" x="69" y="96.2969"/><rect fill="#FFFFFF" filter="url(#f1u1hjntrkj4cu)" height="44.2656" style="stroke: #A80036; stroke-width: 1.0;" width="10" x="762" y="117.4297"/><rect fill="#FFFFFF" filter="url(#f1u1hjntrkj4cu)" height="29.1328" style="stroke: #A80036; stroke-width: 1.0;" width="10" x="762" y="190.8281"/><rect fill="#FFFFFF" filter="url(#f1u1hjntrkj4cu)" height="36.1328" style="stroke: #A80036; stroke-width: 1.0;" width="10" x="762" y="273.2266"/><rect fill="#FFFFFF" filter="url(#f1u1hjntrkj4cu)" height="29.1328" style="stroke: #A80036; stroke-width: 1.0;" width="10" x="762" y="338.4922"/><polygon fill="#A80036" points="750,113.4297,760,117.4297,750,121.4297,754,117.4297" style="stroke: #A80036; stroke-width: 1.0;"/><line style="stroke: #A80036; stroke-width: 1.0;" x1="79" x2="756" y1="117.4297" y2="117.4297"/><text fill="#000000" font-family="sans-serif" font-size="13" font-weight="bold" lengthAdjust="spacingAndGlyphs" textLength="9" x="86" y="112.3638">1</text><text fill="#000000" font-family="sans-serif" font-size="13" lengthAdjust="spacingAndGlyphs" textLength="157" x="99" y="112.3638">nova categoria de tarefa</text><polygon fill="#A80036" points="90,157.6953,80,161.6953,90,165.6953,86,161.6953" style="stroke: #A80036; stroke-width: 1.0;"/><line style="stroke: #A80036; stroke-width: 1.0; stroke-dasharray: 2.0,2.0;" x1="84" x2="766" y1="161.6953" y2="161.6953"/><text fill="#000000" font-family="sans-serif" font-size="13" font-weight="bold" lengthAdjust="spacingAndGlyphs" textLength="9" x="96" y="149.063">2</text><text fill="#000000" font-family="sans-serif" font-size="13" lengthAdjust="spacingAndGlyphs" textLength="87" x="109" y="141.4966">solicita dados</text><text fill="#000000" font-family="sans-serif" font-size="13" lengthAdjust="spacingAndGlyphs" textLength="194" x="109" y="156.6294">(descrição , área de atividade)</text><polygon fill="#A80036" points="750,186.8281,760,190.8281,750,194.8281,754,190.8281" style="stroke: #A80036; stroke-width: 1.0;"/><line style="stroke: #A80036; stroke-width: 1.0;" x1="79" x2="756" y1="190.8281" y2="190.8281"/><text fill="#000000" font-family="sans-serif" font-size="13" font-weight="bold" lengthAdjust="spacingAndGlyphs" textLength="9" x="86" y="185.7622">3</text><text fill="#000000" font-family="sans-serif" font-size="13" lengthAdjust="spacingAndGlyphs" textLength="185" x="99" y="185.7622">introduz os dados solicitados</text><polygon fill="#A80036" points="90,215.9609,80,219.9609,90,223.9609,86,219.9609" style="stroke: #A80036; stroke-width: 1.0;"/><line style="stroke: #A80036; stroke-width: 1.0; stroke-dasharray: 2.0,2.0;" x1="84" x2="766" y1="219.9609" y2="219.9609"/><text fill="#000000" font-family="sans-serif" font-size="13" font-weight="bold" lengthAdjust="spacingAndGlyphs" textLength="9" x="96" y="214.895">4</text><text fill="#000000" font-family="sans-serif" font-size="13" lengthAdjust="spacingAndGlyphs" textLength="646" x="109" y="214.895">apresenta as listas de competências disponíveis e solicita as competências obrigatórias e opcionais .</text><path d="M13,234.9609 L90,234.9609 L90,241.9609 L80,251.9609 L13,251.9609 L13,234.9609 " fill="#EEEEEE" style="stroke: #000000; stroke-width: 1.0;"/><rect fill="none" height="46.2656" style="stroke: #000000; stroke-width: 2.0;" width="803" x="13" y="234.9609"/><text fill="#000000" font-family="sans-serif" font-size="13" font-weight="bold" lengthAdjust="spacingAndGlyphs" textLength="32" x="28" y="248.0278">loop</text><polygon fill="#A80036" points="750,269.2266,760,273.2266,750,277.2266,754,273.2266" style="stroke: #A80036; stroke-width: 1.0;"/><line style="stroke: #A80036; stroke-width: 1.0;" x1="79" x2="756" y1="273.2266" y2="273.2266"/><text fill="#000000" font-family="sans-serif" font-size="13" font-weight="bold" lengthAdjust="spacingAndGlyphs" textLength="9" x="86" y="268.1606">5</text><text fill="#000000" font-family="sans-serif" font-size="13" lengthAdjust="spacingAndGlyphs" textLength="348" x="99" y="268.1606">seleciona as competências opcionais e as obrigatórias</text><polygon fill="#A80036" points="90,305.3594,80,309.3594,90,313.3594,86,309.3594" style="stroke: #A80036; stroke-width: 1.0;"/><line style="stroke: #A80036; stroke-width: 1.0; stroke-dasharray: 2.0,2.0;" x1="84" x2="766" y1="309.3594" y2="309.3594"/><text fill="#000000" font-family="sans-serif" font-size="13" font-weight="bold" lengthAdjust="spacingAndGlyphs" textLength="9" x="96" y="304.2935">6</text><text fill="#000000" font-family="sans-serif" font-size="13" lengthAdjust="spacingAndGlyphs" textLength="242" x="109" y="304.2935">valida os dados e solicita confirmação</text><polygon fill="#A80036" points="750,334.4922,760,338.4922,750,342.4922,754,338.4922" style="stroke: #A80036; stroke-width: 1.0;"/><line style="stroke: #A80036; stroke-width: 1.0;" x1="79" x2="756" y1="338.4922" y2="338.4922"/><text fill="#000000" font-family="sans-serif" font-size="13" font-weight="bold" lengthAdjust="spacingAndGlyphs" textLength="9" x="86" y="333.4263">7</text><text fill="#000000" font-family="sans-serif" font-size="13" lengthAdjust="spacingAndGlyphs" textLength="118" x="99" y="333.4263">confirma os dados</text><polygon fill="#A80036" points="90,363.625,80,367.625,90,371.625,86,367.625" style="stroke: #A80036; stroke-width: 1.0;"/><line style="stroke: #A80036; stroke-width: 1.0; stroke-dasharray: 2.0,2.0;" x1="84" x2="766" y1="367.625" y2="367.625"/><text fill="#000000" font-family="sans-serif" font-size="13" font-weight="bold" lengthAdjust="spacingAndGlyphs" textLength="9" x="96" y="362.5591">8</text><text fill="#000000" font-family="sans-serif" font-size="13" lengthAdjust="spacingAndGlyphs" textLength="201" x="109" y="362.5591">informa o sucesso da operação</text><!--MD5=[033668dd0a77478d64829414ac1d90d8]
@startuml
autonumber
actor "Administrativo" as CO

activate CO

CO -> ":Sistema" : nova categoria de tarefa
activate ":Sistema"

":Sistema" - -> CO : solicita dados \n(descrição , área de atividade)
deactivate ":Sistema"

CO -> ":Sistema" : introduz os dados solicitados
activate ":Sistema"

":Sistema" - -> CO : apresenta as listas de competências disponíveis e solicita as competências obrigatórias e opcionais .
deactivate ":Sistema"


loop 
CO -> ":Sistema" : seleciona as competências opcionais e as obrigatórias
activate ":Sistema"
end

":Sistema" - -> CO : valida os dados e solicita confirmação
deactivate ":Sistema"

CO -> ":Sistema" : confirma os dados
activate ":Sistema"

":Sistema" - -> CO : informa o sucesso da operação
deactivate ":Sistema"
@enduml

PlantUML version 1.2020.06beta1(Unknown compile time)
(GPL source distribution)
Java Runtime: Java(TM) SE Runtime Environment
JVM: Java HotSpot(TM) 64-Bit Server VM
Java Version: 1.7.0_25-b15
Operating System: Linux
Default Encoding: UTF-8
Language: en
Country: US
--></g></svg>