<?xml version="1.0" encoding="UTF-8" standalone="no"?><svg xmlns="http://www.w3.org/2000/svg" xmlns:xlink="http://www.w3.org/1999/xlink" contentScriptType="application/ecmascript" contentStyleType="text/css" height="383px" preserveAspectRatio="none" style="width:541px;height:383px;" version="1.1" viewBox="0 0 541 383" width="541px" zoomAndPan="magnify"><defs><filter height="300%" id="fdylct5yqe2xj" width="300%" x="-1" y="-1"><feGaussianBlur result="blurOut" stdDeviation="2.0"/><feColorMatrix in="blurOut" result="blurOut2" type="matrix" values="0 0 0 0 0 0 0 0 0 0 0 0 0 0 0 0 0 0 .4 0"/><feOffset dx="4.0" dy="4.0" in="blurOut2" result="blurOut3"/><feBlend in="SourceGraphic" in2="blurOut3" mode="normal"/></filter></defs><g><rect fill="#FFFFFF" filter="url(#fdylct5yqe2xj)" height="181.9297" style="stroke: #A80036; stroke-width: 1.0;" width="10" x="54" y="96.2969"/><rect fill="#FFFFFF" filter="url(#fdylct5yqe2xj)" height="44.2656" style="stroke: #A80036; stroke-width: 1.0;" width="10" x="490" y="117.4297"/><rect fill="#FFFFFF" filter="url(#fdylct5yqe2xj)" height="29.1328" style="stroke: #A80036; stroke-width: 1.0;" width="10" x="490" y="190.8281"/><rect fill="#FFFFFF" filter="url(#fdylct5yqe2xj)" height="29.1328" style="stroke: #A80036; stroke-width: 1.0;" width="10" x="490" y="249.0938"/><line style="stroke: #A80036; stroke-width: 1.0; stroke-dasharray: 5.0,5.0;" x1="59" x2="59" y1="86.2969" y2="296.2266"/><line style="stroke: #A80036; stroke-width: 1.0; stroke-dasharray: 5.0,5.0;" x1="495" x2="495" y1="86.2969" y2="296.2266"/><text fill="#000000" font-family="sans-serif" font-size="14" lengthAdjust="spacingAndGlyphs" textLength="96" x="8" y="82.9951">Administrativo</text><ellipse cx="59" cy="13" fill="#FEFECE" filter="url(#fdylct5yqe2xj)" rx="8" ry="8" style="stroke: #A80036; stroke-width: 2.0;"/><path d="M59,21 L59,48 M46,29 L72,29 M59,48 L46,63 M59,48 L72,63 " fill="none" filter="url(#fdylct5yqe2xj)" style="stroke: #A80036; stroke-width: 2.0;"/><text fill="#000000" font-family="sans-serif" font-size="14" lengthAdjust="spacingAndGlyphs" textLength="96" x="8" y="308.2217">Administrativo</text><ellipse cx="59" cy="321.5234" fill="#FEFECE" filter="url(#fdylct5yqe2xj)" rx="8" ry="8" style="stroke: #A80036; stroke-width: 2.0;"/><path d="M59,329.5234 L59,356.5234 M46,337.5234 L72,337.5234 M59,356.5234 L46,371.5234 M59,356.5234 L72,371.5234 " fill="none" filter="url(#fdylct5yqe2xj)" style="stroke: #A80036; stroke-width: 2.0;"/><rect fill="#FEFECE" filter="url(#fdylct5yqe2xj)" height="30.2969" style="stroke: #A80036; stroke-width: 1.5;" width="74" x="456" y="51"/><text fill="#000000" font-family="sans-serif" font-size="14" lengthAdjust="spacingAndGlyphs" textLength="60" x="463" y="70.9951">:Sistema</text><rect fill="#FEFECE" filter="url(#fdylct5yqe2xj)" height="30.2969" style="stroke: #A80036; stroke-width: 1.5;" width="74" x="456" y="295.2266"/><text fill="#000000" font-family="sans-serif" font-size="14" lengthAdjust="spacingAndGlyphs" textLength="60" x="463" y="315.2217">:Sistema</text><rect fill="#FFFFFF" filter="url(#fdylct5yqe2xj)" height="181.9297" style="stroke: #A80036; stroke-width: 1.0;" width="10" x="54" y="96.2969"/><rect fill="#FFFFFF" filter="url(#fdylct5yqe2xj)" height="44.2656" style="stroke: #A80036; stroke-width: 1.0;" width="10" x="490" y="117.4297"/><rect fill="#FFFFFF" filter="url(#fdylct5yqe2xj)" height="29.1328" style="stroke: #A80036; stroke-width: 1.0;" width="10" x="490" y="190.8281"/><rect fill="#FFFFFF" filter="url(#fdylct5yqe2xj)" height="29.1328" style="stroke: #A80036; stroke-width: 1.0;" width="10" x="490" y="249.0938"/><polygon fill="#A80036" points="478,113.4297,488,117.4297,478,121.4297,482,117.4297" style="stroke: #A80036; stroke-width: 1.0;"/><line style="stroke: #A80036; stroke-width: 1.0;" x1="64" x2="484" y1="117.4297" y2="117.4297"/><text fill="#000000" font-family="sans-serif" font-size="13" font-weight="bold" lengthAdjust="spacingAndGlyphs" textLength="9" x="71" y="112.3638">1</text><text fill="#000000" font-family="sans-serif" font-size="13" lengthAdjust="spacingAndGlyphs" textLength="189" x="84" y="112.3638">inicia a definição da categoria</text><polygon fill="#A80036" points="75,157.6953,65,161.6953,75,165.6953,71,161.6953" style="stroke: #A80036; stroke-width: 1.0;"/><line style="stroke: #A80036; stroke-width: 1.0; stroke-dasharray: 2.0,2.0;" x1="69" x2="494" y1="161.6953" y2="161.6953"/><text fill="#000000" font-family="sans-serif" font-size="13" font-weight="bold" lengthAdjust="spacingAndGlyphs" textLength="9" x="81" y="149.063">2</text><text fill="#000000" font-family="sans-serif" font-size="13" lengthAdjust="spacingAndGlyphs" textLength="87" x="94" y="141.4966">solicita dados</text><text fill="#000000" font-family="sans-serif" font-size="13" lengthAdjust="spacingAndGlyphs" textLength="389" x="94" y="156.6294">(descrição, área de atividade e lista de competência técnica)</text><polygon fill="#A80036" points="478,186.8281,488,190.8281,478,194.8281,482,190.8281" style="stroke: #A80036; stroke-width: 1.0;"/><line style="stroke: #A80036; stroke-width: 1.0;" x1="64" x2="484" y1="190.8281" y2="190.8281"/><text fill="#000000" font-family="sans-serif" font-size="13" font-weight="bold" lengthAdjust="spacingAndGlyphs" textLength="9" x="71" y="185.7622">3</text><text fill="#000000" font-family="sans-serif" font-size="13" lengthAdjust="spacingAndGlyphs" textLength="185" x="84" y="185.7622">introduz os dados solicitados</text><polygon fill="#A80036" points="75,215.9609,65,219.9609,75,223.9609,71,219.9609" style="stroke: #A80036; stroke-width: 1.0;"/><line style="stroke: #A80036; stroke-width: 1.0; stroke-dasharray: 2.0,2.0;" x1="69" x2="494" y1="219.9609" y2="219.9609"/><text fill="#000000" font-family="sans-serif" font-size="13" font-weight="bold" lengthAdjust="spacingAndGlyphs" textLength="9" x="81" y="214.895">4</text><text fill="#000000" font-family="sans-serif" font-size="13" lengthAdjust="spacingAndGlyphs" textLength="251" x="94" y="214.895">apresenta dados e solicita confirmação</text><polygon fill="#A80036" points="478,245.0938,488,249.0938,478,253.0938,482,249.0938" style="stroke: #A80036; stroke-width: 1.0;"/><line style="stroke: #A80036; stroke-width: 1.0;" x1="64" x2="484" y1="249.0938" y2="249.0938"/><text fill="#000000" font-family="sans-serif" font-size="13" font-weight="bold" lengthAdjust="spacingAndGlyphs" textLength="9" x="71" y="244.0278">5</text><text fill="#000000" font-family="sans-serif" font-size="13" lengthAdjust="spacingAndGlyphs" textLength="56" x="84" y="244.0278">confirma</text><polygon fill="#A80036" points="70,274.2266,60,278.2266,70,282.2266,66,278.2266" style="stroke: #A80036; stroke-width: 1.0;"/><line style="stroke: #A80036; stroke-width: 1.0; stroke-dasharray: 2.0,2.0;" x1="64" x2="494" y1="278.2266" y2="278.2266"/><text fill="#000000" font-family="sans-serif" font-size="13" font-weight="bold" lengthAdjust="spacingAndGlyphs" textLength="9" x="76" y="273.1606">6</text><text fill="#000000" font-family="sans-serif" font-size="13" lengthAdjust="spacingAndGlyphs" textLength="154" x="89" y="273.1606">operação bem sucedida</text><!--MD5=[fd9fa481e299e3ab866b0cadce69d20c]
@startuml
autonumber
actor "Administrativo" as ADM

activate ADM
ADM -> ":Sistema" : inicia a definição da categoria
activate ":Sistema"
":Sistema" - -> ADM : solicita dados \n(descrição, área de atividade e lista de competência técnica)
deactivate ":Sistema"

ADM -> ":Sistema" : introduz os dados solicitados
activate ":Sistema"
":Sistema" - -> ADM : apresenta dados e solicita confirmação
deactivate ":Sistema"

ADM -> ":Sistema" : confirma
activate ":Sistema"
":Sistema" - -> ADM : operação bem sucedida
deactivate ":Sistema"

deactivate ADM
@enduml

PlantUML version 1.2020.06beta1(Unknown compile time)
(GPL source distribution)
Java Runtime: Java(TM) SE Runtime Environment
JVM: Java HotSpot(TM) 64-Bit Server VM
Java Version: 1.7.0_25-b15
Operating System: Linux
Default Encoding: UTF-8
Language: en
Country: US
--></g></svg>