<?xml version="1.0" encoding="UTF-8" standalone="no"?><svg xmlns="http://www.w3.org/2000/svg" xmlns:xlink="http://www.w3.org/1999/xlink" contentScriptType="application/ecmascript" contentStyleType="text/css" height="413px" preserveAspectRatio="none" style="width:1561px;height:413px;" version="1.1" viewBox="0 0 1561 413" width="1561px" zoomAndPan="magnify"><defs><filter height="300%" id="f1hxlm245gm7yl" width="300%" x="-1" y="-1"><feGaussianBlur result="blurOut" stdDeviation="2.0"/><feColorMatrix in="blurOut" result="blurOut2" type="matrix" values="0 0 0 0 0 0 0 0 0 0 0 0 0 0 0 0 0 0 .4 0"/><feOffset dx="4.0" dy="4.0" in="blurOut2" result="blurOut3"/><feBlend in="SourceGraphic" in2="blurOut3" mode="normal"/></filter></defs><g><!--MD5=[ecaed46f78f8cfe1e9ce18477649be18]
class Plataforma--><rect fill="#FEFECE" filter="url(#f1hxlm245gm7yl)" height="52.8047" id="Plataforma" style="stroke: #A80036; stroke-width: 1.5;" width="129" x="6" y="190.5"/><ellipse cx="34.05" cy="206.5" fill="#ADD1B2" rx="11" ry="11" style="stroke: #A80036; stroke-width: 1.0;"/><path d="M36.3938,202.1719 L36.5656,202.25 C36.7844,201.9375 36.9875,201.8438 37.2844,201.8438 C37.5813,201.8438 37.8625,201.9844 38.0188,202.25 C38.1125,202.4063 38.1281,202.5313 38.1281,202.9688 L38.1281,204.3906 C38.1281,204.8125 38.0969,205 37.9875,205.1563 C37.8156,205.375 37.55,205.5156 37.2844,205.5156 C37.0656,205.5156 36.8313,205.4063 36.6906,205.2656 C36.55,205.1406 36.5188,205.0156 36.4563,204.6094 C36.3625,204.2031 36.1906,203.9844 35.7063,203.7031 C35.2375,203.4531 34.6281,203.2969 34.05,203.2969 C32.3156,203.2969 31.0656,204.6094 31.0656,206.3906 L31.0656,207.4844 C31.0656,209.1875 32.3625,210.2813 34.4094,210.2813 C35.175,210.2813 35.8625,210.1563 36.2844,209.8906 C36.4719,209.7969 36.4719,209.7969 36.925,209.3125 C37.1125,209.125 37.3156,209.0469 37.5344,209.0469 C38.0031,209.0469 38.3938,209.4375 38.3938,209.8906 C38.3938,210.2813 38.0656,210.7344 37.4875,211.1406 C36.7375,211.6875 35.5813,211.9844 34.3625,211.9844 C31.4719,211.9844 29.3625,210.0938 29.3625,207.5156 L29.3625,206.3906 C29.3625,203.6719 31.3625,201.5938 33.9875,201.5938 C34.8625,201.5938 35.4563,201.7344 36.3938,202.1719 Z "/><text fill="#000000" font-family="sans-serif" font-size="12" lengthAdjust="spacingAndGlyphs" textLength="68" x="50.95" y="210.6543">Plataforma</text><line style="stroke: #A80036; stroke-width: 1.5;" x1="7" x2="134" y1="222.5" y2="222.5"/><rect fill="none" height="6" style="stroke: #C82930; stroke-width: 1.0;" width="6" x="14" y="230.5"/><text fill="#000000" font-family="sans-serif" font-size="11" lengthAdjust="spacingAndGlyphs" textLength="103" x="26" y="236.7104">String designacao</text><!--MD5=[02456e6632d968d6f68141e5893c6991]
class AreaAtividade--><rect fill="#FEFECE" filter="url(#f1hxlm245gm7yl)" height="78.4141" id="AreaAtividade" style="stroke: #A80036; stroke-width: 1.5;" width="148" x="1123" y="167"/><ellipse cx="1151.5" cy="183" fill="#ADD1B2" rx="11" ry="11" style="stroke: #A80036; stroke-width: 1.0;"/><path d="M1153.8438,178.6719 L1154.0156,178.75 C1154.2344,178.4375 1154.4375,178.3438 1154.7344,178.3438 C1155.0313,178.3438 1155.3125,178.4844 1155.4688,178.75 C1155.5625,178.9063 1155.5781,179.0313 1155.5781,179.4688 L1155.5781,180.8906 C1155.5781,181.3125 1155.5469,181.5 1155.4375,181.6563 C1155.2656,181.875 1155,182.0156 1154.7344,182.0156 C1154.5156,182.0156 1154.2813,181.9063 1154.1406,181.7656 C1154,181.6406 1153.9688,181.5156 1153.9063,181.1094 C1153.8125,180.7031 1153.6406,180.4844 1153.1563,180.2031 C1152.6875,179.9531 1152.0781,179.7969 1151.5,179.7969 C1149.7656,179.7969 1148.5156,181.1094 1148.5156,182.8906 L1148.5156,183.9844 C1148.5156,185.6875 1149.8125,186.7813 1151.8594,186.7813 C1152.625,186.7813 1153.3125,186.6563 1153.7344,186.3906 C1153.9219,186.2969 1153.9219,186.2969 1154.375,185.8125 C1154.5625,185.625 1154.7656,185.5469 1154.9844,185.5469 C1155.4531,185.5469 1155.8438,185.9375 1155.8438,186.3906 C1155.8438,186.7813 1155.5156,187.2344 1154.9375,187.6406 C1154.1875,188.1875 1153.0313,188.4844 1151.8125,188.4844 C1148.9219,188.4844 1146.8125,186.5938 1146.8125,184.0156 L1146.8125,182.8906 C1146.8125,180.1719 1148.8125,178.0938 1151.4375,178.0938 C1152.3125,178.0938 1152.9063,178.2344 1153.8438,178.6719 Z "/><text fill="#000000" font-family="sans-serif" font-size="12" lengthAdjust="spacingAndGlyphs" textLength="86" x="1168.5" y="187.1543">AreaAtividade</text><line style="stroke: #A80036; stroke-width: 1.5;" x1="1124" x2="1270" y1="199" y2="199"/><rect fill="none" height="6" style="stroke: #C82930; stroke-width: 1.0;" width="6" x="1131" y="207"/><text fill="#000000" font-family="sans-serif" font-size="11" lengthAdjust="spacingAndGlyphs" textLength="75" x="1143" y="213.2104">String codigo</text><rect fill="none" height="6" style="stroke: #C82930; stroke-width: 1.0;" width="6" x="1131" y="219.8047"/><text fill="#000000" font-family="sans-serif" font-size="11" lengthAdjust="spacingAndGlyphs" textLength="98" x="1143" y="226.0151">String descBreve</text><rect fill="none" height="6" style="stroke: #C82930; stroke-width: 1.0;" width="6" x="1131" y="232.6094"/><text fill="#000000" font-family="sans-serif" font-size="11" lengthAdjust="spacingAndGlyphs" textLength="122" x="1143" y="238.8198">String descDetalhada</text><!--MD5=[a322db5a7ec64d2ff8f2d6cf1831dcec]
class CompetenciaTecnica--><rect fill="#FEFECE" filter="url(#f1hxlm245gm7yl)" height="78.4141" id="CompetenciaTecnica" style="stroke: #A80036; stroke-width: 1.5;" width="162" x="815" y="229"/><ellipse cx="830" cy="245" fill="#ADD1B2" rx="11" ry="11" style="stroke: #A80036; stroke-width: 1.0;"/><path d="M832.3438,240.6719 L832.5156,240.75 C832.7344,240.4375 832.9375,240.3438 833.2344,240.3438 C833.5313,240.3438 833.8125,240.4844 833.9688,240.75 C834.0625,240.9063 834.0781,241.0313 834.0781,241.4688 L834.0781,242.8906 C834.0781,243.3125 834.0469,243.5 833.9375,243.6563 C833.7656,243.875 833.5,244.0156 833.2344,244.0156 C833.0156,244.0156 832.7813,243.9063 832.6406,243.7656 C832.5,243.6406 832.4688,243.5156 832.4063,243.1094 C832.3125,242.7031 832.1406,242.4844 831.6563,242.2031 C831.1875,241.9531 830.5781,241.7969 830,241.7969 C828.2656,241.7969 827.0156,243.1094 827.0156,244.8906 L827.0156,245.9844 C827.0156,247.6875 828.3125,248.7813 830.3594,248.7813 C831.125,248.7813 831.8125,248.6563 832.2344,248.3906 C832.4219,248.2969 832.4219,248.2969 832.875,247.8125 C833.0625,247.625 833.2656,247.5469 833.4844,247.5469 C833.9531,247.5469 834.3438,247.9375 834.3438,248.3906 C834.3438,248.7813 834.0156,249.2344 833.4375,249.6406 C832.6875,250.1875 831.5313,250.4844 830.3125,250.4844 C827.4219,250.4844 825.3125,248.5938 825.3125,246.0156 L825.3125,244.8906 C825.3125,242.1719 827.3125,240.0938 829.9375,240.0938 C830.8125,240.0938 831.4063,240.2344 832.3438,240.6719 Z "/><text fill="#000000" font-family="sans-serif" font-size="12" lengthAdjust="spacingAndGlyphs" textLength="130" x="844" y="249.1543">CompetenciaTecnica</text><line style="stroke: #A80036; stroke-width: 1.5;" x1="816" x2="976" y1="261" y2="261"/><rect fill="none" height="6" style="stroke: #C82930; stroke-width: 1.0;" width="6" x="823" y="269"/><text fill="#000000" font-family="sans-serif" font-size="11" lengthAdjust="spacingAndGlyphs" textLength="75" x="835" y="275.2104">String codigo</text><rect fill="none" height="6" style="stroke: #C82930; stroke-width: 1.0;" width="6" x="823" y="281.8047"/><text fill="#000000" font-family="sans-serif" font-size="11" lengthAdjust="spacingAndGlyphs" textLength="98" x="835" y="288.0151">String descBreve</text><rect fill="none" height="6" style="stroke: #C82930; stroke-width: 1.0;" width="6" x="823" y="294.6094"/><text fill="#000000" font-family="sans-serif" font-size="11" lengthAdjust="spacingAndGlyphs" textLength="122" x="835" y="300.8198">String descDetalhada</text><!--MD5=[7bb95b5cb1c5d9061d1eedf13c97b467]
class Administrativo--><rect fill="#FEFECE" filter="url(#f1hxlm245gm7yl)" height="78.4141" id="Administrativo" style="stroke: #A80036; stroke-width: 1.5;" width="120" x="296" y="139"/><ellipse cx="311" cy="155" fill="#ADD1B2" rx="11" ry="11" style="stroke: #A80036; stroke-width: 1.0;"/><path d="M313.3438,150.6719 L313.5156,150.75 C313.7344,150.4375 313.9375,150.3438 314.2344,150.3438 C314.5313,150.3438 314.8125,150.4844 314.9688,150.75 C315.0625,150.9063 315.0781,151.0313 315.0781,151.4688 L315.0781,152.8906 C315.0781,153.3125 315.0469,153.5 314.9375,153.6563 C314.7656,153.875 314.5,154.0156 314.2344,154.0156 C314.0156,154.0156 313.7813,153.9063 313.6406,153.7656 C313.5,153.6406 313.4688,153.5156 313.4063,153.1094 C313.3125,152.7031 313.1406,152.4844 312.6563,152.2031 C312.1875,151.9531 311.5781,151.7969 311,151.7969 C309.2656,151.7969 308.0156,153.1094 308.0156,154.8906 L308.0156,155.9844 C308.0156,157.6875 309.3125,158.7813 311.3594,158.7813 C312.125,158.7813 312.8125,158.6563 313.2344,158.3906 C313.4219,158.2969 313.4219,158.2969 313.875,157.8125 C314.0625,157.625 314.2656,157.5469 314.4844,157.5469 C314.9531,157.5469 315.3438,157.9375 315.3438,158.3906 C315.3438,158.7813 315.0156,159.2344 314.4375,159.6406 C313.6875,160.1875 312.5313,160.4844 311.3125,160.4844 C308.4219,160.4844 306.3125,158.5938 306.3125,156.0156 L306.3125,154.8906 C306.3125,152.1719 308.3125,150.0938 310.9375,150.0938 C311.8125,150.0938 312.4063,150.2344 313.3438,150.6719 Z "/><text fill="#000000" font-family="sans-serif" font-size="12" lengthAdjust="spacingAndGlyphs" textLength="88" x="325" y="159.1543">Administrativo</text><line style="stroke: #A80036; stroke-width: 1.5;" x1="297" x2="415" y1="171" y2="171"/><rect fill="none" height="6" style="stroke: #C82930; stroke-width: 1.0;" width="6" x="304" y="179"/><text fill="#000000" font-family="sans-serif" font-size="11" lengthAdjust="spacingAndGlyphs" textLength="70" x="316" y="185.2104">String nome</text><rect fill="none" height="6" style="stroke: #C82930; stroke-width: 1.0;" width="6" x="304" y="191.8047"/><text fill="#000000" font-family="sans-serif" font-size="11" lengthAdjust="spacingAndGlyphs" textLength="84" x="316" y="198.0151">String telefone</text><rect fill="none" height="6" style="stroke: #C82930; stroke-width: 1.0;" width="6" x="304" y="204.6094"/><text fill="#000000" font-family="sans-serif" font-size="11" lengthAdjust="spacingAndGlyphs" textLength="69" x="316" y="210.8198">String email</text><!--MD5=[908ebdac55ea5aeb42bf769c37b68b16]
class CategoriadeTarefa--><rect fill="#FEFECE" filter="url(#f1hxlm245gm7yl)" height="78.4141" id="CategoriadeTarefa" style="stroke: #A80036; stroke-width: 1.5;" width="149" x="532" y="324"/><ellipse cx="547" cy="340" fill="#ADD1B2" rx="11" ry="11" style="stroke: #A80036; stroke-width: 1.0;"/><path d="M549.3438,335.6719 L549.5156,335.75 C549.7344,335.4375 549.9375,335.3438 550.2344,335.3438 C550.5313,335.3438 550.8125,335.4844 550.9688,335.75 C551.0625,335.9063 551.0781,336.0313 551.0781,336.4688 L551.0781,337.8906 C551.0781,338.3125 551.0469,338.5 550.9375,338.6563 C550.7656,338.875 550.5,339.0156 550.2344,339.0156 C550.0156,339.0156 549.7813,338.9063 549.6406,338.7656 C549.5,338.6406 549.4688,338.5156 549.4063,338.1094 C549.3125,337.7031 549.1406,337.4844 548.6563,337.2031 C548.1875,336.9531 547.5781,336.7969 547,336.7969 C545.2656,336.7969 544.0156,338.1094 544.0156,339.8906 L544.0156,340.9844 C544.0156,342.6875 545.3125,343.7813 547.3594,343.7813 C548.125,343.7813 548.8125,343.6563 549.2344,343.3906 C549.4219,343.2969 549.4219,343.2969 549.875,342.8125 C550.0625,342.625 550.2656,342.5469 550.4844,342.5469 C550.9531,342.5469 551.3438,342.9375 551.3438,343.3906 C551.3438,343.7813 551.0156,344.2344 550.4375,344.6406 C549.6875,345.1875 548.5313,345.4844 547.3125,345.4844 C544.4219,345.4844 542.3125,343.5938 542.3125,341.0156 L542.3125,339.8906 C542.3125,337.1719 544.3125,335.0938 546.9375,335.0938 C547.8125,335.0938 548.4063,335.2344 549.3438,335.6719 Z "/><text fill="#000000" font-family="sans-serif" font-size="12" lengthAdjust="spacingAndGlyphs" textLength="117" x="561" y="344.1543">CategoriadeTarefa</text><line style="stroke: #A80036; stroke-width: 1.5;" x1="533" x2="680" y1="356" y2="356"/><rect fill="none" height="6" style="stroke: #C82930; stroke-width: 1.0;" width="6" x="540" y="364"/><text fill="#000000" font-family="sans-serif" font-size="11" lengthAdjust="spacingAndGlyphs" textLength="75" x="552" y="370.2104">String codigo</text><rect fill="none" height="6" style="stroke: #C82930; stroke-width: 1.0;" width="6" x="540" y="376.8047"/><text fill="#000000" font-family="sans-serif" font-size="11" lengthAdjust="spacingAndGlyphs" textLength="98" x="552" y="383.0151">String descBreve</text><rect fill="none" height="6" style="stroke: #C82930; stroke-width: 1.0;" width="6" x="540" y="389.6094"/><text fill="#000000" font-family="sans-serif" font-size="11" lengthAdjust="spacingAndGlyphs" textLength="122" x="552" y="395.8198">String descDetalhada</text><!--MD5=[ec1f319843431b440f70471b1fe0616f]
class ObrigatoriedadeCT--><rect fill="#FEFECE" filter="url(#f1hxlm245gm7yl)" height="65.6094" id="ObrigatoriedadeCT" style="stroke: #A80036; stroke-width: 1.5;" width="178" x="1372" y="264"/><ellipse cx="1400.05" cy="280" fill="#ADD1B2" rx="11" ry="11" style="stroke: #A80036; stroke-width: 1.0;"/><path d="M1402.3938,275.6719 L1402.5656,275.75 C1402.7844,275.4375 1402.9875,275.3438 1403.2844,275.3438 C1403.5813,275.3438 1403.8625,275.4844 1404.0188,275.75 C1404.1125,275.9063 1404.1281,276.0313 1404.1281,276.4688 L1404.1281,277.8906 C1404.1281,278.3125 1404.0969,278.5 1403.9875,278.6563 C1403.8156,278.875 1403.55,279.0156 1403.2844,279.0156 C1403.0656,279.0156 1402.8313,278.9063 1402.6906,278.7656 C1402.55,278.6406 1402.5188,278.5156 1402.4563,278.1094 C1402.3625,277.7031 1402.1906,277.4844 1401.7063,277.2031 C1401.2375,276.9531 1400.6281,276.7969 1400.05,276.7969 C1398.3156,276.7969 1397.0656,278.1094 1397.0656,279.8906 L1397.0656,280.9844 C1397.0656,282.6875 1398.3625,283.7813 1400.4094,283.7813 C1401.175,283.7813 1401.8625,283.6563 1402.2844,283.3906 C1402.4719,283.2969 1402.4719,283.2969 1402.925,282.8125 C1403.1125,282.625 1403.3156,282.5469 1403.5344,282.5469 C1404.0031,282.5469 1404.3938,282.9375 1404.3938,283.3906 C1404.3938,283.7813 1404.0656,284.2344 1403.4875,284.6406 C1402.7375,285.1875 1401.5813,285.4844 1400.3625,285.4844 C1397.4719,285.4844 1395.3625,283.5938 1395.3625,281.0156 L1395.3625,279.8906 C1395.3625,277.1719 1397.3625,275.0938 1399.9875,275.0938 C1400.8625,275.0938 1401.4563,275.2344 1402.3938,275.6719 Z "/><text fill="#000000" font-family="sans-serif" font-size="12" lengthAdjust="spacingAndGlyphs" textLength="117" x="1416.95" y="284.1543">ObrigatoriedadeCT</text><line style="stroke: #A80036; stroke-width: 1.5;" x1="1373" x2="1549" y1="296" y2="296"/><rect fill="none" height="6" style="stroke: #C82930; stroke-width: 1.0;" width="6" x="1380" y="304"/><text fill="#000000" font-family="sans-serif" font-size="11" lengthAdjust="spacingAndGlyphs" textLength="90" x="1392" y="310.2104">boolean obrgCT</text><rect fill="none" height="6" style="stroke: #C82930; stroke-width: 1.0;" width="6" x="1380" y="316.8047"/><text fill="#000000" font-family="sans-serif" font-size="11" lengthAdjust="spacingAndGlyphs" textLength="152" x="1392" y="323.0151">CompetenciaTecnica comp</text><!--MD5=[746e22dea1baaa15e4ea17b5b6463f0f]
link Administrativo to Plataforma--><path d="M295.788,183.313 C258.221,186.988 208.642,192.398 165,199 C155.275,200.471 145.02,202.231 135.006,204.065 " fill="none" id="Administrativo-Plataforma" style="stroke: #A80036; stroke-width: 1.0;"/><polygon fill="#000000" points="173,177.0664,167,180.0664,173,183.0664,173,177.0664" style="stroke: #000000; stroke-width: 1.0;"/><text fill="#000000" font-family="sans-serif" font-size="13" lengthAdjust="spacingAndGlyphs" textLength="86" x="179" y="183.0669">trabalha para</text><text fill="#000000" font-family="sans-serif" font-size="13" lengthAdjust="spacingAndGlyphs" textLength="8" x="279.9622" y="196.9243">1</text><text fill="#000000" font-family="sans-serif" font-size="13" lengthAdjust="spacingAndGlyphs" textLength="8" x="142.927" y="198.7881">1</text><!--MD5=[b585ec1f109bee2e6a0accf9e50b3199]
link Plataforma to Administrativo--><path d="M135.009,227.909 C173.447,232.396 223.153,234.418 266,224 C275.971,221.575 286.074,217.825 295.718,213.489 " fill="none" id="Plataforma-Administrativo" style="stroke: #A80036; stroke-width: 1.0;"/><text fill="#000000" font-family="sans-serif" font-size="13" lengthAdjust="spacingAndGlyphs" textLength="26" x="196" y="220.0669">tem</text><polygon fill="#000000" points="225,214.0664,231,217.0664,225,220.0664,225,214.0664" style="stroke: #000000; stroke-width: 1.0;"/><text fill="#000000" font-family="sans-serif" font-size="13" lengthAdjust="spacingAndGlyphs" textLength="8" x="142.9304" y="225.389">1</text><text fill="#000000" font-family="sans-serif" font-size="13" lengthAdjust="spacingAndGlyphs" textLength="7" x="280.9446" y="230.778">*</text><!--MD5=[558b4cb2fb2fd6ba128d614ea99f36d2]
link Administrativo to CategoriadeTarefa--><path d="M416.233,205.206 C443.509,218.979 475.603,237.012 502,257 C527.837,276.564 553.313,302.5476 572.525,323.8927 " fill="none" id="Administrativo-CategoriadeTarefa" style="stroke: #A80036; stroke-width: 1.0;"/><text fill="#000000" font-family="sans-serif" font-size="13" lengthAdjust="spacingAndGlyphs" textLength="39" x="448" y="219.0669">define</text><polygon fill="#000000" points="490,213.0664,496,216.0664,490,219.0664,490,213.0664" style="stroke: #000000; stroke-width: 1.0;"/><text fill="#000000" font-family="sans-serif" font-size="13" lengthAdjust="spacingAndGlyphs" textLength="8" x="424.0614" y="221.4855">1</text><text fill="#000000" font-family="sans-serif" font-size="13" lengthAdjust="spacingAndGlyphs" textLength="7" x="559.084" y="312.9248">*</text><!--MD5=[81e834ef6626e9dc0f465969ac08d630]
link Administrativo to CompetenciaTecnica--><path d="M416.112,185.248 C498.93,195.765 654.048,216.779 785,242 C794.731,243.874 804.903,246.021 814.964,248.259 " fill="none" id="Administrativo-CompetenciaTecnica" style="stroke: #A80036; stroke-width: 1.0;"/><text fill="#000000" font-family="sans-serif" font-size="13" lengthAdjust="spacingAndGlyphs" textLength="39" x="580.5" y="198.0669">define</text><polygon fill="#000000" points="622.5,192.0664,628.5,195.0664,622.5,198.0664,622.5,192.0664" style="stroke: #000000; stroke-width: 1.0;"/><text fill="#000000" font-family="sans-serif" font-size="13" lengthAdjust="spacingAndGlyphs" textLength="8" x="423.9257" y="199.0952">1</text><text fill="#000000" font-family="sans-serif" font-size="13" lengthAdjust="spacingAndGlyphs" textLength="7" x="799.9067" y="259.1458">*</text><!--MD5=[ad4b44ad1b3093550e774eaf6ff8b944]
link Administrativo to AreaAtividade--><path d="M416.269,169.645 C426.177,168.544 436.365,167.593 446,167 C470.842,165.471 477.121,166.306 502,167 C728.632,173.326 996.401,191.372 1122.87,200.528 " fill="none" id="Administrativo-AreaAtividade" style="stroke: #A80036; stroke-width: 1.0;"/><text fill="#000000" font-family="sans-serif" font-size="13" lengthAdjust="spacingAndGlyphs" textLength="39" x="722" y="172.0669">define</text><polygon fill="#000000" points="764,166.0664,770,169.0664,764,172.0664,764,166.0664" style="stroke: #000000; stroke-width: 1.0;"/><text fill="#000000" font-family="sans-serif" font-size="13" lengthAdjust="spacingAndGlyphs" textLength="8" x="424.1018" y="181.5906">1</text><text fill="#000000" font-family="sans-serif" font-size="13" lengthAdjust="spacingAndGlyphs" textLength="7" x="1107.8644" y="212.7895">*</text><!--MD5=[259e83743907073ef2040fd5117223b5]
link AreaAtividade to ObrigatoriedadeCT--><path d="M1271.33,231.47 C1302.52,242.301 1339.15,255.025 1371.8,266.364 " fill="none" id="AreaAtividade-ObrigatoriedadeCT" style="stroke: #A80036; stroke-width: 1.0;"/><text fill="#000000" font-family="sans-serif" font-size="13" lengthAdjust="spacingAndGlyphs" textLength="26" x="1302" y="240.0669">tem</text><polygon fill="#000000" points="1331,234.0664,1337,237.0664,1331,240.0664,1331,234.0664" style="stroke: #000000; stroke-width: 1.0;"/><text fill="#000000" font-family="sans-serif" font-size="13" lengthAdjust="spacingAndGlyphs" textLength="8" x="1279.0406" y="246.7685">1</text><text fill="#000000" font-family="sans-serif" font-size="13" lengthAdjust="spacingAndGlyphs" textLength="7" x="1357.1233" y="276.5366">*</text><!--MD5=[4c52be314057a541c5a187d698824313]
link Plataforma to CategoriadeTarefa--><path d="M93.1736,243.548 C110.492,262.813 136.515,287.733 165,301 C284.714,356.7578 441.041,365.6899 531.654,365.4745 " fill="none" id="Plataforma-CategoriadeTarefa" style="stroke: #A80036; stroke-width: 1.0;"/><text fill="#000000" font-family="sans-serif" font-size="13" lengthAdjust="spacingAndGlyphs" textLength="41" x="329" y="339.0669">possui</text><polygon fill="#000000" points="373,333.0664,379,336.0664,373,339.0664,373,333.0664" style="stroke: #000000; stroke-width: 1.0;"/><text fill="#000000" font-family="sans-serif" font-size="13" lengthAdjust="spacingAndGlyphs" textLength="8" x="89.4919" y="263.5264">1</text><text fill="#000000" font-family="sans-serif" font-size="13" lengthAdjust="spacingAndGlyphs" textLength="7" x="516.9418" y="378.5094">*</text><!--MD5=[718b46c9a1975c175f4073d63ce5ccba]
link Plataforma to AreaAtividade--><path d="M91.7191,190.303 C134.203,137.547 238.49,25 355,25 C355,25 355,25 897,25 C1005.617,25 1108.52,113.492 1160.6,166.726 " fill="none" id="Plataforma-AreaAtividade" style="stroke: #A80036; stroke-width: 1.0;"/><text fill="#000000" font-family="sans-serif" font-size="13" lengthAdjust="spacingAndGlyphs" textLength="41" x="579.5" y="21.0669">possui</text><polygon fill="#000000" points="623.5,15.0664,629.5,18.0664,623.5,21.0664,623.5,15.0664" style="stroke: #000000; stroke-width: 1.0;"/><text fill="#000000" font-family="sans-serif" font-size="13" lengthAdjust="spacingAndGlyphs" textLength="8" x="87.701" y="179.4998">1</text><text fill="#000000" font-family="sans-serif" font-size="13" lengthAdjust="spacingAndGlyphs" textLength="7" x="1146.9916" y="156.0227">*</text><!--MD5=[a77d152358ce76c19672aacd9fb0ada1]
link Plataforma to CompetenciaTecnica--><path d="M135.2,233.507 C145.141,235.84 155.324,238.091 165,240 C313.082,269.214 351.087,284.687 502,282 C610.365,280.07 735.459,275.15 814.862,271.691 " fill="none" id="Plataforma-CompetenciaTecnica" style="stroke: #A80036; stroke-width: 1.0;"/><text fill="#000000" font-family="sans-serif" font-size="13" lengthAdjust="spacingAndGlyphs" textLength="41" x="447" y="278.0669">possui</text><polygon fill="#000000" points="491,272.0664,497,275.0664,491,278.0664,491,272.0664" style="stroke: #000000; stroke-width: 1.0;"/><text fill="#000000" font-family="sans-serif" font-size="13" lengthAdjust="spacingAndGlyphs" textLength="8" x="143.1434" y="248.3687">1</text><text fill="#000000" font-family="sans-serif" font-size="13" lengthAdjust="spacingAndGlyphs" textLength="7" x="800.0594" y="284.7766">*</text><!--MD5=[e538c9efa8de58386edc6206f3c58807]
link CompetenciaTecnica to AreaAtividade--><path d="M977.127,251.385 C1022.45,241.987 1078.7,230.323 1122.83,221.173 " fill="none" id="CompetenciaTecnica-AreaAtividade" style="stroke: #A80036; stroke-width: 1.0;"/><text fill="#000000" font-family="sans-serif" font-size="13" lengthAdjust="spacingAndGlyphs" textLength="71" x="1008" y="224.0669">referente a</text><polygon fill="#000000" points="1082,218.0664,1088,221.0664,1082,224.0664,1082,218.0664" style="stroke: #000000; stroke-width: 1.0;"/><text fill="#000000" font-family="sans-serif" font-size="13" lengthAdjust="spacingAndGlyphs" textLength="7" x="984.9286" y="262.5986">*</text><text fill="#000000" font-family="sans-serif" font-size="13" lengthAdjust="spacingAndGlyphs" textLength="7" x="1107.8203" y="235.5635">*</text><!--MD5=[b37a3b5a0afe003dae1d17da3033baab]
link CompetenciaTecnica to ObrigatoriedadeCT--><path d="M977.066,272.124 C1081.5,277.503 1263.6,286.884 1371.87,292.46 " fill="none" id="CompetenciaTecnica-ObrigatoriedadeCT" style="stroke: #A80036; stroke-width: 1.0;"/><text fill="#000000" font-family="sans-serif" font-size="13" lengthAdjust="spacingAndGlyphs" textLength="26" x="1177.5" y="277.0669">tem</text><polygon fill="#000000" points="1206.5,271.0664,1212.5,274.0664,1206.5,277.0664,1206.5,271.0664" style="stroke: #000000; stroke-width: 1.0;"/><text fill="#000000" font-family="sans-serif" font-size="13" lengthAdjust="spacingAndGlyphs" textLength="7" x="985.1262" y="285.2854">*</text><text fill="#000000" font-family="sans-serif" font-size="13" lengthAdjust="spacingAndGlyphs" textLength="7" x="1356.9096" y="304.8038">*</text><!--MD5=[3dcaca9584d9b66001bc3100524f1e28]
link CategoriadeTarefa to AreaAtividade--><path d="M681.274,369.0162 C757.256,372.8319 878.188,372.2109 977,341 C994.249,335.5517 1077.37,282.938 1136.08,245.034 " fill="none" id="CategoriadeTarefa-AreaAtividade" style="stroke: #A80036; stroke-width: 1.0;"/><text fill="#000000" font-family="sans-serif" font-size="13" lengthAdjust="spacingAndGlyphs" textLength="59" x="860" y="337.0669">referente</text><polygon fill="#000000" points="922,331.0664,928,334.0664,922,337.0664,922,331.0664" style="stroke: #000000; stroke-width: 1.0;"/><text fill="#000000" font-family="sans-serif" font-size="13" lengthAdjust="spacingAndGlyphs" textLength="8" x="689.0283" y="382.3998">1</text><text fill="#000000" font-family="sans-serif" font-size="13" lengthAdjust="spacingAndGlyphs" textLength="7" x="1117.6052" y="265.3647">*</text><!--MD5=[75309c4f2e15d8c8056e66dae99a59c5]
link CategoriadeTarefa to CompetenciaTecnica--><path d="M681.36,342.9285 C713.415,333.8148 751.266,322.51 785,311 C794.703,307.6893 804.812,304.0316 814.798,300.289 " fill="none" id="CategoriadeTarefa-CompetenciaTecnica" style="stroke: #A80036; stroke-width: 1.0;"/><text fill="#000000" font-family="sans-serif" font-size="13" lengthAdjust="spacingAndGlyphs" textLength="59" x="712" y="307.0669">referente</text><polygon fill="#000000" points="774,301.0664,780,304.0664,774,307.0664,774,301.0664" style="stroke: #000000; stroke-width: 1.0;"/><text fill="#000000" font-family="sans-serif" font-size="13" lengthAdjust="spacingAndGlyphs" textLength="8" x="689.1228" y="353.744">1</text><text fill="#000000" font-family="sans-serif" font-size="13" lengthAdjust="spacingAndGlyphs" textLength="7" x="799.9895" y="316.011">*</text><!--MD5=[0352f60356d4732ab960b25d484a3f2b]
link CategoriadeTarefa to ObrigatoriedadeCT--><path d="M681.142,374.9974 C691.152,376.24 701.311,377.3016 711,378 C743.804,380.3647 752.112,378.1713 785,378 C870.337,377.5555 891.979,383.3531 977,376 C1116.04,363.9749 1275.49,334.8599 1371.93,315.535 " fill="none" id="CategoriadeTarefa-ObrigatoriedadeCT" style="stroke: #A80036; stroke-width: 1.0;"/><text fill="#000000" font-family="sans-serif" font-size="13" lengthAdjust="spacingAndGlyphs" textLength="26" x="1037" y="359.0669">tem</text><text fill="#000000" font-family="sans-serif" font-size="13" lengthAdjust="spacingAndGlyphs" textLength="8" x="688.8833" y="372.4932">1</text><text fill="#000000" font-family="sans-serif" font-size="13" lengthAdjust="spacingAndGlyphs" textLength="7" x="1356.9748" y="329.8618">*</text><!--MD5=[1113c1a7f40a1427f7ee6fba7eaa0275]
@startuml
hide methods
left to right direction
 
 
class Plataforma {
  -String designacao
}

class AreaAtividade {
  -String codigo
  -String descBreve
  -String descDetalhada
}

class CompetenciaTecnica {
  -String codigo
  -String descBreve
  -String descDetalhada
}



class Administrativo {
  -String nome
  -String telefone
  -String email
}
class CategoriadeTarefa {
-String codigo
  -String descBreve
  -String descDetalhada
}

class ObrigatoriedadeCT {
-boolean obrgCT
-CompetenciaTecnica comp
}

Administrativo "1" - - "1" Plataforma : trabalha para >
Administrativo "1" - - "*" CategoriadeTarefa : define  >
Administrativo "1" - - "*" CompetenciaTecnica : define  >
Administrativo "1" - - "*" AreaAtividade : define  >
AreaAtividade "1" - - "*" ObrigatoriedadeCT : tem >
Plataforma "1" - - "*" CategoriadeTarefa : possui >
Plataforma "1" - - "*" AreaAtividade : possui >
Plataforma "1" - - "*" CompetenciaTecnica : possui >
Plataforma "1" - - "*" Administrativo : tem  >
CompetenciaTecnica "*" - - "*" AreaAtividade : referente a >
CompetenciaTecnica "*" - - "*" ObrigatoriedadeCT : tem >
CategoriadeTarefa "1" - - "*" AreaAtividade : referente >
CategoriadeTarefa "1" - - "*" CompetenciaTecnica : referente >
CategoriadeTarefa "1" - - "*" ObrigatoriedadeCT : tem
@enduml

PlantUML version 1.2020.06beta1(Unknown compile time)
(GPL source distribution)
Java Runtime: Java(TM) SE Runtime Environment
JVM: Java HotSpot(TM) 64-Bit Server VM
Java Version: 1.7.0_25-b15
Operating System: Linux
Default Encoding: UTF-8
Language: en
Country: US
--></g></svg>