<?xml version="1.0" encoding="UTF-8" standalone="no"?><svg xmlns="http://www.w3.org/2000/svg" xmlns:xlink="http://www.w3.org/1999/xlink" contentScriptType="application/ecmascript" contentStyleType="text/css" height="891px" preserveAspectRatio="none" style="width:602px;height:891px;" version="1.1" viewBox="0 0 602 891" width="602px" zoomAndPan="magnify"><defs><filter height="300%" id="fqnk4wlcxq9ha" width="300%" x="-1" y="-1"><feGaussianBlur result="blurOut" stdDeviation="2.0"/><feColorMatrix in="blurOut" result="blurOut2" type="matrix" values="0 0 0 0 0 0 0 0 0 0 0 0 0 0 0 0 0 0 .4 0"/><feOffset dx="4.0" dy="4.0" in="blurOut2" result="blurOut3"/><feBlend in="SourceGraphic" in2="blurOut3" mode="normal"/></filter></defs><g><!--MD5=[d797b55806609526f9424c3f5fca1db9]
class DefinirCategoriaUI--><rect fill="#FEFECE" filter="url(#fqnk4wlcxq9ha)" height="48" id="DefinirCategoriaUI" style="stroke: #A80036; stroke-width: 1.5;" width="145" x="347.5" y="8"/><ellipse cx="362.5" cy="24" fill="#ADD1B2" rx="11" ry="11" style="stroke: #A80036; stroke-width: 1.0;"/><path d="M364.8438,19.6719 L365.0156,19.75 C365.2344,19.4375 365.4375,19.3438 365.7344,19.3438 C366.0313,19.3438 366.3125,19.4844 366.4688,19.75 C366.5625,19.9063 366.5781,20.0313 366.5781,20.4688 L366.5781,21.8906 C366.5781,22.3125 366.5469,22.5 366.4375,22.6563 C366.2656,22.875 366,23.0156 365.7344,23.0156 C365.5156,23.0156 365.2813,22.9063 365.1406,22.7656 C365,22.6406 364.9688,22.5156 364.9063,22.1094 C364.8125,21.7031 364.6406,21.4844 364.1563,21.2031 C363.6875,20.9531 363.0781,20.7969 362.5,20.7969 C360.7656,20.7969 359.5156,22.1094 359.5156,23.8906 L359.5156,24.9844 C359.5156,26.6875 360.8125,27.7813 362.8594,27.7813 C363.625,27.7813 364.3125,27.6563 364.7344,27.3906 C364.9219,27.2969 364.9219,27.2969 365.375,26.8125 C365.5625,26.625 365.7656,26.5469 365.9844,26.5469 C366.4531,26.5469 366.8438,26.9375 366.8438,27.3906 C366.8438,27.7813 366.5156,28.2344 365.9375,28.6406 C365.1875,29.1875 364.0313,29.4844 362.8125,29.4844 C359.9219,29.4844 357.8125,27.5938 357.8125,25.0156 L357.8125,23.8906 C357.8125,21.1719 359.8125,19.0938 362.4375,19.0938 C363.3125,19.0938 363.9063,19.2344 364.8438,19.6719 Z "/><text fill="#000000" font-family="sans-serif" font-size="12" lengthAdjust="spacingAndGlyphs" textLength="113" x="376.5" y="28.1543">DefinirCategoriaUI</text><line style="stroke: #A80036; stroke-width: 1.5;" x1="348.5" x2="491.5" y1="40" y2="40"/><line style="stroke: #A80036; stroke-width: 1.5;" x1="348.5" x2="491.5" y1="48" y2="48"/><!--MD5=[8153b488a8cbc44b7e7be39538dbc4fa]
class DefinirCategoriaController--><rect fill="#FEFECE" filter="url(#fqnk4wlcxq9ha)" height="112.0234" id="DefinirCategoriaController" style="stroke: #A80036; stroke-width: 1.5;" width="318" x="261" y="117"/><ellipse cx="334.75" cy="133" fill="#ADD1B2" rx="11" ry="11" style="stroke: #A80036; stroke-width: 1.0;"/><path d="M337.0938,128.6719 L337.2656,128.75 C337.4844,128.4375 337.6875,128.3438 337.9844,128.3438 C338.2813,128.3438 338.5625,128.4844 338.7188,128.75 C338.8125,128.9063 338.8281,129.0313 338.8281,129.4688 L338.8281,130.8906 C338.8281,131.3125 338.7969,131.5 338.6875,131.6563 C338.5156,131.875 338.25,132.0156 337.9844,132.0156 C337.7656,132.0156 337.5313,131.9063 337.3906,131.7656 C337.25,131.6406 337.2188,131.5156 337.1563,131.1094 C337.0625,130.7031 336.8906,130.4844 336.4063,130.2031 C335.9375,129.9531 335.3281,129.7969 334.75,129.7969 C333.0156,129.7969 331.7656,131.1094 331.7656,132.8906 L331.7656,133.9844 C331.7656,135.6875 333.0625,136.7813 335.1094,136.7813 C335.875,136.7813 336.5625,136.6563 336.9844,136.3906 C337.1719,136.2969 337.1719,136.2969 337.625,135.8125 C337.8125,135.625 338.0156,135.5469 338.2344,135.5469 C338.7031,135.5469 339.0938,135.9375 339.0938,136.3906 C339.0938,136.7813 338.7656,137.2344 338.1875,137.6406 C337.4375,138.1875 336.2813,138.4844 335.0625,138.4844 C332.1719,138.4844 330.0625,136.5938 330.0625,134.0156 L330.0625,132.8906 C330.0625,130.1719 332.0625,128.0938 334.6875,128.0938 C335.5625,128.0938 336.1563,128.2344 337.0938,128.6719 Z "/><text fill="#000000" font-family="sans-serif" font-size="12" lengthAdjust="spacingAndGlyphs" textLength="162" x="355.25" y="137.1543">DefinirCategoriaController</text><line style="stroke: #A80036; stroke-width: 1.5;" x1="262" x2="578" y1="149" y2="149"/><line style="stroke: #A80036; stroke-width: 1.5;" x1="262" x2="578" y1="157" y2="157"/><text fill="#000000" font-family="sans-serif" font-size="11" lengthAdjust="spacingAndGlyphs" textLength="110" x="267" y="171.2104">getAreasAtividade()</text><text fill="#000000" font-family="sans-serif" font-size="11" lengthAdjust="spacingAndGlyphs" textLength="271" x="267" y="184.0151">novaCategoriaTarefa(String desc,String IDArea)</text><text fill="#000000" font-family="sans-serif" font-size="11" lengthAdjust="spacingAndGlyphs" textLength="170" x="267" y="196.8198">getListaCompetenciaTecnica()</text><text fill="#000000" font-family="sans-serif" font-size="11" lengthAdjust="spacingAndGlyphs" textLength="306" x="267" y="209.6245">novaCompetencia(String idComp, boolean obrgComp)</text><text fill="#000000" font-family="sans-serif" font-size="11" lengthAdjust="spacingAndGlyphs" textLength="103" x="267" y="222.4292">registaCategoria()</text><!--MD5=[ecaed46f78f8cfe1e9ce18477649be18]
class Plataforma--><rect fill="#FEFECE" filter="url(#fqnk4wlcxq9ha)" height="163.2422" id="Plataforma" style="stroke: #A80036; stroke-width: 1.5;" width="428" x="6" y="290"/><ellipse cx="181.75" cy="306" fill="#ADD1B2" rx="11" ry="11" style="stroke: #A80036; stroke-width: 1.0;"/><path d="M184.0938,301.6719 L184.2656,301.75 C184.4844,301.4375 184.6875,301.3438 184.9844,301.3438 C185.2813,301.3438 185.5625,301.4844 185.7188,301.75 C185.8125,301.9063 185.8281,302.0313 185.8281,302.4688 L185.8281,303.8906 C185.8281,304.3125 185.7969,304.5 185.6875,304.6563 C185.5156,304.875 185.25,305.0156 184.9844,305.0156 C184.7656,305.0156 184.5313,304.9063 184.3906,304.7656 C184.25,304.6406 184.2188,304.5156 184.1563,304.1094 C184.0625,303.7031 183.8906,303.4844 183.4063,303.2031 C182.9375,302.9531 182.3281,302.7969 181.75,302.7969 C180.0156,302.7969 178.7656,304.1094 178.7656,305.8906 L178.7656,306.9844 C178.7656,308.6875 180.0625,309.7813 182.1094,309.7813 C182.875,309.7813 183.5625,309.6563 183.9844,309.3906 C184.1719,309.2969 184.1719,309.2969 184.625,308.8125 C184.8125,308.625 185.0156,308.5469 185.2344,308.5469 C185.7031,308.5469 186.0938,308.9375 186.0938,309.3906 C186.0938,309.7813 185.7656,310.2344 185.1875,310.6406 C184.4375,311.1875 183.2813,311.4844 182.0625,311.4844 C179.1719,311.4844 177.0625,309.5938 177.0625,307.0156 L177.0625,305.8906 C177.0625,303.1719 179.0625,301.0938 181.6875,301.0938 C182.5625,301.0938 183.1563,301.2344 184.0938,301.6719 Z "/><text fill="#000000" font-family="sans-serif" font-size="12" lengthAdjust="spacingAndGlyphs" textLength="68" x="202.25" y="310.1543">Plataforma</text><line style="stroke: #A80036; stroke-width: 1.5;" x1="7" x2="433" y1="322" y2="322"/><line style="stroke: #A80036; stroke-width: 1.5;" x1="7" x2="433" y1="330" y2="330"/><text fill="#000000" font-family="sans-serif" font-size="11" lengthAdjust="spacingAndGlyphs" textLength="149" x="12" y="344.2104">lA=getListaAreaAtividade()</text><text fill="#000000" font-family="sans-serif" font-size="11" lengthAdjust="spacingAndGlyphs" textLength="238" x="12" y="357.0151">area=getAreaAtividadeByID(String IDArea)</text><text fill="#000000" font-family="sans-serif" font-size="11" lengthAdjust="spacingAndGlyphs" textLength="307" x="12" y="369.8198">novaCategoriaTarefa(String desc, AreaAtividade area)</text><text fill="#000000" font-family="sans-serif" font-size="11" lengthAdjust="spacingAndGlyphs" textLength="188" x="12" y="382.6245">lc=getListaCompetenciaTecnica()</text><text fill="#000000" font-family="sans-serif" font-size="11" lengthAdjust="spacingAndGlyphs" textLength="245" x="12" y="395.4292">comp=getCompetenciabyID(String idComp)</text><text fill="#000000" font-family="sans-serif" font-size="11" lengthAdjust="spacingAndGlyphs" textLength="416" x="12" y="408.2339">novaCompetenciaTecnica(CompetenciaTecnica comp,boolean obrgComp)</text><text fill="#000000" font-family="sans-serif" font-size="11" lengthAdjust="spacingAndGlyphs" textLength="252" x="12" y="421.0386">registaCategoria(CategoriaTarefa categoria)</text><text fill="#000000" font-family="sans-serif" font-size="11" lengthAdjust="spacingAndGlyphs" textLength="245" x="12" y="433.8433">validaCategoria(CategoriaTarefa categoria)</text><text fill="#000000" font-family="sans-serif" font-size="11" lengthAdjust="spacingAndGlyphs" textLength="233" x="12" y="446.6479">addCategoria(CategoriaTarefa categoria)</text><!--MD5=[ec1f319843431b440f70471b1fe0616f]
class ObrigatoriedadeCT--><rect fill="#FEFECE" filter="url(#fqnk4wlcxq9ha)" height="86.4141" id="ObrigatoriedadeCT" style="stroke: #A80036; stroke-width: 1.5;" width="391" x="200.5" y="794"/><ellipse cx="333.25" cy="810" fill="#ADD1B2" rx="11" ry="11" style="stroke: #A80036; stroke-width: 1.0;"/><path d="M335.5938,805.6719 L335.7656,805.75 C335.9844,805.4375 336.1875,805.3438 336.4844,805.3438 C336.7813,805.3438 337.0625,805.4844 337.2188,805.75 C337.3125,805.9063 337.3281,806.0313 337.3281,806.4688 L337.3281,807.8906 C337.3281,808.3125 337.2969,808.5 337.1875,808.6563 C337.0156,808.875 336.75,809.0156 336.4844,809.0156 C336.2656,809.0156 336.0313,808.9063 335.8906,808.7656 C335.75,808.6406 335.7188,808.5156 335.6563,808.1094 C335.5625,807.7031 335.3906,807.4844 334.9063,807.2031 C334.4375,806.9531 333.8281,806.7969 333.25,806.7969 C331.5156,806.7969 330.2656,808.1094 330.2656,809.8906 L330.2656,810.9844 C330.2656,812.6875 331.5625,813.7813 333.6094,813.7813 C334.375,813.7813 335.0625,813.6563 335.4844,813.3906 C335.6719,813.2969 335.6719,813.2969 336.125,812.8125 C336.3125,812.625 336.5156,812.5469 336.7344,812.5469 C337.2031,812.5469 337.5938,812.9375 337.5938,813.3906 C337.5938,813.7813 337.2656,814.2344 336.6875,814.6406 C335.9375,815.1875 334.7813,815.4844 333.5625,815.4844 C330.6719,815.4844 328.5625,813.5938 328.5625,811.0156 L328.5625,809.8906 C328.5625,807.1719 330.5625,805.0938 333.1875,805.0938 C334.0625,805.0938 334.6563,805.2344 335.5938,805.6719 Z "/><text fill="#000000" font-family="sans-serif" font-size="12" lengthAdjust="spacingAndGlyphs" textLength="117" x="353.75" y="814.1543">ObrigatoriedadeCT</text><line style="stroke: #A80036; stroke-width: 1.5;" x1="201.5" x2="590.5" y1="826" y2="826"/><text fill="#000000" font-family="sans-serif" font-size="11" lengthAdjust="spacingAndGlyphs" textLength="152" x="206.5" y="840.2104">CompetenciaTecnica comp</text><text fill="#000000" font-family="sans-serif" font-size="11" lengthAdjust="spacingAndGlyphs" textLength="108" x="206.5" y="853.0151">boolean obrgComp</text><line style="stroke: #A80036; stroke-width: 1.5;" x1="201.5" x2="590.5" y1="859.6094" y2="859.6094"/><text fill="#000000" font-family="sans-serif" font-size="11" lengthAdjust="spacingAndGlyphs" textLength="379" x="206.5" y="873.8198">ObrigatoriedadeCT(CompetenciaTecnica comp,boolean obrgComp)</text><!--MD5=[6fa14b346b4b5c2b3247f8e7c37afd04]
class CategoriaTarefa--><rect fill="#FEFECE" filter="url(#fqnk4wlcxq9ha)" height="124.8281" id="CategoriaTarefa" style="stroke: #A80036; stroke-width: 1.5;" width="300" x="246" y="592"/><ellipse cx="341.25" cy="608" fill="#ADD1B2" rx="11" ry="11" style="stroke: #A80036; stroke-width: 1.0;"/><path d="M343.5938,603.6719 L343.7656,603.75 C343.9844,603.4375 344.1875,603.3438 344.4844,603.3438 C344.7813,603.3438 345.0625,603.4844 345.2188,603.75 C345.3125,603.9063 345.3281,604.0313 345.3281,604.4688 L345.3281,605.8906 C345.3281,606.3125 345.2969,606.5 345.1875,606.6563 C345.0156,606.875 344.75,607.0156 344.4844,607.0156 C344.2656,607.0156 344.0313,606.9063 343.8906,606.7656 C343.75,606.6406 343.7188,606.5156 343.6563,606.1094 C343.5625,605.7031 343.3906,605.4844 342.9063,605.2031 C342.4375,604.9531 341.8281,604.7969 341.25,604.7969 C339.5156,604.7969 338.2656,606.1094 338.2656,607.8906 L338.2656,608.9844 C338.2656,610.6875 339.5625,611.7813 341.6094,611.7813 C342.375,611.7813 343.0625,611.6563 343.4844,611.3906 C343.6719,611.2969 343.6719,611.2969 344.125,610.8125 C344.3125,610.625 344.5156,610.5469 344.7344,610.5469 C345.2031,610.5469 345.5938,610.9375 345.5938,611.3906 C345.5938,611.7813 345.2656,612.2344 344.6875,612.6406 C343.9375,613.1875 342.7813,613.4844 341.5625,613.4844 C338.6719,613.4844 336.5625,611.5938 336.5625,609.0156 L336.5625,607.8906 C336.5625,605.1719 338.5625,603.0938 341.1875,603.0938 C342.0625,603.0938 342.6563,603.2344 343.5938,603.6719 Z "/><text fill="#000000" font-family="sans-serif" font-size="12" lengthAdjust="spacingAndGlyphs" textLength="101" x="361.75" y="612.1543">CategoriaTarefa</text><line style="stroke: #A80036; stroke-width: 1.5;" x1="247" x2="545" y1="624" y2="624"/><text fill="#000000" font-family="sans-serif" font-size="11" lengthAdjust="spacingAndGlyphs" textLength="65" x="252" y="638.2104">String desc</text><text fill="#000000" font-family="sans-serif" font-size="11" lengthAdjust="spacingAndGlyphs" textLength="107" x="252" y="651.0151">AreaAtividade area</text><text fill="#000000" font-family="sans-serif" font-size="11" lengthAdjust="spacingAndGlyphs" textLength="108" x="252" y="663.8198">boolean obrgComp</text><text fill="#000000" font-family="sans-serif" font-size="11" lengthAdjust="spacingAndGlyphs" textLength="152" x="252" y="676.6245">ObrigatoriedadeCT obrgCT</text><line style="stroke: #A80036; stroke-width: 1.5;" x1="247" x2="545" y1="683.2188" y2="683.2188"/><text fill="#000000" font-family="sans-serif" font-size="11" lengthAdjust="spacingAndGlyphs" textLength="276" x="252" y="697.4292">CategoriaTarefa(String desc,AreaAtividade area)</text><text fill="#000000" font-family="sans-serif" font-size="11" lengthAdjust="spacingAndGlyphs" textLength="288" x="252" y="710.2339">addObrigatoriedadeCT(ObrigatoriedadeCT obrgCT)</text><!--MD5=[512502001ccce49054c9400db8cbc860]
link DefinirCategoriaUI to DefinirCategoriaController--><path d="M420,56.265 C420,71.448 420,92.017 420,111.605 " fill="none" id="DefinirCategoriaUI-&gt;DefinirCategoriaController" style="stroke: #A80036; stroke-width: 1.0; stroke-dasharray: 7.0,7.0;"/><polygon fill="#A80036" points="420,116.828,424,107.828,420,111.828,416,107.828,420,116.828" style="stroke: #A80036; stroke-width: 1.0;"/><!--MD5=[06bde8693b74f3cfcf5d45030c8a30eb]
link DefinirCategoriaController to CategoriaTarefa--><path d="M438.467,229.126 C443.974,248.179 449.267,269.815 452,290 C461.72,361.789 461.835,381.226 452,453 C445.778,498.405 431.98,548.023 419.638,586.54 " fill="none" id="DefinirCategoriaController-&gt;CategoriaTarefa" style="stroke: #A80036; stroke-width: 1.0; stroke-dasharray: 7.0,7.0;"/><polygon fill="#A80036" points="417.985,591.659,424.5558,584.3225,419.5206,586.9007,416.9425,581.8655,417.985,591.659" style="stroke: #A80036; stroke-width: 1.0;"/><!--MD5=[0fe5c28e463b2014fef6d172a2d489ec]
link DefinirCategoriaController to Plataforma--><path d="M363.757,229.259 C345.776,246.925 325.445,266.901 305.853,286.15 " fill="none" id="DefinirCategoriaController-&gt;Plataforma" style="stroke: #A80036; stroke-width: 1.0; stroke-dasharray: 7.0,7.0;"/><polygon fill="#A80036" points="301.945,289.989,311.1685,286.5353,305.5118,286.485,305.5621,280.8284,301.945,289.989" style="stroke: #A80036; stroke-width: 1.0;"/><!--MD5=[5bda45774066fc14a03f4eca2e1b1558]
link Plataforma to CategoriaTarefa--><path d="M270.435,453.023 C297.092,495.585 329.412,547.186 354.585,587.378 " fill="none" id="Plataforma-&gt;CategoriaTarefa" style="stroke: #A80036; stroke-width: 1.0;"/><polygon fill="#A80036" points="357.308,591.725,355.92,581.9744,354.6536,587.4877,349.1403,586.2214,357.308,591.725" style="stroke: #A80036; stroke-width: 1.0;"/><text fill="#000000" font-family="sans-serif" font-size="13" lengthAdjust="spacingAndGlyphs" textLength="41" x="320" y="527.0669">possui</text><text fill="#000000" font-family="sans-serif" font-size="13" lengthAdjust="spacingAndGlyphs" textLength="8" x="266.7157" y="473.2917">1</text><text fill="#000000" font-family="sans-serif" font-size="13" lengthAdjust="spacingAndGlyphs" textLength="7" x="345.6933" y="581.1222">*</text><!--MD5=[824aa26483d878ad52262d7151008ade]
link CategoriaTarefa to ObrigatoriedadeCT--><path d="M396,717.113 C396,742.441 396,771.125 396,793.9726 " fill="none" id="CategoriaTarefa-ObrigatoriedadeCT" style="stroke: #A80036; stroke-width: 1.0;"/><text fill="#000000" font-family="sans-serif" font-size="13" lengthAdjust="spacingAndGlyphs" textLength="26" x="397" y="760.0669">tem</text><polygon fill="#000000" points="405.5,769.1328,408.5,775.1328,411.5,769.1328,405.5,769.1328" style="stroke: #000000; stroke-width: 1.0;"/><text fill="#000000" font-family="sans-serif" font-size="13" lengthAdjust="spacingAndGlyphs" textLength="8" x="387.5625" y="736.8652">1</text><text fill="#000000" font-family="sans-serif" font-size="13" lengthAdjust="spacingAndGlyphs" textLength="7" x="388.4422" y="782.9647">*</text><!--MD5=[e20a24f1c8addab650b9a8f3fd963c8a]
@startuml
class  DefinirCategoriaUI{

}

class DefinirCategoriaController{
getAreasAtividade()
novaCategoriaTarefa(String desc,String IDArea)
getListaCompetenciaTecnica()
novaCompetencia(String idComp, boolean obrgComp)
registaCategoria()

}

class Plataforma {
lA=getListaAreaAtividade()
area=getAreaAtividadeByID(String IDArea)
novaCategoriaTarefa(String desc, AreaAtividade area)
lc=getListaCompetenciaTecnica()
comp=getCompetenciabyID(String idComp)
novaCompetenciaTecnica(CompetenciaTecnica comp,boolean obrgComp)
registaCategoria(CategoriaTarefa categoria)
validaCategoria(CategoriaTarefa categoria)
addCategoria(CategoriaTarefa categoria)
}

class ObrigatoriedadeCT {
CompetenciaTecnica comp
boolean obrgComp
ObrigatoriedadeCT(CompetenciaTecnica comp,boolean obrgComp)
}


class CategoriaTarefa{
 String desc
 AreaAtividade area
 boolean obrgComp
ObrigatoriedadeCT obrgCT
CategoriaTarefa(String desc,AreaAtividade area)
addObrigatoriedadeCT(ObrigatoriedadeCT obrgCT)


}


DefinirCategoriaUI .down.>  DefinirCategoriaController
DefinirCategoriaController .down.> CategoriaTarefa
DefinirCategoriaController   .down.> Plataforma
Plataforma "1" - - -> "*"  CategoriaTarefa :  possui 
CategoriaTarefa "1" - - "*"  ObrigatoriedadeCT : tem >
@enduml

PlantUML version 1.2020.06beta1(Unknown compile time)
(GPL source distribution)
Java Runtime: Java(TM) SE Runtime Environment
JVM: Java HotSpot(TM) 64-Bit Server VM
Java Version: 1.7.0_25-b15
Operating System: Linux
Default Encoding: UTF-8
Language: en
Country: US
--></g></svg>