<?xml version="1.0" encoding="UTF-8" standalone="no"?><svg xmlns="http://www.w3.org/2000/svg" xmlns:xlink="http://www.w3.org/1999/xlink" contentScriptType="application/ecmascript" contentStyleType="text/css" height="778px" preserveAspectRatio="none" style="width:599px;height:778px;" version="1.1" viewBox="0 0 599 778" width="599px" zoomAndPan="magnify"><defs><filter height="300%" id="fhggm1drq3bov" width="300%" x="-1" y="-1"><feGaussianBlur result="blurOut" stdDeviation="2.0"/><feColorMatrix in="blurOut" result="blurOut2" type="matrix" values="0 0 0 0 0 0 0 0 0 0 0 0 0 0 0 0 0 0 .4 0"/><feOffset dx="4.0" dy="4.0" in="blurOut2" result="blurOut3"/><feBlend in="SourceGraphic" in2="blurOut3" mode="normal"/></filter></defs><g><!--MD5=[ac8682ea5466d223e49472789fb200d2]
class Colaborador--><rect fill="#FEFECE" filter="url(#fhggm1drq3bov)" height="137.6328" id="Colaborador" style="stroke: #A80036; stroke-width: 1.5;" width="218" x="6" y="630"/><ellipse cx="72.25" cy="646" fill="#ADD1B2" rx="11" ry="11" style="stroke: #A80036; stroke-width: 1.0;"/><path d="M74.5938,641.6719 L74.7656,641.75 C74.9844,641.4375 75.1875,641.3438 75.4844,641.3438 C75.7813,641.3438 76.0625,641.4844 76.2188,641.75 C76.3125,641.9063 76.3281,642.0313 76.3281,642.4688 L76.3281,643.8906 C76.3281,644.3125 76.2969,644.5 76.1875,644.6563 C76.0156,644.875 75.75,645.0156 75.4844,645.0156 C75.2656,645.0156 75.0313,644.9063 74.8906,644.7656 C74.75,644.6406 74.7188,644.5156 74.6563,644.1094 C74.5625,643.7031 74.3906,643.4844 73.9063,643.2031 C73.4375,642.9531 72.8281,642.7969 72.25,642.7969 C70.5156,642.7969 69.2656,644.1094 69.2656,645.8906 L69.2656,646.9844 C69.2656,648.6875 70.5625,649.7813 72.6094,649.7813 C73.375,649.7813 74.0625,649.6563 74.4844,649.3906 C74.6719,649.2969 74.6719,649.2969 75.125,648.8125 C75.3125,648.625 75.5156,648.5469 75.7344,648.5469 C76.2031,648.5469 76.5938,648.9375 76.5938,649.3906 C76.5938,649.7813 76.2656,650.2344 75.6875,650.6406 C74.9375,651.1875 73.7813,651.4844 72.5625,651.4844 C69.6719,651.4844 67.5625,649.5938 67.5625,647.0156 L67.5625,645.8906 C67.5625,643.1719 69.5625,641.0938 72.1875,641.0938 C73.0625,641.0938 73.6563,641.2344 74.5938,641.6719 Z "/><text fill="#000000" font-family="sans-serif" font-size="12" lengthAdjust="spacingAndGlyphs" textLength="77" x="92.75" y="650.1543">Colaborador</text><line style="stroke: #A80036; stroke-width: 1.5;" x1="7" x2="223" y1="662" y2="662"/><rect fill="none" height="6" style="stroke: #C82930; stroke-width: 1.0;" width="6" x="14" y="670"/><text fill="#000000" font-family="sans-serif" font-size="11" lengthAdjust="spacingAndGlyphs" textLength="70" x="26" y="676.2104">String nome</text><rect fill="none" height="6" style="stroke: #C82930; stroke-width: 1.0;" width="6" x="14" y="682.8047"/><text fill="#000000" font-family="sans-serif" font-size="11" lengthAdjust="spacingAndGlyphs" textLength="76" x="26" y="689.0151">String funcao</text><rect fill="none" height="6" style="stroke: #C82930; stroke-width: 1.0;" width="6" x="14" y="695.6094"/><text fill="#000000" font-family="sans-serif" font-size="11" lengthAdjust="spacingAndGlyphs" textLength="84" x="26" y="701.8198">String telefone</text><rect fill="none" height="6" style="stroke: #C82930; stroke-width: 1.0;" width="6" x="14" y="708.4141"/><text fill="#000000" font-family="sans-serif" font-size="11" lengthAdjust="spacingAndGlyphs" textLength="69" x="26" y="714.6245">String email</text><line style="stroke: #A80036; stroke-width: 1.5;" x1="7" x2="223" y1="721.2188" y2="721.2188"/><text fill="#000000" font-family="sans-serif" font-size="11" lengthAdjust="spacingAndGlyphs" textLength="206" x="12" y="735.4292">Colaborador(nome,função,tlf, email)</text><text fill="#000000" font-family="sans-serif" font-size="11" lengthAdjust="spacingAndGlyphs" textLength="97" x="12" y="748.2339">String getNome()</text><text fill="#000000" font-family="sans-serif" font-size="11" lengthAdjust="spacingAndGlyphs" textLength="95" x="12" y="761.0386">String getEmail()</text><!--MD5=[807977ceb130c090ed5febfb6de2bdea]
class Organizacao--><rect fill="#FEFECE" filter="url(#fhggm1drq3bov)" height="163.2422" id="Organizacao" style="stroke: #A80036; stroke-width: 1.5;" width="319" x="23.5" y="390"/><ellipse cx="140.25" cy="406" fill="#ADD1B2" rx="11" ry="11" style="stroke: #A80036; stroke-width: 1.0;"/><path d="M142.5938,401.6719 L142.7656,401.75 C142.9844,401.4375 143.1875,401.3438 143.4844,401.3438 C143.7813,401.3438 144.0625,401.4844 144.2188,401.75 C144.3125,401.9063 144.3281,402.0313 144.3281,402.4688 L144.3281,403.8906 C144.3281,404.3125 144.2969,404.5 144.1875,404.6563 C144.0156,404.875 143.75,405.0156 143.4844,405.0156 C143.2656,405.0156 143.0313,404.9063 142.8906,404.7656 C142.75,404.6406 142.7188,404.5156 142.6563,404.1094 C142.5625,403.7031 142.3906,403.4844 141.9063,403.2031 C141.4375,402.9531 140.8281,402.7969 140.25,402.7969 C138.5156,402.7969 137.2656,404.1094 137.2656,405.8906 L137.2656,406.9844 C137.2656,408.6875 138.5625,409.7813 140.6094,409.7813 C141.375,409.7813 142.0625,409.6563 142.4844,409.3906 C142.6719,409.2969 142.6719,409.2969 143.125,408.8125 C143.3125,408.625 143.5156,408.5469 143.7344,408.5469 C144.2031,408.5469 144.5938,408.9375 144.5938,409.3906 C144.5938,409.7813 144.2656,410.2344 143.6875,410.6406 C142.9375,411.1875 141.7813,411.4844 140.5625,411.4844 C137.6719,411.4844 135.5625,409.5938 135.5625,407.0156 L135.5625,405.8906 C135.5625,403.1719 137.5625,401.0938 140.1875,401.0938 C141.0625,401.0938 141.6563,401.2344 142.5938,401.6719 Z "/><text fill="#000000" font-family="sans-serif" font-size="12" lengthAdjust="spacingAndGlyphs" textLength="77" x="160.75" y="410.1543">Organizacao</text><line style="stroke: #A80036; stroke-width: 1.5;" x1="24.5" x2="341.5" y1="422" y2="422"/><rect fill="none" height="6" style="stroke: #C82930; stroke-width: 1.0;" width="6" x="31.5" y="430"/><text fill="#000000" font-family="sans-serif" font-size="11" lengthAdjust="spacingAndGlyphs" textLength="70" x="43.5" y="436.2104">String nome</text><rect fill="none" height="6" style="stroke: #C82930; stroke-width: 1.0;" width="6" x="31.5" y="442.8047"/><text fill="#000000" font-family="sans-serif" font-size="11" lengthAdjust="spacingAndGlyphs" textLength="55" x="43.5" y="449.0151">String NIF</text><rect fill="none" height="6" style="stroke: #C82930; stroke-width: 1.0;" width="6" x="31.5" y="455.6094"/><text fill="#000000" font-family="sans-serif" font-size="11" lengthAdjust="spacingAndGlyphs" textLength="82" x="43.5" y="461.8198">String website</text><rect fill="none" height="6" style="stroke: #C82930; stroke-width: 1.0;" width="6" x="31.5" y="468.4141"/><text fill="#000000" font-family="sans-serif" font-size="11" lengthAdjust="spacingAndGlyphs" textLength="84" x="43.5" y="474.6245">String telefone</text><rect fill="none" height="6" style="stroke: #C82930; stroke-width: 1.0;" width="6" x="31.5" y="481.2188"/><text fill="#000000" font-family="sans-serif" font-size="11" lengthAdjust="spacingAndGlyphs" textLength="69" x="43.5" y="487.4292">String email</text><line style="stroke: #A80036; stroke-width: 1.5;" x1="24.5" x2="341.5" y1="494.0234" y2="494.0234"/><text fill="#000000" font-family="sans-serif" font-size="11" lengthAdjust="spacingAndGlyphs" textLength="307" x="29.5" y="508.2339">Colaborador novoColaborador(nome,funcao,tlf, email)</text><text fill="#000000" font-family="sans-serif" font-size="11" lengthAdjust="spacingAndGlyphs" textLength="215" x="29.5" y="521.0386">Colaborador validaColaborador(colab)</text><text fill="#000000" font-family="sans-serif" font-size="11" lengthAdjust="spacingAndGlyphs" textLength="222" x="29.5" y="533.8433">Colaborador registaColaborador(colab)</text><text fill="#000000" font-family="sans-serif" font-size="11" lengthAdjust="spacingAndGlyphs" textLength="203" x="29.5" y="546.6479">Colaborador addColaborador(colab)</text><!--MD5=[ecaed46f78f8cfe1e9ce18477649be18]
class Plataforma--><rect fill="#FEFECE" filter="url(#fhggm1drq3bov)" height="60.8047" id="Plataforma" style="stroke: #A80036; stroke-width: 1.5;" width="177" x="186.5" y="252"/><ellipse cx="236.75" cy="268" fill="#ADD1B2" rx="11" ry="11" style="stroke: #A80036; stroke-width: 1.0;"/><path d="M239.0938,263.6719 L239.2656,263.75 C239.4844,263.4375 239.6875,263.3438 239.9844,263.3438 C240.2813,263.3438 240.5625,263.4844 240.7188,263.75 C240.8125,263.9063 240.8281,264.0313 240.8281,264.4688 L240.8281,265.8906 C240.8281,266.3125 240.7969,266.5 240.6875,266.6563 C240.5156,266.875 240.25,267.0156 239.9844,267.0156 C239.7656,267.0156 239.5313,266.9063 239.3906,266.7656 C239.25,266.6406 239.2188,266.5156 239.1563,266.1094 C239.0625,265.7031 238.8906,265.4844 238.4063,265.2031 C237.9375,264.9531 237.3281,264.7969 236.75,264.7969 C235.0156,264.7969 233.7656,266.1094 233.7656,267.8906 L233.7656,268.9844 C233.7656,270.6875 235.0625,271.7813 237.1094,271.7813 C237.875,271.7813 238.5625,271.6563 238.9844,271.3906 C239.1719,271.2969 239.1719,271.2969 239.625,270.8125 C239.8125,270.625 240.0156,270.5469 240.2344,270.5469 C240.7031,270.5469 241.0938,270.9375 241.0938,271.3906 C241.0938,271.7813 240.7656,272.2344 240.1875,272.6406 C239.4375,273.1875 238.2813,273.4844 237.0625,273.4844 C234.1719,273.4844 232.0625,271.5938 232.0625,269.0156 L232.0625,267.8906 C232.0625,265.1719 234.0625,263.0938 236.6875,263.0938 C237.5625,263.0938 238.1563,263.2344 239.0938,263.6719 Z "/><text fill="#000000" font-family="sans-serif" font-size="12" lengthAdjust="spacingAndGlyphs" textLength="68" x="257.25" y="272.1543">Plataforma</text><line style="stroke: #A80036; stroke-width: 1.5;" x1="187.5" x2="362.5" y1="284" y2="284"/><line style="stroke: #A80036; stroke-width: 1.5;" x1="187.5" x2="362.5" y1="292" y2="292"/><text fill="#000000" font-family="sans-serif" font-size="11" lengthAdjust="spacingAndGlyphs" textLength="165" x="192.5" y="306.2104">getUtilizadorRegistado(email)</text><!--MD5=[ed5c6b4e01c9b1c9efc043b411d08420]
class AutorizacaoFacade--><rect fill="#FEFECE" filter="url(#fhggm1drq3bov)" height="60.8047" id="AutorizacaoFacade" style="stroke: #A80036; stroke-width: 1.5;" width="329" x="259.5" y="668.5"/><ellipse cx="360.25" cy="684.5" fill="#ADD1B2" rx="11" ry="11" style="stroke: #A80036; stroke-width: 1.0;"/><path d="M362.5938,680.1719 L362.7656,680.25 C362.9844,679.9375 363.1875,679.8438 363.4844,679.8438 C363.7813,679.8438 364.0625,679.9844 364.2188,680.25 C364.3125,680.4063 364.3281,680.5313 364.3281,680.9688 L364.3281,682.3906 C364.3281,682.8125 364.2969,683 364.1875,683.1563 C364.0156,683.375 363.75,683.5156 363.4844,683.5156 C363.2656,683.5156 363.0313,683.4063 362.8906,683.2656 C362.75,683.1406 362.7188,683.0156 362.6563,682.6094 C362.5625,682.2031 362.3906,681.9844 361.9063,681.7031 C361.4375,681.4531 360.8281,681.2969 360.25,681.2969 C358.5156,681.2969 357.2656,682.6094 357.2656,684.3906 L357.2656,685.4844 C357.2656,687.1875 358.5625,688.2813 360.6094,688.2813 C361.375,688.2813 362.0625,688.1563 362.4844,687.8906 C362.6719,687.7969 362.6719,687.7969 363.125,687.3125 C363.3125,687.125 363.5156,687.0469 363.7344,687.0469 C364.2031,687.0469 364.5938,687.4375 364.5938,687.8906 C364.5938,688.2813 364.2656,688.7344 363.6875,689.1406 C362.9375,689.6875 361.7813,689.9844 360.5625,689.9844 C357.6719,689.9844 355.5625,688.0938 355.5625,685.5156 L355.5625,684.3906 C355.5625,681.6719 357.5625,679.5938 360.1875,679.5938 C361.0625,679.5938 361.6563,679.7344 362.5938,680.1719 Z "/><text fill="#000000" font-family="sans-serif" font-size="12" lengthAdjust="spacingAndGlyphs" textLength="119" x="380.75" y="688.6543">AutorizacaoFacade</text><line style="stroke: #A80036; stroke-width: 1.5;" x1="260.5" x2="587.5" y1="700.5" y2="700.5"/><line style="stroke: #A80036; stroke-width: 1.5;" x1="260.5" x2="587.5" y1="708.5" y2="708.5"/><text fill="#000000" font-family="sans-serif" font-size="11" lengthAdjust="spacingAndGlyphs" textLength="317" x="265.5" y="722.7104">registaUtilizadorComPapeis(nome,email,pwd,listaPapel)</text><!--MD5=[ad1e0dfb7967d80be5dad4c9388df9ec]
class EspecificarColaboradorController--><rect fill="#FEFECE" filter="url(#fhggm1drq3bov)" height="73.6094" id="EspecificarColaboradorController" style="stroke: #A80036; stroke-width: 1.5;" width="245" x="30.5" y="117"/><ellipse cx="48.65" cy="133" fill="#ADD1B2" rx="11" ry="11" style="stroke: #A80036; stroke-width: 1.0;"/><path d="M50.9938,128.6719 L51.1656,128.75 C51.3844,128.4375 51.5875,128.3438 51.8844,128.3438 C52.1813,128.3438 52.4625,128.4844 52.6188,128.75 C52.7125,128.9063 52.7281,129.0313 52.7281,129.4688 L52.7281,130.8906 C52.7281,131.3125 52.6969,131.5 52.5875,131.6563 C52.4156,131.875 52.15,132.0156 51.8844,132.0156 C51.6656,132.0156 51.4313,131.9063 51.2906,131.7656 C51.15,131.6406 51.1188,131.5156 51.0563,131.1094 C50.9625,130.7031 50.7906,130.4844 50.3063,130.2031 C49.8375,129.9531 49.2281,129.7969 48.65,129.7969 C46.9156,129.7969 45.6656,131.1094 45.6656,132.8906 L45.6656,133.9844 C45.6656,135.6875 46.9625,136.7813 49.0094,136.7813 C49.775,136.7813 50.4625,136.6563 50.8844,136.3906 C51.0719,136.2969 51.0719,136.2969 51.525,135.8125 C51.7125,135.625 51.9156,135.5469 52.1344,135.5469 C52.6031,135.5469 52.9938,135.9375 52.9938,136.3906 C52.9938,136.7813 52.6656,137.2344 52.0875,137.6406 C51.3375,138.1875 50.1813,138.4844 48.9625,138.4844 C46.0719,138.4844 43.9625,136.5938 43.9625,134.0156 L43.9625,132.8906 C43.9625,130.1719 45.9625,128.0938 48.5875,128.0938 C49.4625,128.0938 50.0563,128.2344 50.9938,128.6719 Z "/><text fill="#000000" font-family="sans-serif" font-size="12" lengthAdjust="spacingAndGlyphs" textLength="206" x="63.35" y="137.1543">EspecificarColaboradorController</text><line style="stroke: #A80036; stroke-width: 1.5;" x1="31.5" x2="274.5" y1="149" y2="149"/><line style="stroke: #A80036; stroke-width: 1.5;" x1="31.5" x2="274.5" y1="157" y2="157"/><text fill="#000000" font-family="sans-serif" font-size="11" lengthAdjust="spacingAndGlyphs" textLength="233" x="36.5" y="171.2104">novoColaborador(nome,função,tlf, email)</text><text fill="#000000" font-family="sans-serif" font-size="11" lengthAdjust="spacingAndGlyphs" textLength="118" x="36.5" y="184.0151">registaColaborador()</text><!--MD5=[fdd143688dd4c22e6f2ee475119423ce]
class EspecificarColaboradorUI--><rect fill="#FEFECE" filter="url(#fhggm1drq3bov)" height="48" id="EspecificarColaboradorUI" style="stroke: #A80036; stroke-width: 1.5;" width="189" x="58.5" y="8"/><ellipse cx="73.5" cy="24" fill="#ADD1B2" rx="11" ry="11" style="stroke: #A80036; stroke-width: 1.0;"/><path d="M75.8438,19.6719 L76.0156,19.75 C76.2344,19.4375 76.4375,19.3438 76.7344,19.3438 C77.0313,19.3438 77.3125,19.4844 77.4688,19.75 C77.5625,19.9063 77.5781,20.0313 77.5781,20.4688 L77.5781,21.8906 C77.5781,22.3125 77.5469,22.5 77.4375,22.6563 C77.2656,22.875 77,23.0156 76.7344,23.0156 C76.5156,23.0156 76.2813,22.9063 76.1406,22.7656 C76,22.6406 75.9688,22.5156 75.9063,22.1094 C75.8125,21.7031 75.6406,21.4844 75.1563,21.2031 C74.6875,20.9531 74.0781,20.7969 73.5,20.7969 C71.7656,20.7969 70.5156,22.1094 70.5156,23.8906 L70.5156,24.9844 C70.5156,26.6875 71.8125,27.7813 73.8594,27.7813 C74.625,27.7813 75.3125,27.6563 75.7344,27.3906 C75.9219,27.2969 75.9219,27.2969 76.375,26.8125 C76.5625,26.625 76.7656,26.5469 76.9844,26.5469 C77.4531,26.5469 77.8438,26.9375 77.8438,27.3906 C77.8438,27.7813 77.5156,28.2344 76.9375,28.6406 C76.1875,29.1875 75.0313,29.4844 73.8125,29.4844 C70.9219,29.4844 68.8125,27.5938 68.8125,25.0156 L68.8125,23.8906 C68.8125,21.1719 70.8125,19.0938 73.4375,19.0938 C74.3125,19.0938 74.9063,19.2344 75.8438,19.6719 Z "/><text fill="#000000" font-family="sans-serif" font-size="12" lengthAdjust="spacingAndGlyphs" textLength="157" x="87.5" y="28.1543">EspecificarColaboradorUI</text><line style="stroke: #A80036; stroke-width: 1.5;" x1="59.5" x2="246.5" y1="40" y2="40"/><line style="stroke: #A80036; stroke-width: 1.5;" x1="59.5" x2="246.5" y1="48" y2="48"/><!--MD5=[efc07359af4002ede352d360e3e5f791]
link EspecificarColaboradorUI to EspecificarColaboradorController--><path d="M153,56.137 C153,71.825 153,93.003 153,111.555 " fill="none" id="EspecificarColaboradorUI-&gt;EspecificarColaboradorController" style="stroke: #A80036; stroke-width: 1.0; stroke-dasharray: 7.0,7.0;"/><polygon fill="#A80036" points="153,116.711,157,107.711,153,111.711,149,107.711,153,116.711" style="stroke: #A80036; stroke-width: 1.0;"/><!--MD5=[e749425d82a7a68558984fefba013df9]
link EspecificarColaboradorController to Plataforma--><path d="M187.96,191.25 C205.111,209.033 225.643,230.322 242.457,247.756 " fill="none" id="EspecificarColaboradorController-&gt;Plataforma" style="stroke: #A80036; stroke-width: 1.0; stroke-dasharray: 7.0,7.0;"/><polygon fill="#A80036" points="246.205,251.643,242.8353,242.3885,242.7336,248.0445,237.0777,247.9428,246.205,251.643" style="stroke: #A80036; stroke-width: 1.0;"/><!--MD5=[3ea4a54878a3bfc205bf7413d5ce6eb6]
link EspecificarColaboradorController to Organizacao--><path d="M156.441,191.192 C160.895,238.028 168.798,321.139 174.828,384.561 " fill="none" id="EspecificarColaboradorController-&gt;Organizacao" style="stroke: #A80036; stroke-width: 1.0; stroke-dasharray: 7.0,7.0;"/><polygon fill="#A80036" points="175.332,389.862,178.4629,380.524,174.8591,384.8844,170.4987,381.2807,175.332,389.862" style="stroke: #A80036; stroke-width: 1.0;"/><!--MD5=[c36a6d25de7793c8fa73f7a418a2c527]
link Organizacao to AutorizacaoFacade--><path d="M269.326,553.274 C310.468,591.77 357.405,635.688 388.678,664.95 " fill="none" id="Organizacao-&gt;AutorizacaoFacade" style="stroke: #A80036; stroke-width: 1.0; stroke-dasharray: 7.0,7.0;"/><polygon fill="#A80036" points="392.413,668.4447,388.5748,659.3745,388.7622,665.0283,383.1085,665.2157,392.413,668.4447" style="stroke: #A80036; stroke-width: 1.0;"/><text fill="#000000" font-family="sans-serif" font-size="13" lengthAdjust="spacingAndGlyphs" textLength="23" x="319" y="596.0669">usa</text><!--MD5=[1c2ad462e362697fcdc859a6327d55c7]
link Plataforma to Organizacao--><path d="M260.422,313.131 C250.835,332.618 237.759,359.196 225.083,384.961 " fill="none" id="Plataforma-&gt;Organizacao" style="stroke: #A80036; stroke-width: 1.0;"/><polygon fill="#A80036" points="222.722,389.761,230.2845,383.4516,224.9294,385.2747,223.1063,379.9196,222.722,389.761" style="stroke: #A80036; stroke-width: 1.0;"/><text fill="#000000" font-family="sans-serif" font-size="13" lengthAdjust="spacingAndGlyphs" textLength="90" x="247" y="356.0669">tem registada</text><text fill="#000000" font-family="sans-serif" font-size="13" lengthAdjust="spacingAndGlyphs" textLength="8" x="248.5903" y="333.0963">1</text><text fill="#000000" font-family="sans-serif" font-size="13" lengthAdjust="spacingAndGlyphs" textLength="8" x="217.9035" y="378.8752">1</text><!--MD5=[567db691f9836c63f305bad1024cbc66]
link Organizacao to Colaborador--><path d="M124.018,553.261 C119.14,562.92 114.955,572.935 112,583 C108.117,596.227 106.546,610.682 106.322,624.74 " fill="none" id="Organizacao-&gt;Colaborador" style="stroke: #A80036; stroke-width: 1.0;"/><polygon fill="#A80036" points="106.299,629.899,110.3401,620.9174,106.3219,624.8991,102.3402,620.8808,106.299,629.899" style="stroke: #A80036; stroke-width: 1.0;"/><text fill="#000000" font-family="sans-serif" font-size="13" lengthAdjust="spacingAndGlyphs" textLength="26" x="113" y="596.0669">tem</text><text fill="#000000" font-family="sans-serif" font-size="13" lengthAdjust="spacingAndGlyphs" textLength="8" x="110.4087" y="573.2728">1</text><text fill="#000000" font-family="sans-serif" font-size="13" lengthAdjust="spacingAndGlyphs" textLength="23" x="81.2158" y="619.0922">1..*</text><!--MD5=[567db691f9836c63f305bad1024cbc66]
link Organizacao to Colaborador--><path d="M158.643,553.274 C151.598,576.635 143.951,601.992 137.056,624.859 " fill="none" id="Organizacao-&gt;Colaborador-1" style="stroke: #A80036; stroke-width: 1.0;"/><polygon fill="#A80036" points="135.596,629.699,142.0251,622.238,137.0402,624.9121,134.3661,619.9272,135.596,629.699" style="stroke: #A80036; stroke-width: 1.0;"/><text fill="#000000" font-family="sans-serif" font-size="13" lengthAdjust="spacingAndGlyphs" textLength="71" x="150" y="596.0669">tem gestor</text><text fill="#000000" font-family="sans-serif" font-size="13" lengthAdjust="spacingAndGlyphs" textLength="8" x="148.1175" y="573.287">1</text><text fill="#000000" font-family="sans-serif" font-size="13" lengthAdjust="spacingAndGlyphs" textLength="8" x="129.3075" y="618.8716">1</text><!--MD5=[660848952005f956de057a5b73cf5180]
@startuml
class Colaborador {
  -String nome
  -String funcao
  -String telefone
  -String email
  Colaborador(nome,função,tlf, email)
  String getNome()
  String getEmail()
}


class Organizacao {
  -String nome
  -String NIF
  -String website
  -String telefone
  -String email
  
  Colaborador novoColaborador(nome,funcao,tlf, email)
  Colaborador validaColaborador(colab)
  Colaborador registaColaborador(colab)
  Colaborador addColaborador(colab)
}

class Plataforma {
  
  getUtilizadorRegistado(email)
}

class AutorizacaoFacade {
    registaUtilizadorComPapeis(nome,email,pwd,listaPapel)
}

class EspecificarColaboradorController {
    novoColaborador(nome,função,tlf, email)
    registaColaborador()
}

class EspecificarColaboradorUI {
}

EspecificarColaboradorUI ..> EspecificarColaboradorController
EspecificarColaboradorController ..> Plataforma
EspecificarColaboradorController ..> Organizacao
Organizacao ..> AutorizacaoFacade: usa
Plataforma "1" - -> "1" Organizacao: tem registada 
Organizacao "1" - -> "1..*" Colaborador: tem 
Organizacao "1" - -> "1" Colaborador: tem gestor
@enduml

PlantUML version 1.2020.06beta1(Unknown compile time)
(GPL source distribution)
Java Runtime: Java(TM) SE Runtime Environment
JVM: Java HotSpot(TM) 64-Bit Server VM
Java Version: 1.7.0_25-b15
Operating System: Linux
Default Encoding: UTF-8
Language: en
Country: US
--></g></svg>