<?xml version="1.0" encoding="UTF-8" standalone="no"?><svg xmlns="http://www.w3.org/2000/svg" xmlns:xlink="http://www.w3.org/1999/xlink" contentScriptType="application/ecmascript" contentStyleType="text/css" height="368px" preserveAspectRatio="none" style="width:514px;height:368px;" version="1.1" viewBox="0 0 514 368" width="514px" zoomAndPan="magnify"><defs><filter height="300%" id="f1g92gvqlff789" width="300%" x="-1" y="-1"><feGaussianBlur result="blurOut" stdDeviation="2.0"/><feColorMatrix in="blurOut" result="blurOut2" type="matrix" values="0 0 0 0 0 0 0 0 0 0 0 0 0 0 0 0 0 0 .4 0"/><feOffset dx="4.0" dy="4.0" in="blurOut2" result="blurOut3"/><feBlend in="SourceGraphic" in2="blurOut3" mode="normal"/></filter></defs><g><rect fill="#FFFFFF" filter="url(#f1g92gvqlff789)" height="166.7969" style="stroke: #A80036; stroke-width: 1.0;" width="10" x="85" y="96.2969"/><rect fill="#FFFFFF" filter="url(#f1g92gvqlff789)" height="29.1328" style="stroke: #A80036; stroke-width: 1.0;" width="10" x="463" y="117.4297"/><rect fill="#FFFFFF" filter="url(#f1g92gvqlff789)" height="29.1328" style="stroke: #A80036; stroke-width: 1.0;" width="10" x="463" y="175.6953"/><rect fill="#FFFFFF" filter="url(#f1g92gvqlff789)" height="29.1328" style="stroke: #A80036; stroke-width: 1.0;" width="10" x="463" y="233.9609"/><line style="stroke: #A80036; stroke-width: 1.0; stroke-dasharray: 5.0,5.0;" x1="90" x2="90" y1="86.2969" y2="281.0938"/><line style="stroke: #A80036; stroke-width: 1.0; stroke-dasharray: 5.0,5.0;" x1="468" x2="468" y1="86.2969" y2="281.0938"/><text fill="#000000" font-family="sans-serif" font-size="14" lengthAdjust="spacingAndGlyphs" textLength="158" x="8" y="82.9951">Gestor da Organização</text><ellipse cx="90" cy="13" fill="#FEFECE" filter="url(#f1g92gvqlff789)" rx="8" ry="8" style="stroke: #A80036; stroke-width: 2.0;"/><path d="M90,21 L90,48 M77,29 L103,29 M90,48 L77,63 M90,48 L103,63 " fill="none" filter="url(#f1g92gvqlff789)" style="stroke: #A80036; stroke-width: 2.0;"/><text fill="#000000" font-family="sans-serif" font-size="14" lengthAdjust="spacingAndGlyphs" textLength="158" x="8" y="293.0889">Gestor da Organização</text><ellipse cx="90" cy="306.3906" fill="#FEFECE" filter="url(#f1g92gvqlff789)" rx="8" ry="8" style="stroke: #A80036; stroke-width: 2.0;"/><path d="M90,314.3906 L90,341.3906 M77,322.3906 L103,322.3906 M90,341.3906 L77,356.3906 M90,341.3906 L103,356.3906 " fill="none" filter="url(#f1g92gvqlff789)" style="stroke: #A80036; stroke-width: 2.0;"/><rect fill="#FEFECE" filter="url(#f1g92gvqlff789)" height="30.2969" style="stroke: #A80036; stroke-width: 1.5;" width="74" x="429" y="51"/><text fill="#000000" font-family="sans-serif" font-size="14" lengthAdjust="spacingAndGlyphs" textLength="60" x="436" y="70.9951">:Sistema</text><rect fill="#FEFECE" filter="url(#f1g92gvqlff789)" height="30.2969" style="stroke: #A80036; stroke-width: 1.5;" width="74" x="429" y="280.0938"/><text fill="#000000" font-family="sans-serif" font-size="14" lengthAdjust="spacingAndGlyphs" textLength="60" x="436" y="300.0889">:Sistema</text><rect fill="#FFFFFF" filter="url(#f1g92gvqlff789)" height="166.7969" style="stroke: #A80036; stroke-width: 1.0;" width="10" x="85" y="96.2969"/><rect fill="#FFFFFF" filter="url(#f1g92gvqlff789)" height="29.1328" style="stroke: #A80036; stroke-width: 1.0;" width="10" x="463" y="117.4297"/><rect fill="#FFFFFF" filter="url(#f1g92gvqlff789)" height="29.1328" style="stroke: #A80036; stroke-width: 1.0;" width="10" x="463" y="175.6953"/><rect fill="#FFFFFF" filter="url(#f1g92gvqlff789)" height="29.1328" style="stroke: #A80036; stroke-width: 1.0;" width="10" x="463" y="233.9609"/><polygon fill="#A80036" points="451,113.4297,461,117.4297,451,121.4297,455,117.4297" style="stroke: #A80036; stroke-width: 1.0;"/><line style="stroke: #A80036; stroke-width: 1.0;" x1="95" x2="457" y1="117.4297" y2="117.4297"/><text fill="#000000" font-family="sans-serif" font-size="13" font-weight="bold" lengthAdjust="spacingAndGlyphs" textLength="9" x="102" y="112.3638">1</text><text fill="#000000" font-family="sans-serif" font-size="13" lengthAdjust="spacingAndGlyphs" textLength="336" x="115" y="112.3638">Inicia a especificação de colaborador de organização</text><polygon fill="#A80036" points="106,142.5625,96,146.5625,106,150.5625,102,146.5625" style="stroke: #A80036; stroke-width: 1.0;"/><line style="stroke: #A80036; stroke-width: 1.0; stroke-dasharray: 2.0,2.0;" x1="100" x2="467" y1="146.5625" y2="146.5625"/><text fill="#000000" font-family="sans-serif" font-size="13" font-weight="bold" lengthAdjust="spacingAndGlyphs" textLength="9" x="112" y="141.4966">2</text><text fill="#000000" font-family="sans-serif" font-size="13" lengthAdjust="spacingAndGlyphs" textLength="288" x="125" y="141.4966">Solicita os dados necessários do colaborador</text><polygon fill="#A80036" points="451,171.6953,461,175.6953,451,179.6953,455,175.6953" style="stroke: #A80036; stroke-width: 1.0;"/><line style="stroke: #A80036; stroke-width: 1.0;" x1="95" x2="457" y1="175.6953" y2="175.6953"/><text fill="#000000" font-family="sans-serif" font-size="13" font-weight="bold" lengthAdjust="spacingAndGlyphs" textLength="9" x="102" y="170.6294">3</text><text fill="#000000" font-family="sans-serif" font-size="13" lengthAdjust="spacingAndGlyphs" textLength="184" x="115" y="170.6294">Fornece os dados solicitados</text><polygon fill="#A80036" points="106,200.8281,96,204.8281,106,208.8281,102,204.8281" style="stroke: #A80036; stroke-width: 1.0;"/><line style="stroke: #A80036; stroke-width: 1.0; stroke-dasharray: 2.0,2.0;" x1="100" x2="467" y1="204.8281" y2="204.8281"/><text fill="#000000" font-family="sans-serif" font-size="13" font-weight="bold" lengthAdjust="spacingAndGlyphs" textLength="9" x="112" y="199.7622">4</text><text fill="#000000" font-family="sans-serif" font-size="13" lengthAdjust="spacingAndGlyphs" textLength="271" x="125" y="199.7622">Apresenta os dados e solicita confirmação</text><polygon fill="#A80036" points="451,229.9609,461,233.9609,451,237.9609,455,233.9609" style="stroke: #A80036; stroke-width: 1.0;"/><line style="stroke: #A80036; stroke-width: 1.0;" x1="95" x2="457" y1="233.9609" y2="233.9609"/><text fill="#000000" font-family="sans-serif" font-size="13" font-weight="bold" lengthAdjust="spacingAndGlyphs" textLength="9" x="102" y="228.895">5</text><text fill="#000000" font-family="sans-serif" font-size="13" lengthAdjust="spacingAndGlyphs" textLength="58" x="115" y="228.895">Confirma</text><polygon fill="#A80036" points="101,259.0938,91,263.0938,101,267.0938,97,263.0938" style="stroke: #A80036; stroke-width: 1.0;"/><line style="stroke: #A80036; stroke-width: 1.0; stroke-dasharray: 2.0,2.0;" x1="95" x2="467" y1="263.0938" y2="263.0938"/><text fill="#000000" font-family="sans-serif" font-size="13" font-weight="bold" lengthAdjust="spacingAndGlyphs" textLength="9" x="107" y="258.0278">6</text><text fill="#000000" font-family="sans-serif" font-size="13" lengthAdjust="spacingAndGlyphs" textLength="156" x="120" y="258.0278">Operação bem sucedida</text><!--MD5=[89c563cb34236c0a6b5f69e5c88616af]
@startuml
autonumber
actor "Gestor da Organização" as CO

activate CO

CO -> ":Sistema" : Inicia a especificação de colaborador de organização
activate ":Sistema"
":Sistema" - -> CO : Solicita os dados necessários do colaborador
deactivate ":Sistema"

CO -> ":Sistema" : Fornece os dados solicitados
activate ":Sistema"
":Sistema" - -> CO : Apresenta os dados e solicita confirmação 
deactivate ":Sistema"

CO -> ":Sistema" : Confirma
activate ":Sistema"
":Sistema" - -> CO : Operação bem sucedida
deactivate ":Sistema"

deactivate CO
@enduml

PlantUML version 1.2020.02beta5(Unknown compile time)
(GPL source distribution)
Java Runtime: Java(TM) SE Runtime Environment
JVM: Java HotSpot(TM) 64-Bit Server VM
Java Version: 1.7.0_25-b15
Operating System: Linux
Default Encoding: UTF-8
Language: en
Country: US
--></g></svg>