<?xml version="1.0" encoding="UTF-8" standalone="no"?><svg xmlns="http://www.w3.org/2000/svg" xmlns:xlink="http://www.w3.org/1999/xlink" contentScriptType="application/ecmascript" contentStyleType="text/css" height="211px" preserveAspectRatio="none" style="width:926px;height:211px;" version="1.1" viewBox="0 0 926 211" width="926px" zoomAndPan="magnify"><defs><filter height="300%" id="ftuy681b2h44q" width="300%" x="-1" y="-1"><feGaussianBlur result="blurOut" stdDeviation="2.0"/><feColorMatrix in="blurOut" result="blurOut2" type="matrix" values="0 0 0 0 0 0 0 0 0 0 0 0 0 0 0 0 0 0 .4 0"/><feOffset dx="4.0" dy="4.0" in="blurOut2" result="blurOut3"/><feBlend in="SourceGraphic" in2="blurOut3" mode="normal"/></filter></defs><g><!--MD5=[ecaed46f78f8cfe1e9ce18477649be18]
class Plataforma--><rect fill="#FEFECE" filter="url(#ftuy681b2h44q)" height="52.8047" id="Plataforma" style="stroke: #A80036; stroke-width: 1.5;" width="129" x="6" y="68.44"/><ellipse cx="34.05" cy="84.44" fill="#ADD1B2" rx="11" ry="11" style="stroke: #A80036; stroke-width: 1.0;"/><path d="M36.3938,80.1119 L36.5656,80.19 C36.7844,79.8775 36.9875,79.7838 37.2844,79.7838 C37.5813,79.7838 37.8625,79.9244 38.0188,80.19 C38.1125,80.3463 38.1281,80.4713 38.1281,80.9088 L38.1281,82.3306 C38.1281,82.7525 38.0969,82.94 37.9875,83.0963 C37.8156,83.315 37.55,83.4556 37.2844,83.4556 C37.0656,83.4556 36.8313,83.3463 36.6906,83.2056 C36.55,83.0806 36.5188,82.9556 36.4563,82.5494 C36.3625,82.1431 36.1906,81.9244 35.7063,81.6431 C35.2375,81.3931 34.6281,81.2369 34.05,81.2369 C32.3156,81.2369 31.0656,82.5494 31.0656,84.3306 L31.0656,85.4244 C31.0656,87.1275 32.3625,88.2213 34.4094,88.2213 C35.175,88.2213 35.8625,88.0963 36.2844,87.8306 C36.4719,87.7369 36.4719,87.7369 36.925,87.2525 C37.1125,87.065 37.3156,86.9869 37.5344,86.9869 C38.0031,86.9869 38.3938,87.3775 38.3938,87.8306 C38.3938,88.2213 38.0656,88.6744 37.4875,89.0806 C36.7375,89.6275 35.5813,89.9244 34.3625,89.9244 C31.4719,89.9244 29.3625,88.0338 29.3625,85.4556 L29.3625,84.3306 C29.3625,81.6119 31.3625,79.5338 33.9875,79.5338 C34.8625,79.5338 35.4563,79.6744 36.3938,80.1119 Z "/><text fill="#000000" font-family="sans-serif" font-size="12" lengthAdjust="spacingAndGlyphs" textLength="68" x="50.95" y="88.5943">Plataforma</text><line style="stroke: #A80036; stroke-width: 1.5;" x1="7" x2="134" y1="100.44" y2="100.44"/><rect fill="none" height="6" style="stroke: #C82930; stroke-width: 1.0;" width="6" x="14" y="108.44"/><text fill="#000000" font-family="sans-serif" font-size="11" lengthAdjust="spacingAndGlyphs" textLength="103" x="26" y="114.6504">String designacao</text><!--MD5=[807977ceb130c090ed5febfb6de2bdea]
class Organizacao--><rect fill="#FEFECE" filter="url(#ftuy681b2h44q)" height="104.0234" id="Organizacao" style="stroke: #A80036; stroke-width: 1.5;" width="110" x="307" y="42.94"/><ellipse cx="322.45" cy="58.94" fill="#ADD1B2" rx="11" ry="11" style="stroke: #A80036; stroke-width: 1.0;"/><path d="M324.7938,54.6119 L324.9656,54.69 C325.1844,54.3775 325.3875,54.2838 325.6844,54.2838 C325.9813,54.2838 326.2625,54.4244 326.4188,54.69 C326.5125,54.8463 326.5281,54.9713 326.5281,55.4088 L326.5281,56.8306 C326.5281,57.2525 326.4969,57.44 326.3875,57.5963 C326.2156,57.815 325.95,57.9556 325.6844,57.9556 C325.4656,57.9556 325.2313,57.8463 325.0906,57.7056 C324.95,57.5806 324.9188,57.4556 324.8563,57.0494 C324.7625,56.6431 324.5906,56.4244 324.1063,56.1431 C323.6375,55.8931 323.0281,55.7369 322.45,55.7369 C320.7156,55.7369 319.4656,57.0494 319.4656,58.8306 L319.4656,59.9244 C319.4656,61.6275 320.7625,62.7213 322.8094,62.7213 C323.575,62.7213 324.2625,62.5963 324.6844,62.3306 C324.8719,62.2369 324.8719,62.2369 325.325,61.7525 C325.5125,61.565 325.7156,61.4869 325.9344,61.4869 C326.4031,61.4869 326.7938,61.8775 326.7938,62.3306 C326.7938,62.7213 326.4656,63.1744 325.8875,63.5806 C325.1375,64.1275 323.9813,64.4244 322.7625,64.4244 C319.8719,64.4244 317.7625,62.5338 317.7625,59.9556 L317.7625,58.8306 C317.7625,56.1119 319.7625,54.0338 322.3875,54.0338 C323.2625,54.0338 323.8563,54.1744 324.7938,54.6119 Z "/><text fill="#000000" font-family="sans-serif" font-size="12" lengthAdjust="spacingAndGlyphs" textLength="77" x="336.55" y="63.0943">Organizacao</text><line style="stroke: #A80036; stroke-width: 1.5;" x1="308" x2="416" y1="74.94" y2="74.94"/><rect fill="none" height="6" style="stroke: #C82930; stroke-width: 1.0;" width="6" x="315" y="82.94"/><text fill="#000000" font-family="sans-serif" font-size="11" lengthAdjust="spacingAndGlyphs" textLength="70" x="327" y="89.1504">String nome</text><rect fill="none" height="6" style="stroke: #C82930; stroke-width: 1.0;" width="6" x="315" y="95.7447"/><text fill="#000000" font-family="sans-serif" font-size="11" lengthAdjust="spacingAndGlyphs" textLength="55" x="327" y="101.9551">String NIF</text><rect fill="none" height="6" style="stroke: #C82930; stroke-width: 1.0;" width="6" x="315" y="108.5494"/><text fill="#000000" font-family="sans-serif" font-size="11" lengthAdjust="spacingAndGlyphs" textLength="82" x="327" y="114.7598">String website</text><rect fill="none" height="6" style="stroke: #C82930; stroke-width: 1.0;" width="6" x="315" y="121.3541"/><text fill="#000000" font-family="sans-serif" font-size="11" lengthAdjust="spacingAndGlyphs" textLength="84" x="327" y="127.5645">String telefone</text><rect fill="none" height="6" style="stroke: #C82930; stroke-width: 1.0;" width="6" x="315" y="134.1588"/><text fill="#000000" font-family="sans-serif" font-size="11" lengthAdjust="spacingAndGlyphs" textLength="69" x="327" y="140.3692">String email</text><!--MD5=[ac8682ea5466d223e49472789fb200d2]
class Colaborador--><rect fill="#FEFECE" filter="url(#ftuy681b2h44q)" height="91.2188" id="Colaborador" style="stroke: #A80036; stroke-width: 1.5;" width="110" x="805" y="41.44"/><ellipse cx="820.45" cy="57.44" fill="#ADD1B2" rx="11" ry="11" style="stroke: #A80036; stroke-width: 1.0;"/><path d="M822.7938,53.1119 L822.9656,53.19 C823.1844,52.8775 823.3875,52.7838 823.6844,52.7838 C823.9813,52.7838 824.2625,52.9244 824.4188,53.19 C824.5125,53.3463 824.5281,53.4713 824.5281,53.9088 L824.5281,55.3306 C824.5281,55.7525 824.4969,55.94 824.3875,56.0963 C824.2156,56.315 823.95,56.4556 823.6844,56.4556 C823.4656,56.4556 823.2313,56.3463 823.0906,56.2056 C822.95,56.0806 822.9188,55.9556 822.8563,55.5494 C822.7625,55.1431 822.5906,54.9244 822.1063,54.6431 C821.6375,54.3931 821.0281,54.2369 820.45,54.2369 C818.7156,54.2369 817.4656,55.5494 817.4656,57.3306 L817.4656,58.4244 C817.4656,60.1275 818.7625,61.2213 820.8094,61.2213 C821.575,61.2213 822.2625,61.0963 822.6844,60.8306 C822.8719,60.7369 822.8719,60.7369 823.325,60.2525 C823.5125,60.065 823.7156,59.9869 823.9344,59.9869 C824.4031,59.9869 824.7938,60.3775 824.7938,60.8306 C824.7938,61.2213 824.4656,61.6744 823.8875,62.0806 C823.1375,62.6275 821.9813,62.9244 820.7625,62.9244 C817.8719,62.9244 815.7625,61.0338 815.7625,58.4556 L815.7625,57.3306 C815.7625,54.6119 817.7625,52.5338 820.3875,52.5338 C821.2625,52.5338 821.8563,52.6744 822.7938,53.1119 Z "/><text fill="#000000" font-family="sans-serif" font-size="12" lengthAdjust="spacingAndGlyphs" textLength="77" x="834.55" y="61.5943">Colaborador</text><line style="stroke: #A80036; stroke-width: 1.5;" x1="806" x2="914" y1="73.44" y2="73.44"/><rect fill="none" height="6" style="stroke: #C82930; stroke-width: 1.0;" width="6" x="813" y="81.44"/><text fill="#000000" font-family="sans-serif" font-size="11" lengthAdjust="spacingAndGlyphs" textLength="70" x="825" y="87.6504">String nome</text><rect fill="none" height="6" style="stroke: #C82930; stroke-width: 1.0;" width="6" x="813" y="94.2447"/><text fill="#000000" font-family="sans-serif" font-size="11" lengthAdjust="spacingAndGlyphs" textLength="76" x="825" y="100.4551">String funcao</text><rect fill="none" height="6" style="stroke: #C82930; stroke-width: 1.0;" width="6" x="813" y="107.0494"/><text fill="#000000" font-family="sans-serif" font-size="11" lengthAdjust="spacingAndGlyphs" textLength="84" x="825" y="113.2598">String telefone</text><rect fill="none" height="6" style="stroke: #C82930; stroke-width: 1.0;" width="6" x="813" y="119.8541"/><text fill="#000000" font-family="sans-serif" font-size="11" lengthAdjust="spacingAndGlyphs" textLength="69" x="825" y="126.0645">String email</text><!--MD5=[5093c62015235b3026463b234e5945de]
class Gestor--><rect fill="#FEFECE" filter="url(#ftuy681b2h44q)" height="91.2188" id="Gestor" style="stroke: #A80036; stroke-width: 1.5;" width="110" x="518" y="49.44"/><ellipse cx="549.2" cy="65.44" fill="#ADD1B2" rx="11" ry="11" style="stroke: #A80036; stroke-width: 1.0;"/><path d="M551.5438,61.1119 L551.7156,61.19 C551.9344,60.8775 552.1375,60.7838 552.4344,60.7838 C552.7313,60.7838 553.0125,60.9244 553.1688,61.19 C553.2625,61.3463 553.2781,61.4713 553.2781,61.9088 L553.2781,63.3306 C553.2781,63.7525 553.2469,63.94 553.1375,64.0963 C552.9656,64.315 552.7,64.4556 552.4344,64.4556 C552.2156,64.4556 551.9813,64.3463 551.8406,64.2056 C551.7,64.0806 551.6688,63.9556 551.6063,63.5494 C551.5125,63.1431 551.3406,62.9244 550.8563,62.6431 C550.3875,62.3931 549.7781,62.2369 549.2,62.2369 C547.4656,62.2369 546.2156,63.5494 546.2156,65.3306 L546.2156,66.4244 C546.2156,68.1275 547.5125,69.2213 549.5594,69.2213 C550.325,69.2213 551.0125,69.0963 551.4344,68.8306 C551.6219,68.7369 551.6219,68.7369 552.075,68.2525 C552.2625,68.065 552.4656,67.9869 552.6844,67.9869 C553.1531,67.9869 553.5438,68.3775 553.5438,68.8306 C553.5438,69.2213 553.2156,69.6744 552.6375,70.0806 C551.8875,70.6275 550.7313,70.9244 549.5125,70.9244 C546.6219,70.9244 544.5125,69.0338 544.5125,66.4556 L544.5125,65.3306 C544.5125,62.6119 546.5125,60.5338 549.1375,60.5338 C550.0125,60.5338 550.6063,60.6744 551.5438,61.1119 Z "/><text fill="#000000" font-family="sans-serif" font-size="12" lengthAdjust="spacingAndGlyphs" textLength="42" x="566.8" y="69.5943">Gestor</text><line style="stroke: #A80036; stroke-width: 1.5;" x1="519" x2="627" y1="81.44" y2="81.44"/><rect fill="none" height="6" style="stroke: #C82930; stroke-width: 1.0;" width="6" x="526" y="89.44"/><text fill="#000000" font-family="sans-serif" font-size="11" lengthAdjust="spacingAndGlyphs" textLength="70" x="538" y="95.6504">String nome</text><rect fill="none" height="6" style="stroke: #C82930; stroke-width: 1.0;" width="6" x="526" y="102.2447"/><text fill="#000000" font-family="sans-serif" font-size="11" lengthAdjust="spacingAndGlyphs" textLength="76" x="538" y="108.4551">String funcao</text><rect fill="none" height="6" style="stroke: #C82930; stroke-width: 1.0;" width="6" x="526" y="115.0494"/><text fill="#000000" font-family="sans-serif" font-size="11" lengthAdjust="spacingAndGlyphs" textLength="84" x="538" y="121.2598">String telefone</text><rect fill="none" height="6" style="stroke: #C82930; stroke-width: 1.0;" width="6" x="526" y="127.8541"/><text fill="#000000" font-family="sans-serif" font-size="11" lengthAdjust="spacingAndGlyphs" textLength="69" x="538" y="134.0645">String email</text><!--MD5=[1c2ad462e362697fcdc859a6327d55c7]
link Plataforma to Organizacao--><path d="M135.032,94.9399 C186.463,94.9399 258.12,94.9399 306.856,94.9399 " fill="none" id="Plataforma-Organizacao" style="stroke: #A80036; stroke-width: 1.0;"/><text fill="#000000" font-family="sans-serif" font-size="13" lengthAdjust="spacingAndGlyphs" textLength="97" x="166" y="91.0069">tem registadas</text><polygon fill="#000000" points="266,85.0064,272,88.0064,266,91.0064,266,85.0064" style="stroke: #000000; stroke-width: 1.0;"/><text fill="#000000" font-family="sans-serif" font-size="13" lengthAdjust="spacingAndGlyphs" textLength="8" x="142.956" y="107.8929">1</text><text fill="#000000" font-family="sans-serif" font-size="13" lengthAdjust="spacingAndGlyphs" textLength="7" x="291.9757" y="108.0219">*</text><!--MD5=[acc59e158a43a453195ae9db463f019a]
link Organizacao to Gestor--><path d="M417.094,94.9399 C448.057,94.9399 486.784,94.9399 517.769,94.9399 " fill="none" id="Organizacao-Gestor" style="stroke: #A80036; stroke-width: 1.0;"/><text fill="#000000" font-family="sans-serif" font-size="13" lengthAdjust="spacingAndGlyphs" textLength="26" x="448" y="91.0069">tem</text><polygon fill="#000000" points="477,85.0064,483,88.0064,477,91.0064,477,85.0064" style="stroke: #000000; stroke-width: 1.0;"/><text fill="#000000" font-family="sans-serif" font-size="13" lengthAdjust="spacingAndGlyphs" textLength="8" x="425.0348" y="108.0219">1</text><text fill="#000000" font-family="sans-serif" font-size="13" lengthAdjust="spacingAndGlyphs" textLength="14" x="496.1846" y="107.9156">**</text><!--MD5=[567db691f9836c63f305bad1024cbc66]
link Organizacao to Colaborador--><path d="M417.001,66.98 C446.086,53.485 483.078,38.766 518,31.94 C618.785,12.24 737.324,43.508 804.764,66.37 " fill="none" id="Organizacao-Colaborador" style="stroke: #A80036; stroke-width: 1.0;"/><text fill="#000000" font-family="sans-serif" font-size="13" lengthAdjust="spacingAndGlyphs" textLength="26" x="553.5" y="21.0069">tem</text><polygon fill="#000000" points="582.5,15.0064,588.5,18.0064,582.5,21.0064,582.5,15.0064" style="stroke: #000000; stroke-width: 1.0;"/><text fill="#000000" font-family="sans-serif" font-size="13" lengthAdjust="spacingAndGlyphs" textLength="8" x="424.9293" y="76.3049">1</text><text fill="#000000" font-family="sans-serif" font-size="13" lengthAdjust="spacingAndGlyphs" textLength="7" x="789.8714" y="76.6748">*</text><!--MD5=[f23555b54447d2bba49630c454e4e360]
link Colaborador to Organizacao--><path d="M804.786,117.7622 C737.616,152.0601 619.598,199.6126 518,174.9399 C482.393,166.2929 445.818,147.9477 417.145,131.0039 " fill="none" id="Colaborador-Organizacao" style="stroke: #A80036; stroke-width: 1.0;"/><polygon fill="#000000" points="530.5,165.0063,524.5,168.0063,530.5,171.0063,530.5,165.0063" style="stroke: #000000; stroke-width: 1.0;"/><text fill="#000000" font-family="sans-serif" font-size="13" lengthAdjust="spacingAndGlyphs" textLength="86" x="536.5" y="171.0068">trabalha para</text><text fill="#000000" font-family="sans-serif" font-size="13" lengthAdjust="spacingAndGlyphs" textLength="8" x="788.8291" y="134.9729">1</text><text fill="#000000" font-family="sans-serif" font-size="13" lengthAdjust="spacingAndGlyphs" textLength="8" x="425.0926" y="148.932">1</text><!--MD5=[d67bf0312a26268cf92dd670461cc43a]
link Gestor to Colaborador--><path d="M628.277,93.4164 C678.989,91.9929 754.278,89.8795 804.925,88.4578 " fill="none" id="Gestor-Colaborador" style="stroke: #A80036; stroke-width: 1.0;"/><text fill="#000000" font-family="sans-serif" font-size="13" lengthAdjust="spacingAndGlyphs" textLength="63" x="678.5" y="85.0069">especifica</text><polygon fill="#000000" points="744.5,79.0064,750.5,82.0064,744.5,85.0064,744.5,79.0064" style="stroke: #000000; stroke-width: 1.0;"/><text fill="#000000" font-family="sans-serif" font-size="13" lengthAdjust="spacingAndGlyphs" textLength="8" x="635.8719" y="106.2435">1</text><text fill="#000000" font-family="sans-serif" font-size="13" lengthAdjust="spacingAndGlyphs" textLength="7" x="790.054" y="101.7307">*</text><!--MD5=[d67bf0312a26268cf92dd670461cc43a]
link Gestor to Colaborador--><path d="M628.274,111.3152 C638.083,113.6541 648.281,115.6884 658,116.9399 C709.574,123.5817 723.763,125.8149 775,116.9399 C784.765,115.2484 794.898,112.5277 804.604,109.3981 " fill="none" id="Gestor-Colaborador-1" style="stroke: #A80036; stroke-width: 1.0;"/><text fill="#000000" font-family="sans-serif" font-size="13" lengthAdjust="spacingAndGlyphs" textLength="102" x="659" y="113.0068">é um (papel de)</text><polygon fill="#000000" points="764,107.0063,770,110.0063,764,113.0063,764,107.0063" style="stroke: #000000; stroke-width: 1.0;"/><text fill="#000000" font-family="sans-serif" font-size="13" lengthAdjust="spacingAndGlyphs" textLength="8" x="635.8685" y="126.4356">1</text><text fill="#000000" font-family="sans-serif" font-size="13" lengthAdjust="spacingAndGlyphs" textLength="8" x="788.9939" y="125.2979">1</text><!--MD5=[a7c7685719f7a2af146ce0ed41c1ef58]
@startuml
hide methods
left to right direction

class Plataforma {
  -String designacao
}

class Organizacao {
  -String nome
  -String NIF
  -String website
  -String telefone
  -String email
}

class Colaborador {
  -String nome
  -String funcao
  -String telefone
  -String email
}

class Gestor {
-String nome
-String funcao
-String telefone 
-String email
}

Plataforma "1" - - "*" Organizacao : tem registadas >
Organizacao "1" - - "**" Gestor: tem >
Organizacao "1" - - "*" Colaborador: tem  >
Gestor "1" - - "*" Colaborador : especifica >
Gestor "1" - - "1" Colaborador : é um (papel de) >
Colaborador "1" - - "1" Organizacao: trabalha para >
@enduml

PlantUML version 1.2020.02(Sun Mar 01 10:22:07 UTC 2020)
(GPL source distribution)
Java Runtime: Java(TM) SE Runtime Environment
JVM: Java HotSpot(TM) 64-Bit Server VM
Java Version: 1.7.0_25-b15
Operating System: Linux
Default Encoding: UTF-8
Language: en
Country: US
--></g></svg>