<?xml version="1.0" encoding="UTF-8" standalone="no"?><svg xmlns="http://www.w3.org/2000/svg" xmlns:xlink="http://www.w3.org/1999/xlink" contentScriptType="application/ecmascript" contentStyleType="text/css" height="337px" preserveAspectRatio="none" style="width:1165px;height:337px;" version="1.1" viewBox="0 0 1165 337" width="1165px" zoomAndPan="magnify"><defs><filter height="300%" id="f7o9h4ryhoq7f" width="300%" x="-1" y="-1"><feGaussianBlur result="blurOut" stdDeviation="2.0"/><feColorMatrix in="blurOut" result="blurOut2" type="matrix" values="0 0 0 0 0 0 0 0 0 0 0 0 0 0 0 0 0 0 .4 0"/><feOffset dx="4.0" dy="4.0" in="blurOut2" result="blurOut3"/><feBlend in="SourceGraphic" in2="blurOut3" mode="normal"/></filter></defs><g><!--MD5=[02456e6632d968d6f68141e5893c6991]
class AreaAtividade--><rect fill="#FEFECE" filter="url(#f7o9h4ryhoq7f)" height="193.6563" id="AreaAtividade" style="stroke: #A80036; stroke-width: 1.5;" width="148" x="999" y="13"/><ellipse cx="1027.5" cy="29" fill="#ADD1B2" rx="11" ry="11" style="stroke: #A80036; stroke-width: 1.0;"/><path d="M1029.8438,24.6719 L1030.0156,24.75 C1030.2344,24.4375 1030.4375,24.3438 1030.7344,24.3438 C1031.0313,24.3438 1031.3125,24.4844 1031.4688,24.75 C1031.5625,24.9063 1031.5781,25.0313 1031.5781,25.4688 L1031.5781,26.8906 C1031.5781,27.3125 1031.5469,27.5 1031.4375,27.6563 C1031.2656,27.875 1031,28.0156 1030.7344,28.0156 C1030.5156,28.0156 1030.2813,27.9063 1030.1406,27.7656 C1030,27.6406 1029.9688,27.5156 1029.9063,27.1094 C1029.8125,26.7031 1029.6406,26.4844 1029.1563,26.2031 C1028.6875,25.9531 1028.0781,25.7969 1027.5,25.7969 C1025.7656,25.7969 1024.5156,27.1094 1024.5156,28.8906 L1024.5156,29.9844 C1024.5156,31.6875 1025.8125,32.7813 1027.8594,32.7813 C1028.625,32.7813 1029.3125,32.6563 1029.7344,32.3906 C1029.9219,32.2969 1029.9219,32.2969 1030.375,31.8125 C1030.5625,31.625 1030.7656,31.5469 1030.9844,31.5469 C1031.4531,31.5469 1031.8438,31.9375 1031.8438,32.3906 C1031.8438,32.7813 1031.5156,33.2344 1030.9375,33.6406 C1030.1875,34.1875 1029.0313,34.4844 1027.8125,34.4844 C1024.9219,34.4844 1022.8125,32.5938 1022.8125,30.0156 L1022.8125,28.8906 C1022.8125,26.1719 1024.8125,24.0938 1027.4375,24.0938 C1028.3125,24.0938 1028.9063,24.2344 1029.8438,24.6719 Z "/><text fill="#000000" font-family="sans-serif" font-size="12" lengthAdjust="spacingAndGlyphs" textLength="86" x="1044.5" y="33.1543">AreaAtividade</text><line style="stroke: #A80036; stroke-width: 1.5;" x1="1000" x2="1146" y1="45" y2="45"/><rect fill="none" height="6" style="stroke: #C82930; stroke-width: 1.0;" width="6" x="1007" y="53"/><text fill="#000000" font-family="sans-serif" font-size="11" lengthAdjust="spacingAndGlyphs" textLength="75" x="1019" y="59.2104">String codigo</text><rect fill="none" height="6" style="stroke: #C82930; stroke-width: 1.0;" width="6" x="1007" y="65.8047"/><text fill="#000000" font-family="sans-serif" font-size="11" lengthAdjust="spacingAndGlyphs" textLength="98" x="1019" y="72.0151">String descBreve</text><rect fill="none" height="6" style="stroke: #C82930; stroke-width: 1.0;" width="6" x="1007" y="78.6094"/><text fill="#000000" font-family="sans-serif" font-size="11" lengthAdjust="spacingAndGlyphs" textLength="122" x="1019" y="84.8198">String descDetalhada</text><text fill="#000000" font-family="sans-serif" font-size="11" lengthAdjust="spacingAndGlyphs" textLength="0" x="1023" y="97.6245"/><text fill="#000000" font-family="sans-serif" font-size="11" lengthAdjust="spacingAndGlyphs" textLength="0" x="1023" y="110.4292"/><text fill="#000000" font-family="sans-serif" font-size="11" lengthAdjust="spacingAndGlyphs" textLength="0" x="1023" y="123.2339"/><text fill="#000000" font-family="sans-serif" font-size="11" lengthAdjust="spacingAndGlyphs" textLength="115" x="1019" y="136.0386">class Organizacao {</text><rect fill="none" height="6" style="stroke: #C82930; stroke-width: 1.0;" width="6" x="1007" y="142.6328"/><text fill="#000000" font-family="sans-serif" font-size="11" lengthAdjust="spacingAndGlyphs" textLength="70" x="1019" y="148.8433">String nome</text><rect fill="none" height="6" style="stroke: #C82930; stroke-width: 1.0;" width="6" x="1007" y="155.4375"/><text fill="#000000" font-family="sans-serif" font-size="11" lengthAdjust="spacingAndGlyphs" textLength="55" x="1019" y="161.6479">String NIF</text><rect fill="none" height="6" style="stroke: #C82930; stroke-width: 1.0;" width="6" x="1007" y="168.2422"/><text fill="#000000" font-family="sans-serif" font-size="11" lengthAdjust="spacingAndGlyphs" textLength="82" x="1019" y="174.4526">String website</text><rect fill="none" height="6" style="stroke: #C82930; stroke-width: 1.0;" width="6" x="1007" y="181.0469"/><text fill="#000000" font-family="sans-serif" font-size="11" lengthAdjust="spacingAndGlyphs" textLength="84" x="1019" y="187.2573">String telefone</text><rect fill="none" height="6" style="stroke: #C82930; stroke-width: 1.0;" width="6" x="1007" y="193.8516"/><text fill="#000000" font-family="sans-serif" font-size="11" lengthAdjust="spacingAndGlyphs" textLength="69" x="1019" y="200.062">String email</text><!--MD5=[ac8682ea5466d223e49472789fb200d2]
class Colaborador--><rect fill="#FEFECE" filter="url(#f7o9h4ryhoq7f)" height="91.2188" id="Colaborador" style="stroke: #A80036; stroke-width: 1.5;" width="110" x="6" y="140.5"/><ellipse cx="21.45" cy="156.5" fill="#ADD1B2" rx="11" ry="11" style="stroke: #A80036; stroke-width: 1.0;"/><path d="M23.7938,152.1719 L23.9656,152.25 C24.1844,151.9375 24.3875,151.8438 24.6844,151.8438 C24.9813,151.8438 25.2625,151.9844 25.4188,152.25 C25.5125,152.4063 25.5281,152.5313 25.5281,152.9688 L25.5281,154.3906 C25.5281,154.8125 25.4969,155 25.3875,155.1563 C25.2156,155.375 24.95,155.5156 24.6844,155.5156 C24.4656,155.5156 24.2313,155.4063 24.0906,155.2656 C23.95,155.1406 23.9188,155.0156 23.8563,154.6094 C23.7625,154.2031 23.5906,153.9844 23.1063,153.7031 C22.6375,153.4531 22.0281,153.2969 21.45,153.2969 C19.7156,153.2969 18.4656,154.6094 18.4656,156.3906 L18.4656,157.4844 C18.4656,159.1875 19.7625,160.2813 21.8094,160.2813 C22.575,160.2813 23.2625,160.1563 23.6844,159.8906 C23.8719,159.7969 23.8719,159.7969 24.325,159.3125 C24.5125,159.125 24.7156,159.0469 24.9344,159.0469 C25.4031,159.0469 25.7938,159.4375 25.7938,159.8906 C25.7938,160.2813 25.4656,160.7344 24.8875,161.1406 C24.1375,161.6875 22.9813,161.9844 21.7625,161.9844 C18.8719,161.9844 16.7625,160.0938 16.7625,157.5156 L16.7625,156.3906 C16.7625,153.6719 18.7625,151.5938 21.3875,151.5938 C22.2625,151.5938 22.8563,151.7344 23.7938,152.1719 Z "/><text fill="#000000" font-family="sans-serif" font-size="12" lengthAdjust="spacingAndGlyphs" textLength="77" x="35.55" y="160.6543">Colaborador</text><line style="stroke: #A80036; stroke-width: 1.5;" x1="7" x2="115" y1="172.5" y2="172.5"/><rect fill="none" height="6" style="stroke: #C82930; stroke-width: 1.0;" width="6" x="14" y="180.5"/><text fill="#000000" font-family="sans-serif" font-size="11" lengthAdjust="spacingAndGlyphs" textLength="70" x="26" y="186.7104">String nome</text><rect fill="none" height="6" style="stroke: #C82930; stroke-width: 1.0;" width="6" x="14" y="193.3047"/><text fill="#000000" font-family="sans-serif" font-size="11" lengthAdjust="spacingAndGlyphs" textLength="76" x="26" y="199.5151">String funcao</text><rect fill="none" height="6" style="stroke: #C82930; stroke-width: 1.0;" width="6" x="14" y="206.1094"/><text fill="#000000" font-family="sans-serif" font-size="11" lengthAdjust="spacingAndGlyphs" textLength="84" x="26" y="212.3198">String telefone</text><rect fill="none" height="6" style="stroke: #C82930; stroke-width: 1.0;" width="6" x="14" y="218.9141"/><text fill="#000000" font-family="sans-serif" font-size="11" lengthAdjust="spacingAndGlyphs" textLength="69" x="26" y="225.1245">String email</text><!--MD5=[5dd1d6732c071e710b9290b531f2fa3b]
class Utilizador--><rect fill="#FEFECE" filter="url(#f7o9h4ryhoq7f)" height="78.4141" id="Utilizador" style="stroke: #A80036; stroke-width: 1.5;" width="120" x="300" y="8"/><ellipse cx="328.95" cy="24" fill="#ADD1B2" rx="11" ry="11" style="stroke: #A80036; stroke-width: 1.0;"/><path d="M331.2938,19.6719 L331.4656,19.75 C331.6844,19.4375 331.8875,19.3438 332.1844,19.3438 C332.4813,19.3438 332.7625,19.4844 332.9188,19.75 C333.0125,19.9063 333.0281,20.0313 333.0281,20.4688 L333.0281,21.8906 C333.0281,22.3125 332.9969,22.5 332.8875,22.6563 C332.7156,22.875 332.45,23.0156 332.1844,23.0156 C331.9656,23.0156 331.7313,22.9063 331.5906,22.7656 C331.45,22.6406 331.4188,22.5156 331.3563,22.1094 C331.2625,21.7031 331.0906,21.4844 330.6063,21.2031 C330.1375,20.9531 329.5281,20.7969 328.95,20.7969 C327.2156,20.7969 325.9656,22.1094 325.9656,23.8906 L325.9656,24.9844 C325.9656,26.6875 327.2625,27.7813 329.3094,27.7813 C330.075,27.7813 330.7625,27.6563 331.1844,27.3906 C331.3719,27.2969 331.3719,27.2969 331.825,26.8125 C332.0125,26.625 332.2156,26.5469 332.4344,26.5469 C332.9031,26.5469 333.2938,26.9375 333.2938,27.3906 C333.2938,27.7813 332.9656,28.2344 332.3875,28.6406 C331.6375,29.1875 330.4813,29.4844 329.2625,29.4844 C326.3719,29.4844 324.2625,27.5938 324.2625,25.0156 L324.2625,23.8906 C324.2625,21.1719 326.2625,19.0938 328.8875,19.0938 C329.7625,19.0938 330.3563,19.2344 331.2938,19.6719 Z "/><text fill="#000000" font-family="sans-serif" font-size="12" lengthAdjust="spacingAndGlyphs" textLength="57" x="346.05" y="28.1543">Utilizador</text><line style="stroke: #A80036; stroke-width: 1.5;" x1="301" x2="419" y1="40" y2="40"/><rect fill="none" height="6" style="stroke: #C82930; stroke-width: 1.0;" width="6" x="308" y="48"/><text fill="#000000" font-family="sans-serif" font-size="11" lengthAdjust="spacingAndGlyphs" textLength="70" x="320" y="54.2104">String nome</text><rect fill="none" height="6" style="stroke: #C82930; stroke-width: 1.0;" width="6" x="308" y="60.8047"/><text fill="#000000" font-family="sans-serif" font-size="11" lengthAdjust="spacingAndGlyphs" textLength="69" x="320" y="67.0151">String email</text><rect fill="none" height="6" style="stroke: #C82930; stroke-width: 1.0;" width="6" x="308" y="73.6094"/><text fill="#000000" font-family="sans-serif" font-size="11" lengthAdjust="spacingAndGlyphs" textLength="94" x="320" y="79.8198">String password</text><!--MD5=[27c2d4bbe9f7b9d3b0ea2797cc54308a]
class Tarefa--><rect fill="#FEFECE" filter="url(#f7o9h4ryhoq7f)" height="129.6328" id="Tarefa" style="stroke: #A80036; stroke-width: 1.5;" width="166" x="277" y="121"/><ellipse cx="335.75" cy="137" fill="#ADD1B2" rx="11" ry="11" style="stroke: #A80036; stroke-width: 1.0;"/><path d="M338.0938,132.6719 L338.2656,132.75 C338.4844,132.4375 338.6875,132.3438 338.9844,132.3438 C339.2813,132.3438 339.5625,132.4844 339.7188,132.75 C339.8125,132.9063 339.8281,133.0313 339.8281,133.4688 L339.8281,134.8906 C339.8281,135.3125 339.7969,135.5 339.6875,135.6563 C339.5156,135.875 339.25,136.0156 338.9844,136.0156 C338.7656,136.0156 338.5313,135.9063 338.3906,135.7656 C338.25,135.6406 338.2188,135.5156 338.1563,135.1094 C338.0625,134.7031 337.8906,134.4844 337.4063,134.2031 C336.9375,133.9531 336.3281,133.7969 335.75,133.7969 C334.0156,133.7969 332.7656,135.1094 332.7656,136.8906 L332.7656,137.9844 C332.7656,139.6875 334.0625,140.7813 336.1094,140.7813 C336.875,140.7813 337.5625,140.6563 337.9844,140.3906 C338.1719,140.2969 338.1719,140.2969 338.625,139.8125 C338.8125,139.625 339.0156,139.5469 339.2344,139.5469 C339.7031,139.5469 340.0938,139.9375 340.0938,140.3906 C340.0938,140.7813 339.7656,141.2344 339.1875,141.6406 C338.4375,142.1875 337.2813,142.4844 336.0625,142.4844 C333.1719,142.4844 331.0625,140.5938 331.0625,138.0156 L331.0625,136.8906 C331.0625,134.1719 333.0625,132.0938 335.6875,132.0938 C336.5625,132.0938 337.1563,132.2344 338.0938,132.6719 Z "/><text fill="#000000" font-family="sans-serif" font-size="12" lengthAdjust="spacingAndGlyphs" textLength="40" x="356.25" y="141.1543">Tarefa</text><line style="stroke: #A80036; stroke-width: 1.5;" x1="278" x2="442" y1="153" y2="153"/><rect fill="none" height="6" style="stroke: #C82930; stroke-width: 1.0;" width="6" x="285" y="161"/><text fill="#000000" font-family="sans-serif" font-size="11" lengthAdjust="spacingAndGlyphs" textLength="96" x="297" y="167.2104">String referencia</text><rect fill="none" height="6" style="stroke: #C82930; stroke-width: 1.0;" width="6" x="285" y="173.8047"/><text fill="#000000" font-family="sans-serif" font-size="11" lengthAdjust="spacingAndGlyphs" textLength="116" x="297" y="180.0151">String designacaçao</text><rect fill="none" height="6" style="stroke: #C82930; stroke-width: 1.0;" width="6" x="285" y="186.6094"/><text fill="#000000" font-family="sans-serif" font-size="11" lengthAdjust="spacingAndGlyphs" textLength="140" x="297" y="192.8198">String descricaoInformal</text><rect fill="none" height="6" style="stroke: #C82930; stroke-width: 1.0;" width="6" x="285" y="199.4141"/><text fill="#000000" font-family="sans-serif" font-size="11" lengthAdjust="spacingAndGlyphs" textLength="136" x="297" y="205.6245">String descricaoTecnica</text><rect fill="none" height="6" style="stroke: #C82930; stroke-width: 1.0;" width="6" x="285" y="212.2188"/><text fill="#000000" font-family="sans-serif" font-size="11" lengthAdjust="spacingAndGlyphs" textLength="84" x="297" y="218.4292">String duracao</text><rect fill="none" height="6" style="stroke: #C82930; stroke-width: 1.0;" width="6" x="285" y="225.0234"/><text fill="#000000" font-family="sans-serif" font-size="11" lengthAdjust="spacingAndGlyphs" textLength="73" x="297" y="231.2339">double custo</text><rect fill="none" height="6" style="stroke: #C82930; stroke-width: 1.0;" width="6" x="285" y="237.8281"/><text fill="#000000" font-family="sans-serif" font-size="11" lengthAdjust="spacingAndGlyphs" textLength="91" x="297" y="244.0386">String categoria</text><!--MD5=[908ebdac55ea5aeb42bf769c37b68b16]
class CategoriadeTarefa--><rect fill="#FEFECE" filter="url(#f7o9h4ryhoq7f)" height="104.0234" id="CategoriadeTarefa" style="stroke: #A80036; stroke-width: 1.5;" width="299" x="559" y="134"/><ellipse cx="645.75" cy="150" fill="#ADD1B2" rx="11" ry="11" style="stroke: #A80036; stroke-width: 1.0;"/><path d="M648.0938,145.6719 L648.2656,145.75 C648.4844,145.4375 648.6875,145.3438 648.9844,145.3438 C649.2813,145.3438 649.5625,145.4844 649.7188,145.75 C649.8125,145.9063 649.8281,146.0313 649.8281,146.4688 L649.8281,147.8906 C649.8281,148.3125 649.7969,148.5 649.6875,148.6563 C649.5156,148.875 649.25,149.0156 648.9844,149.0156 C648.7656,149.0156 648.5313,148.9063 648.3906,148.7656 C648.25,148.6406 648.2188,148.5156 648.1563,148.1094 C648.0625,147.7031 647.8906,147.4844 647.4063,147.2031 C646.9375,146.9531 646.3281,146.7969 645.75,146.7969 C644.0156,146.7969 642.7656,148.1094 642.7656,149.8906 L642.7656,150.9844 C642.7656,152.6875 644.0625,153.7813 646.1094,153.7813 C646.875,153.7813 647.5625,153.6563 647.9844,153.3906 C648.1719,153.2969 648.1719,153.2969 648.625,152.8125 C648.8125,152.625 649.0156,152.5469 649.2344,152.5469 C649.7031,152.5469 650.0938,152.9375 650.0938,153.3906 C650.0938,153.7813 649.7656,154.2344 649.1875,154.6406 C648.4375,155.1875 647.2813,155.4844 646.0625,155.4844 C643.1719,155.4844 641.0625,153.5938 641.0625,151.0156 L641.0625,149.8906 C641.0625,147.1719 643.0625,145.0938 645.6875,145.0938 C646.5625,145.0938 647.1563,145.2344 648.0938,145.6719 Z "/><text fill="#000000" font-family="sans-serif" font-size="12" lengthAdjust="spacingAndGlyphs" textLength="117" x="666.25" y="154.1543">CategoriadeTarefa</text><line style="stroke: #A80036; stroke-width: 1.5;" x1="560" x2="857" y1="166" y2="166"/><rect fill="none" height="6" style="stroke: #C82930; stroke-width: 1.0;" width="6" x="567" y="174"/><text fill="#000000" font-family="sans-serif" font-size="11" lengthAdjust="spacingAndGlyphs" textLength="93" x="579" y="180.2104">String descricao</text><text fill="#000000" font-family="sans-serif" font-size="11" lengthAdjust="spacingAndGlyphs" textLength="0" x="583" y="193.0151"/><text fill="#000000" font-family="sans-serif" font-size="11" lengthAdjust="spacingAndGlyphs" textLength="273" x="579" y="205.8198">class competenciaTecnicaObrigatoriaOpcional {</text><rect fill="none" height="6" style="stroke: #C82930; stroke-width: 1.0;" width="6" x="567" y="212.4141"/><text fill="#000000" font-family="sans-serif" font-size="11" lengthAdjust="spacingAndGlyphs" textLength="185" x="579" y="218.6245">boolean competenciaObrigatoria</text><rect fill="none" height="6" style="stroke: #C82930; stroke-width: 1.0;" width="6" x="567" y="225.2188"/><text fill="#000000" font-family="sans-serif" font-size="11" lengthAdjust="spacingAndGlyphs" textLength="170" x="579" y="231.4292">boolean competenciaOpcional</text><!--MD5=[807977ceb130c090ed5febfb6de2bdea]
class Organizacao--><rect fill="#FEFECE" filter="url(#f7o9h4ryhoq7f)" height="40" id="Organizacao" style="stroke: #A80036; stroke-width: 1.5;" width="109" x="305.5" y="286"/><ellipse cx="320.5" cy="302" fill="#ADD1B2" rx="11" ry="11" style="stroke: #A80036; stroke-width: 1.0;"/><path d="M322.8438,297.6719 L323.0156,297.75 C323.2344,297.4375 323.4375,297.3438 323.7344,297.3438 C324.0313,297.3438 324.3125,297.4844 324.4688,297.75 C324.5625,297.9063 324.5781,298.0313 324.5781,298.4688 L324.5781,299.8906 C324.5781,300.3125 324.5469,300.5 324.4375,300.6563 C324.2656,300.875 324,301.0156 323.7344,301.0156 C323.5156,301.0156 323.2813,300.9063 323.1406,300.7656 C323,300.6406 322.9688,300.5156 322.9063,300.1094 C322.8125,299.7031 322.6406,299.4844 322.1563,299.2031 C321.6875,298.9531 321.0781,298.7969 320.5,298.7969 C318.7656,298.7969 317.5156,300.1094 317.5156,301.8906 L317.5156,302.9844 C317.5156,304.6875 318.8125,305.7813 320.8594,305.7813 C321.625,305.7813 322.3125,305.6563 322.7344,305.3906 C322.9219,305.2969 322.9219,305.2969 323.375,304.8125 C323.5625,304.625 323.7656,304.5469 323.9844,304.5469 C324.4531,304.5469 324.8438,304.9375 324.8438,305.3906 C324.8438,305.7813 324.5156,306.2344 323.9375,306.6406 C323.1875,307.1875 322.0313,307.4844 320.8125,307.4844 C317.9219,307.4844 315.8125,305.5938 315.8125,303.0156 L315.8125,301.8906 C315.8125,299.1719 317.8125,297.0938 320.4375,297.0938 C321.3125,297.0938 321.9063,297.2344 322.8438,297.6719 Z "/><text fill="#000000" font-family="sans-serif" font-size="12" lengthAdjust="spacingAndGlyphs" textLength="77" x="334.5" y="306.1543">Organizacao</text><line style="stroke: #A80036; stroke-width: 1.5;" x1="306.5" x2="413.5" y1="318" y2="318"/><!--MD5=[a322db5a7ec64d2ff8f2d6cf1831dcec]
class CompetenciaTecnica--><rect fill="#FEFECE" filter="url(#f7o9h4ryhoq7f)" height="40" id="CompetenciaTecnica" style="stroke: #A80036; stroke-width: 1.5;" width="162" x="992" y="242"/><ellipse cx="1007" cy="258" fill="#ADD1B2" rx="11" ry="11" style="stroke: #A80036; stroke-width: 1.0;"/><path d="M1009.3438,253.6719 L1009.5156,253.75 C1009.7344,253.4375 1009.9375,253.3438 1010.2344,253.3438 C1010.5313,253.3438 1010.8125,253.4844 1010.9688,253.75 C1011.0625,253.9063 1011.0781,254.0313 1011.0781,254.4688 L1011.0781,255.8906 C1011.0781,256.3125 1011.0469,256.5 1010.9375,256.6563 C1010.7656,256.875 1010.5,257.0156 1010.2344,257.0156 C1010.0156,257.0156 1009.7813,256.9063 1009.6406,256.7656 C1009.5,256.6406 1009.4688,256.5156 1009.4063,256.1094 C1009.3125,255.7031 1009.1406,255.4844 1008.6563,255.2031 C1008.1875,254.9531 1007.5781,254.7969 1007,254.7969 C1005.2656,254.7969 1004.0156,256.1094 1004.0156,257.8906 L1004.0156,258.9844 C1004.0156,260.6875 1005.3125,261.7813 1007.3594,261.7813 C1008.125,261.7813 1008.8125,261.6563 1009.2344,261.3906 C1009.4219,261.2969 1009.4219,261.2969 1009.875,260.8125 C1010.0625,260.625 1010.2656,260.5469 1010.4844,260.5469 C1010.9531,260.5469 1011.3438,260.9375 1011.3438,261.3906 C1011.3438,261.7813 1011.0156,262.2344 1010.4375,262.6406 C1009.6875,263.1875 1008.5313,263.4844 1007.3125,263.4844 C1004.4219,263.4844 1002.3125,261.5938 1002.3125,259.0156 L1002.3125,257.8906 C1002.3125,255.1719 1004.3125,253.0938 1006.9375,253.0938 C1007.8125,253.0938 1008.4063,253.2344 1009.3438,253.6719 Z "/><text fill="#000000" font-family="sans-serif" font-size="12" lengthAdjust="spacingAndGlyphs" textLength="130" x="1021" y="262.1543">CompetenciaTecnica</text><line style="stroke: #A80036; stroke-width: 1.5;" x1="993" x2="1153" y1="274" y2="274"/><!--MD5=[bcb5794e8184ce78d304f04a5beabbc0]
link Colaborador to Utilizador--><path d="M116.129,160.667 C168.08,136.353 246.342,99.725 299.897,74.661 " fill="none" id="Colaborador-Utilizador" style="stroke: #A80036; stroke-width: 1.0;"/><text fill="#000000" font-family="sans-serif" font-size="13" lengthAdjust="spacingAndGlyphs" textLength="69" x="155.5" y="96.0669">atua como</text><polygon fill="#000000" points="227.5,90.0664,233.5,93.0664,227.5,96.0664,227.5,90.0664" style="stroke: #000000; stroke-width: 1.0;"/><text fill="#000000" font-family="sans-serif" font-size="13" lengthAdjust="spacingAndGlyphs" textLength="8" x="124.0745" y="170.3318">1</text><text fill="#000000" font-family="sans-serif" font-size="13" lengthAdjust="spacingAndGlyphs" textLength="8" x="284.0844" y="90.996">1</text><!--MD5=[adb361c9f58e7cbfc456d56136f96fa3]
link Colaborador to Tarefa--><path d="M116.129,186 C161.053,186 225.651,186 276.935,186 " fill="none" id="Colaborador-Tarefa" style="stroke: #A80036; stroke-width: 1.0;"/><text fill="#000000" font-family="sans-serif" font-size="13" lengthAdjust="spacingAndGlyphs" textLength="39" x="170.5" y="182.0669">define</text><polygon fill="#000000" points="212.5,176.0664,218.5,179.0664,212.5,182.0664,212.5,176.0664" style="stroke: #000000; stroke-width: 1.0;"/><text fill="#000000" font-family="sans-serif" font-size="13" lengthAdjust="spacingAndGlyphs" textLength="8" x="124.0745" y="199.0689">1</text><text fill="#000000" font-family="sans-serif" font-size="13" lengthAdjust="spacingAndGlyphs" textLength="7" x="261.9548" y="198.7813">*</text><!--MD5=[f23555b54447d2bba49630c454e4e360]
link Colaborador to Organizacao--><path d="M116.129,207.87 C171.175,230.1113 255.762,264.2875 309.195,285.8769 " fill="none" id="Colaborador-Organizacao" style="stroke: #A80036; stroke-width: 1.0;"/><text fill="#000000" font-family="sans-serif" font-size="13" lengthAdjust="spacingAndGlyphs" textLength="86" x="147" y="217.0669">trabalha para</text><polygon fill="#000000" points="236,211.0664,242,214.0664,236,217.0664,236,211.0664" style="stroke: #000000; stroke-width: 1.0;"/><text fill="#000000" font-family="sans-serif" font-size="13" lengthAdjust="spacingAndGlyphs" textLength="8" x="124.0745" y="223.8777">1</text><text fill="#000000" font-family="sans-serif" font-size="13" lengthAdjust="spacingAndGlyphs" textLength="8" x="289.2064" y="276.9158">1</text><!--MD5=[f216871d5392bc3af076dc2081c16bd2]
link Tarefa to CategoriadeTarefa--><path d="M443.116,186 C477.738,186 519.147,186 558.805,186 " fill="none" id="Tarefa-CategoriadeTarefa" style="stroke: #A80036; stroke-width: 1.0;"/><text fill="#000000" font-family="sans-serif" font-size="13" lengthAdjust="spacingAndGlyphs" textLength="41" x="474" y="182.0669">possui</text><polygon fill="#000000" points="518,176.0664,524,179.0664,518,182.0664,518,176.0664" style="stroke: #000000; stroke-width: 1.0;"/><text fill="#000000" font-family="sans-serif" font-size="13" lengthAdjust="spacingAndGlyphs" textLength="8" x="450.8748" y="198.7571">1</text><text fill="#000000" font-family="sans-serif" font-size="13" lengthAdjust="spacingAndGlyphs" textLength="8" x="542.8801" y="198.4564">1</text><!--MD5=[3dcaca9584d9b66001bc3100524f1e28]
link CategoriadeTarefa to AreaAtividade--><path d="M858.25,154.814 C906.71,144.654 958.374,133.822 998.769,125.353 " fill="none" id="CategoriadeTarefa-AreaAtividade" style="stroke: #A80036; stroke-width: 1.0;"/><text fill="#000000" font-family="sans-serif" font-size="13" lengthAdjust="spacingAndGlyphs" textLength="59" x="889" y="131.0669">referente</text><polygon fill="#000000" points="951,125.0664,957,128.0664,951,131.0664,951,125.0664" style="stroke: #000000; stroke-width: 1.0;"/><text fill="#000000" font-family="sans-serif" font-size="13" lengthAdjust="spacingAndGlyphs" textLength="8" x="866.1777" y="165.6624">1</text><text fill="#000000" font-family="sans-serif" font-size="13" lengthAdjust="spacingAndGlyphs" textLength="7" x="984.1174" y="139.6929">*</text><!--MD5=[75309c4f2e15d8c8056e66dae99a59c5]
link CategoriadeTarefa to CompetenciaTecnica--><path d="M858.25,217.186 C903.974,226.7726 952.551,236.957 991.823,245.1904 " fill="none" id="CategoriadeTarefa-CompetenciaTecnica" style="stroke: #A80036; stroke-width: 1.0;"/><text fill="#000000" font-family="sans-serif" font-size="13" lengthAdjust="spacingAndGlyphs" textLength="59" x="889" y="220.0669">referente</text><polygon fill="#000000" points="951,214.0664,957,217.0664,951,220.0664,951,214.0664" style="stroke: #000000; stroke-width: 1.0;"/><text fill="#000000" font-family="sans-serif" font-size="13" lengthAdjust="spacingAndGlyphs" textLength="8" x="866.1777" y="231.2505">1</text><text fill="#000000" font-family="sans-serif" font-size="13" lengthAdjust="spacingAndGlyphs" textLength="7" x="977.0168" y="256.4052">*</text><!--MD5=[ee5cdb86952061814b872f7cb6de11d1]
@startuml
hide methods
left to right direction


class AreaAtividade {
  -String codigo
  -String descBreve
  -String descDetalhada
 


class Organizacao {
  -String nome
  -String NIF
  -String website
  -String telefone
  -String email
}

class Colaborador {
  -String nome
  -String funcao
  -String telefone
  -String email
}





class Utilizador {
  -String nome
  -String email
  -String password
}
class Tarefa {
  -String referencia
  -String designacaçao
  -String descricaoInformal
  -String descricaoTecnica
  -String duracao
  -double custo
  -String categoria
}
class CategoriadeTarefa {
-String descricao 

class competenciaTecnicaObrigatoriaOpcional {
-boolean competenciaObrigatoria
-boolean competenciaOpcional
}


Colaborador "1" - - "1" Utilizador: atua como >
Colaborador "1" - - "*" Tarefa: define >  
Colaborador "1" - - "1" Organizacao: trabalha para >
Tarefa "1" - - "1" CategoriadeTarefa : possui >
CategoriadeTarefa "1" - - "*" AreaAtividade : referente >
CategoriadeTarefa "1" - - "*" CompetenciaTecnica : referente >
@enduml

PlantUML version 1.2020.02(Sun Mar 01 10:22:07 UTC 2020)
(GPL source distribution)
Java Runtime: Java(TM) SE Runtime Environment
JVM: Java HotSpot(TM) 64-Bit Server VM
Java Version: 1.7.0_25-b15
Operating System: Linux
Default Encoding: UTF-8
Language: en
Country: US
--></g></svg>