<?xml version="1.0" encoding="UTF-8" standalone="no"?><svg xmlns="http://www.w3.org/2000/svg" xmlns:xlink="http://www.w3.org/1999/xlink" contentScriptType="application/ecmascript" contentStyleType="text/css" height="261px" preserveAspectRatio="none" style="width:1153px;height:261px;" version="1.1" viewBox="0 0 1153 261" width="1153px" zoomAndPan="magnify"><defs><filter height="300%" id="fc51ikdrbhrpo" width="300%" x="-1" y="-1"><feGaussianBlur result="blurOut" stdDeviation="2.0"/><feColorMatrix in="blurOut" result="blurOut2" type="matrix" values="0 0 0 0 0 0 0 0 0 0 0 0 0 0 0 0 0 0 .4 0"/><feOffset dx="4.0" dy="4.0" in="blurOut2" result="blurOut3"/><feBlend in="SourceGraphic" in2="blurOut3" mode="normal"/></filter></defs><g><!--MD5=[ecaed46f78f8cfe1e9ce18477649be18]
class Plataforma--><rect fill="#FEFECE" filter="url(#fc51ikdrbhrpo)" height="52.8047" id="Plataforma" style="stroke: #A80036; stroke-width: 1.5;" width="129" x="6" y="69.5"/><ellipse cx="34.05" cy="85.5" fill="#ADD1B2" rx="11" ry="11" style="stroke: #A80036; stroke-width: 1.0;"/><path d="M36.3938,81.1719 L36.5656,81.25 C36.7844,80.9375 36.9875,80.8438 37.2844,80.8438 C37.5813,80.8438 37.8625,80.9844 38.0188,81.25 C38.1125,81.4063 38.1281,81.5313 38.1281,81.9688 L38.1281,83.3906 C38.1281,83.8125 38.0969,84 37.9875,84.1563 C37.8156,84.375 37.55,84.5156 37.2844,84.5156 C37.0656,84.5156 36.8313,84.4063 36.6906,84.2656 C36.55,84.1406 36.5188,84.0156 36.4563,83.6094 C36.3625,83.2031 36.1906,82.9844 35.7063,82.7031 C35.2375,82.4531 34.6281,82.2969 34.05,82.2969 C32.3156,82.2969 31.0656,83.6094 31.0656,85.3906 L31.0656,86.4844 C31.0656,88.1875 32.3625,89.2813 34.4094,89.2813 C35.175,89.2813 35.8625,89.1563 36.2844,88.8906 C36.4719,88.7969 36.4719,88.7969 36.925,88.3125 C37.1125,88.125 37.3156,88.0469 37.5344,88.0469 C38.0031,88.0469 38.3938,88.4375 38.3938,88.8906 C38.3938,89.2813 38.0656,89.7344 37.4875,90.1406 C36.7375,90.6875 35.5813,90.9844 34.3625,90.9844 C31.4719,90.9844 29.3625,89.0938 29.3625,86.5156 L29.3625,85.3906 C29.3625,82.6719 31.3625,80.5938 33.9875,80.5938 C34.8625,80.5938 35.4563,80.7344 36.3938,81.1719 Z "/><text fill="#000000" font-family="sans-serif" font-size="12" lengthAdjust="spacingAndGlyphs" textLength="68" x="50.95" y="89.6543">Plataforma</text><line style="stroke: #A80036; stroke-width: 1.5;" x1="7" x2="134" y1="101.5" y2="101.5"/><rect fill="none" height="6" style="stroke: #C82930; stroke-width: 1.0;" width="6" x="14" y="109.5"/><text fill="#000000" font-family="sans-serif" font-size="11" lengthAdjust="spacingAndGlyphs" textLength="103" x="26" y="115.7104">String designacao</text><!--MD5=[ac8682ea5466d223e49472789fb200d2]
class Colaborador--><rect fill="#FEFECE" filter="url(#fc51ikdrbhrpo)" height="91.2188" id="Colaborador" style="stroke: #A80036; stroke-width: 1.5;" width="110" x="307" y="50.5"/><ellipse cx="322.45" cy="66.5" fill="#ADD1B2" rx="11" ry="11" style="stroke: #A80036; stroke-width: 1.0;"/><path d="M324.7938,62.1719 L324.9656,62.25 C325.1844,61.9375 325.3875,61.8438 325.6844,61.8438 C325.9813,61.8438 326.2625,61.9844 326.4188,62.25 C326.5125,62.4063 326.5281,62.5313 326.5281,62.9688 L326.5281,64.3906 C326.5281,64.8125 326.4969,65 326.3875,65.1563 C326.2156,65.375 325.95,65.5156 325.6844,65.5156 C325.4656,65.5156 325.2313,65.4063 325.0906,65.2656 C324.95,65.1406 324.9188,65.0156 324.8563,64.6094 C324.7625,64.2031 324.5906,63.9844 324.1063,63.7031 C323.6375,63.4531 323.0281,63.2969 322.45,63.2969 C320.7156,63.2969 319.4656,64.6094 319.4656,66.3906 L319.4656,67.4844 C319.4656,69.1875 320.7625,70.2813 322.8094,70.2813 C323.575,70.2813 324.2625,70.1563 324.6844,69.8906 C324.8719,69.7969 324.8719,69.7969 325.325,69.3125 C325.5125,69.125 325.7156,69.0469 325.9344,69.0469 C326.4031,69.0469 326.7938,69.4375 326.7938,69.8906 C326.7938,70.2813 326.4656,70.7344 325.8875,71.1406 C325.1375,71.6875 323.9813,71.9844 322.7625,71.9844 C319.8719,71.9844 317.7625,70.0938 317.7625,67.5156 L317.7625,66.3906 C317.7625,63.6719 319.7625,61.5938 322.3875,61.5938 C323.2625,61.5938 323.8563,61.7344 324.7938,62.1719 Z "/><text fill="#000000" font-family="sans-serif" font-size="12" lengthAdjust="spacingAndGlyphs" textLength="77" x="336.55" y="70.6543">Colaborador</text><line style="stroke: #A80036; stroke-width: 1.5;" x1="308" x2="416" y1="82.5" y2="82.5"/><rect fill="none" height="6" style="stroke: #C82930; stroke-width: 1.0;" width="6" x="315" y="90.5"/><text fill="#000000" font-family="sans-serif" font-size="11" lengthAdjust="spacingAndGlyphs" textLength="70" x="327" y="96.7104">String nome</text><rect fill="none" height="6" style="stroke: #C82930; stroke-width: 1.0;" width="6" x="315" y="103.3047"/><text fill="#000000" font-family="sans-serif" font-size="11" lengthAdjust="spacingAndGlyphs" textLength="76" x="327" y="109.5151">String funcao</text><rect fill="none" height="6" style="stroke: #C82930; stroke-width: 1.0;" width="6" x="315" y="116.1094"/><text fill="#000000" font-family="sans-serif" font-size="11" lengthAdjust="spacingAndGlyphs" textLength="84" x="327" y="122.3198">String telefone</text><rect fill="none" height="6" style="stroke: #C82930; stroke-width: 1.0;" width="6" x="315" y="128.9141"/><text fill="#000000" font-family="sans-serif" font-size="11" lengthAdjust="spacingAndGlyphs" textLength="69" x="327" y="135.1245">String email</text><!--MD5=[5dd1d6732c071e710b9290b531f2fa3b]
class Utilizador--><rect fill="#FEFECE" filter="url(#fc51ikdrbhrpo)" height="78.4141" id="Utilizador" style="stroke: #A80036; stroke-width: 1.5;" width="120" x="584" y="8"/><ellipse cx="612.95" cy="24" fill="#ADD1B2" rx="11" ry="11" style="stroke: #A80036; stroke-width: 1.0;"/><path d="M615.2938,19.6719 L615.4656,19.75 C615.6844,19.4375 615.8875,19.3438 616.1844,19.3438 C616.4813,19.3438 616.7625,19.4844 616.9188,19.75 C617.0125,19.9063 617.0281,20.0313 617.0281,20.4688 L617.0281,21.8906 C617.0281,22.3125 616.9969,22.5 616.8875,22.6563 C616.7156,22.875 616.45,23.0156 616.1844,23.0156 C615.9656,23.0156 615.7313,22.9063 615.5906,22.7656 C615.45,22.6406 615.4188,22.5156 615.3563,22.1094 C615.2625,21.7031 615.0906,21.4844 614.6063,21.2031 C614.1375,20.9531 613.5281,20.7969 612.95,20.7969 C611.2156,20.7969 609.9656,22.1094 609.9656,23.8906 L609.9656,24.9844 C609.9656,26.6875 611.2625,27.7813 613.3094,27.7813 C614.075,27.7813 614.7625,27.6563 615.1844,27.3906 C615.3719,27.2969 615.3719,27.2969 615.825,26.8125 C616.0125,26.625 616.2156,26.5469 616.4344,26.5469 C616.9031,26.5469 617.2938,26.9375 617.2938,27.3906 C617.2938,27.7813 616.9656,28.2344 616.3875,28.6406 C615.6375,29.1875 614.4813,29.4844 613.2625,29.4844 C610.3719,29.4844 608.2625,27.5938 608.2625,25.0156 L608.2625,23.8906 C608.2625,21.1719 610.2625,19.0938 612.8875,19.0938 C613.7625,19.0938 614.3563,19.2344 615.2938,19.6719 Z "/><text fill="#000000" font-family="sans-serif" font-size="12" lengthAdjust="spacingAndGlyphs" textLength="57" x="630.05" y="28.1543">Utilizador</text><line style="stroke: #A80036; stroke-width: 1.5;" x1="585" x2="703" y1="40" y2="40"/><rect fill="none" height="6" style="stroke: #C82930; stroke-width: 1.0;" width="6" x="592" y="48"/><text fill="#000000" font-family="sans-serif" font-size="11" lengthAdjust="spacingAndGlyphs" textLength="70" x="604" y="54.2104">String nome</text><rect fill="none" height="6" style="stroke: #C82930; stroke-width: 1.0;" width="6" x="592" y="60.8047"/><text fill="#000000" font-family="sans-serif" font-size="11" lengthAdjust="spacingAndGlyphs" textLength="69" x="604" y="67.0151">String email</text><rect fill="none" height="6" style="stroke: #C82930; stroke-width: 1.0;" width="6" x="592" y="73.6094"/><text fill="#000000" font-family="sans-serif" font-size="11" lengthAdjust="spacingAndGlyphs" textLength="94" x="604" y="79.8198">String password</text><!--MD5=[27c2d4bbe9f7b9d3b0ea2797cc54308a]
class Tarefa--><rect fill="#FEFECE" filter="url(#fc51ikdrbhrpo)" height="129.6328" id="Tarefa" style="stroke: #A80036; stroke-width: 1.5;" width="166" x="561" y="121"/><ellipse cx="619.75" cy="137" fill="#ADD1B2" rx="11" ry="11" style="stroke: #A80036; stroke-width: 1.0;"/><path d="M622.0938,132.6719 L622.2656,132.75 C622.4844,132.4375 622.6875,132.3438 622.9844,132.3438 C623.2813,132.3438 623.5625,132.4844 623.7188,132.75 C623.8125,132.9063 623.8281,133.0313 623.8281,133.4688 L623.8281,134.8906 C623.8281,135.3125 623.7969,135.5 623.6875,135.6563 C623.5156,135.875 623.25,136.0156 622.9844,136.0156 C622.7656,136.0156 622.5313,135.9063 622.3906,135.7656 C622.25,135.6406 622.2188,135.5156 622.1563,135.1094 C622.0625,134.7031 621.8906,134.4844 621.4063,134.2031 C620.9375,133.9531 620.3281,133.7969 619.75,133.7969 C618.0156,133.7969 616.7656,135.1094 616.7656,136.8906 L616.7656,137.9844 C616.7656,139.6875 618.0625,140.7813 620.1094,140.7813 C620.875,140.7813 621.5625,140.6563 621.9844,140.3906 C622.1719,140.2969 622.1719,140.2969 622.625,139.8125 C622.8125,139.625 623.0156,139.5469 623.2344,139.5469 C623.7031,139.5469 624.0938,139.9375 624.0938,140.3906 C624.0938,140.7813 623.7656,141.2344 623.1875,141.6406 C622.4375,142.1875 621.2813,142.4844 620.0625,142.4844 C617.1719,142.4844 615.0625,140.5938 615.0625,138.0156 L615.0625,136.8906 C615.0625,134.1719 617.0625,132.0938 619.6875,132.0938 C620.5625,132.0938 621.1563,132.2344 622.0938,132.6719 Z "/><text fill="#000000" font-family="sans-serif" font-size="12" lengthAdjust="spacingAndGlyphs" textLength="40" x="640.25" y="141.1543">Tarefa</text><line style="stroke: #A80036; stroke-width: 1.5;" x1="562" x2="726" y1="153" y2="153"/><rect fill="none" height="6" style="stroke: #C82930; stroke-width: 1.0;" width="6" x="569" y="161"/><text fill="#000000" font-family="sans-serif" font-size="11" lengthAdjust="spacingAndGlyphs" textLength="96" x="581" y="167.2104">String referencia</text><rect fill="none" height="6" style="stroke: #C82930; stroke-width: 1.0;" width="6" x="569" y="173.8047"/><text fill="#000000" font-family="sans-serif" font-size="11" lengthAdjust="spacingAndGlyphs" textLength="116" x="581" y="180.0151">String designacaçao</text><rect fill="none" height="6" style="stroke: #C82930; stroke-width: 1.0;" width="6" x="569" y="186.6094"/><text fill="#000000" font-family="sans-serif" font-size="11" lengthAdjust="spacingAndGlyphs" textLength="140" x="581" y="192.8198">String descricaoInformal</text><rect fill="none" height="6" style="stroke: #C82930; stroke-width: 1.0;" width="6" x="569" y="199.4141"/><text fill="#000000" font-family="sans-serif" font-size="11" lengthAdjust="spacingAndGlyphs" textLength="136" x="581" y="205.6245">String descricaoTecnica</text><rect fill="none" height="6" style="stroke: #C82930; stroke-width: 1.0;" width="6" x="569" y="212.2188"/><text fill="#000000" font-family="sans-serif" font-size="11" lengthAdjust="spacingAndGlyphs" textLength="84" x="581" y="218.4292">String duracao</text><rect fill="none" height="6" style="stroke: #C82930; stroke-width: 1.0;" width="6" x="569" y="225.0234"/><text fill="#000000" font-family="sans-serif" font-size="11" lengthAdjust="spacingAndGlyphs" textLength="73" x="581" y="231.2339">double custo</text><rect fill="none" height="6" style="stroke: #C82930; stroke-width: 1.0;" width="6" x="569" y="237.8281"/><text fill="#000000" font-family="sans-serif" font-size="11" lengthAdjust="spacingAndGlyphs" textLength="91" x="581" y="244.0386">String categoria</text><!--MD5=[908ebdac55ea5aeb42bf769c37b68b16]
class CategoriadeTarefa--><rect fill="#FEFECE" filter="url(#fc51ikdrbhrpo)" height="91.2188" id="CategoriadeTarefa" style="stroke: #A80036; stroke-width: 1.5;" width="299" x="843" y="140.5"/><ellipse cx="929.75" cy="156.5" fill="#ADD1B2" rx="11" ry="11" style="stroke: #A80036; stroke-width: 1.0;"/><path d="M932.0938,152.1719 L932.2656,152.25 C932.4844,151.9375 932.6875,151.8438 932.9844,151.8438 C933.2813,151.8438 933.5625,151.9844 933.7188,152.25 C933.8125,152.4063 933.8281,152.5313 933.8281,152.9688 L933.8281,154.3906 C933.8281,154.8125 933.7969,155 933.6875,155.1563 C933.5156,155.375 933.25,155.5156 932.9844,155.5156 C932.7656,155.5156 932.5313,155.4063 932.3906,155.2656 C932.25,155.1406 932.2188,155.0156 932.1563,154.6094 C932.0625,154.2031 931.8906,153.9844 931.4063,153.7031 C930.9375,153.4531 930.3281,153.2969 929.75,153.2969 C928.0156,153.2969 926.7656,154.6094 926.7656,156.3906 L926.7656,157.4844 C926.7656,159.1875 928.0625,160.2813 930.1094,160.2813 C930.875,160.2813 931.5625,160.1563 931.9844,159.8906 C932.1719,159.7969 932.1719,159.7969 932.625,159.3125 C932.8125,159.125 933.0156,159.0469 933.2344,159.0469 C933.7031,159.0469 934.0938,159.4375 934.0938,159.8906 C934.0938,160.2813 933.7656,160.7344 933.1875,161.1406 C932.4375,161.6875 931.2813,161.9844 930.0625,161.9844 C927.1719,161.9844 925.0625,160.0938 925.0625,157.5156 L925.0625,156.3906 C925.0625,153.6719 927.0625,151.5938 929.6875,151.5938 C930.5625,151.5938 931.1563,151.7344 932.0938,152.1719 Z "/><text fill="#000000" font-family="sans-serif" font-size="12" lengthAdjust="spacingAndGlyphs" textLength="117" x="950.25" y="160.6543">CategoriadeTarefa</text><line style="stroke: #A80036; stroke-width: 1.5;" x1="844" x2="1141" y1="172.5" y2="172.5"/><rect fill="none" height="6" style="stroke: #C82930; stroke-width: 1.0;" width="6" x="851" y="180.5"/><text fill="#000000" font-family="sans-serif" font-size="11" lengthAdjust="spacingAndGlyphs" textLength="93" x="863" y="186.7104">String descricao</text><text fill="#000000" font-family="sans-serif" font-size="11" lengthAdjust="spacingAndGlyphs" textLength="273" x="863" y="199.5151">class competenciaTecnicaObrigatoriaOpcional {</text><rect fill="none" height="6" style="stroke: #C82930; stroke-width: 1.0;" width="6" x="851" y="206.1094"/><text fill="#000000" font-family="sans-serif" font-size="11" lengthAdjust="spacingAndGlyphs" textLength="185" x="863" y="212.3198">boolean competenciaObrigatoria</text><rect fill="none" height="6" style="stroke: #C82930; stroke-width: 1.0;" width="6" x="851" y="218.9141"/><text fill="#000000" font-family="sans-serif" font-size="11" lengthAdjust="spacingAndGlyphs" textLength="170" x="863" y="225.1245">boolean competenciaOpcional</text><!--MD5=[2515147de0c32f839eb301d34face28c]
link Plataforma to Colaborador--><path d="M135.032,96 C186.463,96 258.12,96 306.856,96 " fill="none" id="Plataforma-Colaborador" style="stroke: #A80036; stroke-width: 1.0;"/><text fill="#000000" font-family="sans-serif" font-size="13" lengthAdjust="spacingAndGlyphs" textLength="97" x="166" y="92.0669">tem registadas</text><polygon fill="#000000" points="266,86.0664,272,89.0664,266,92.0664,266,86.0664" style="stroke: #000000; stroke-width: 1.0;"/><text fill="#000000" font-family="sans-serif" font-size="13" lengthAdjust="spacingAndGlyphs" textLength="8" x="142.956" y="108.9531">1</text><text fill="#000000" font-family="sans-serif" font-size="13" lengthAdjust="spacingAndGlyphs" textLength="7" x="291.9757" y="109.0689">*</text><!--MD5=[bcb5794e8184ce78d304f04a5beabbc0]
link Colaborador to Utilizador--><path d="M417.319,86.494 C465.188,78.117 534.772,65.94 583.995,57.326 " fill="none" id="Colaborador-Utilizador" style="stroke: #A80036; stroke-width: 1.0;"/><text fill="#000000" font-family="sans-serif" font-size="13" lengthAdjust="spacingAndGlyphs" textLength="69" x="448" y="64.0669">atua como</text><polygon fill="#000000" points="520,58.0664,526,61.0664,520,64.0664,520,58.0664" style="stroke: #000000; stroke-width: 1.0;"/><text fill="#000000" font-family="sans-serif" font-size="13" lengthAdjust="spacingAndGlyphs" textLength="8" x="424.9192" y="98.2984">1</text><text fill="#000000" font-family="sans-serif" font-size="13" lengthAdjust="spacingAndGlyphs" textLength="8" x="568.1944" y="71.5483">1</text><!--MD5=[adb361c9f58e7cbfc456d56136f96fa3]
link Colaborador to Tarefa--><path d="M417.319,113.46 C458.111,126.571 514.672,144.752 560.965,159.6315 " fill="none" id="Colaborador-Tarefa" style="stroke: #A80036; stroke-width: 1.0;"/><text fill="#000000" font-family="sans-serif" font-size="13" lengthAdjust="spacingAndGlyphs" textLength="39" x="463" y="122.0669">define</text><polygon fill="#000000" points="505,116.0664,511,119.0664,505,122.0664,505,116.0664" style="stroke: #000000; stroke-width: 1.0;"/><text fill="#000000" font-family="sans-serif" font-size="13" lengthAdjust="spacingAndGlyphs" textLength="8" x="424.9192" y="128.7194">1</text><text fill="#000000" font-family="sans-serif" font-size="13" lengthAdjust="spacingAndGlyphs" textLength="7" x="545.9876" y="169.982">*</text><!--MD5=[f216871d5392bc3af076dc2081c16bd2]
link Tarefa to CategoriadeTarefa--><path d="M727.116,186 C761.738,186 803.147,186 842.805,186 " fill="none" id="Tarefa-CategoriadeTarefa" style="stroke: #A80036; stroke-width: 1.0;"/><text fill="#000000" font-family="sans-serif" font-size="13" lengthAdjust="spacingAndGlyphs" textLength="41" x="758" y="182.0669">possui</text><polygon fill="#000000" points="802,176.0664,808,179.0664,802,182.0664,802,176.0664" style="stroke: #000000; stroke-width: 1.0;"/><text fill="#000000" font-family="sans-serif" font-size="13" lengthAdjust="spacingAndGlyphs" textLength="8" x="734.8748" y="198.7571">1</text><text fill="#000000" font-family="sans-serif" font-size="13" lengthAdjust="spacingAndGlyphs" textLength="8" x="826.8801" y="198.4514">1</text><!--MD5=[590b3e15b7b48bdbec9ac0ffaeb7f286]
@startuml
hide methods
left to right direction


 class Plataforma {
  -String designacao
}



class Colaborador {
  -String nome
  -String funcao
  -String telefone
  -String email
}





class Utilizador {
  -String nome
  -String email
  -String password
}
class Tarefa {
  -String referencia
  -String designacaçao
  -String descricaoInformal
  -String descricaoTecnica
  -String duracao
  -double custo
  -String categoria
}
class CategoriadeTarefa {
-String descricao 
class competenciaTecnicaObrigatoriaOpcional {
-boolean competenciaObrigatoria
-boolean competenciaOpcional
}

Plataforma "1" - - "*" Colaborador : tem registadas >
Colaborador "1" - - "1" Utilizador: atua como >
Colaborador "1" - - "*" Tarefa: define >  



Tarefa "1" - - "1" CategoriadeTarefa : possui >
@enduml

PlantUML version 1.2020.03beta11(Unknown compile time)
(GPL source distribution)
Java Runtime: Java(TM) SE Runtime Environment
JVM: Java HotSpot(TM) 64-Bit Server VM
Java Version: 1.7.0_25-b15
Operating System: Linux
Default Encoding: UTF-8
Language: en
Country: US
--></g></svg>