<?xml version="1.0" encoding="UTF-8" standalone="no"?><svg xmlns="http://www.w3.org/2000/svg" xmlns:xlink="http://www.w3.org/1999/xlink" contentScriptType="application/ecmascript" contentStyleType="text/css" height="526px" preserveAspectRatio="none" style="width:374px;height:526px;" version="1.1" viewBox="0 0 374 526" width="374px" zoomAndPan="magnify"><defs><filter height="300%" id="f1f242gswu36o" width="300%" x="-1" y="-1"><feGaussianBlur result="blurOut" stdDeviation="2.0"/><feColorMatrix in="blurOut" result="blurOut2" type="matrix" values="0 0 0 0 0 0 0 0 0 0 0 0 0 0 0 0 0 0 .4 0"/><feOffset dx="4.0" dy="4.0" in="blurOut2" result="blurOut3"/><feBlend in="SourceGraphic" in2="blurOut3" mode="normal"/></filter></defs><g><!--MD5=[ac8682ea5466d223e49472789fb200d2]
class Colaborador--><rect fill="#FEFECE" filter="url(#f1f242gswu36o)" height="137.6328" id="Colaborador" style="stroke: #A80036; stroke-width: 1.5;" width="218" x="6" y="154"/><ellipse cx="72.25" cy="170" fill="#ADD1B2" rx="11" ry="11" style="stroke: #A80036; stroke-width: 1.0;"/><path d="M74.5938,165.6719 L74.7656,165.75 C74.9844,165.4375 75.1875,165.3438 75.4844,165.3438 C75.7813,165.3438 76.0625,165.4844 76.2188,165.75 C76.3125,165.9063 76.3281,166.0313 76.3281,166.4688 L76.3281,167.8906 C76.3281,168.3125 76.2969,168.5 76.1875,168.6563 C76.0156,168.875 75.75,169.0156 75.4844,169.0156 C75.2656,169.0156 75.0313,168.9063 74.8906,168.7656 C74.75,168.6406 74.7188,168.5156 74.6563,168.1094 C74.5625,167.7031 74.3906,167.4844 73.9063,167.2031 C73.4375,166.9531 72.8281,166.7969 72.25,166.7969 C70.5156,166.7969 69.2656,168.1094 69.2656,169.8906 L69.2656,170.9844 C69.2656,172.6875 70.5625,173.7813 72.6094,173.7813 C73.375,173.7813 74.0625,173.6563 74.4844,173.3906 C74.6719,173.2969 74.6719,173.2969 75.125,172.8125 C75.3125,172.625 75.5156,172.5469 75.7344,172.5469 C76.2031,172.5469 76.5938,172.9375 76.5938,173.3906 C76.5938,173.7813 76.2656,174.2344 75.6875,174.6406 C74.9375,175.1875 73.7813,175.4844 72.5625,175.4844 C69.6719,175.4844 67.5625,173.5938 67.5625,171.0156 L67.5625,169.8906 C67.5625,167.1719 69.5625,165.0938 72.1875,165.0938 C73.0625,165.0938 73.6563,165.2344 74.5938,165.6719 Z "/><text fill="#000000" font-family="sans-serif" font-size="12" lengthAdjust="spacingAndGlyphs" textLength="77" x="92.75" y="174.1543">Colaborador</text><line style="stroke: #A80036; stroke-width: 1.5;" x1="7" x2="223" y1="186" y2="186"/><rect fill="none" height="6" style="stroke: #C82930; stroke-width: 1.0;" width="6" x="14" y="194"/><text fill="#000000" font-family="sans-serif" font-size="11" lengthAdjust="spacingAndGlyphs" textLength="70" x="26" y="200.2104">String nome</text><rect fill="none" height="6" style="stroke: #C82930; stroke-width: 1.0;" width="6" x="14" y="206.8047"/><text fill="#000000" font-family="sans-serif" font-size="11" lengthAdjust="spacingAndGlyphs" textLength="76" x="26" y="213.0151">String funcao</text><rect fill="none" height="6" style="stroke: #C82930; stroke-width: 1.0;" width="6" x="14" y="219.6094"/><text fill="#000000" font-family="sans-serif" font-size="11" lengthAdjust="spacingAndGlyphs" textLength="84" x="26" y="225.8198">String telefone</text><rect fill="none" height="6" style="stroke: #C82930; stroke-width: 1.0;" width="6" x="14" y="232.4141"/><text fill="#000000" font-family="sans-serif" font-size="11" lengthAdjust="spacingAndGlyphs" textLength="69" x="26" y="238.6245">String email</text><line style="stroke: #A80036; stroke-width: 1.5;" x1="7" x2="223" y1="245.2188" y2="245.2188"/><text fill="#000000" font-family="sans-serif" font-size="11" lengthAdjust="spacingAndGlyphs" textLength="206" x="12" y="259.4292">Colaborador(nome,função,tlf, email)</text><text fill="#000000" font-family="sans-serif" font-size="11" lengthAdjust="spacingAndGlyphs" textLength="97" x="12" y="272.2339">String getNome()</text><text fill="#000000" font-family="sans-serif" font-size="11" lengthAdjust="spacingAndGlyphs" textLength="95" x="12" y="285.0386">String getEmail()</text><!--MD5=[5dd1d6732c071e710b9290b531f2fa3b]
class Utilizador--><rect fill="#FEFECE" filter="url(#f1f242gswu36o)" height="86.4141" id="Utilizador" style="stroke: #A80036; stroke-width: 1.5;" width="120" x="217" y="8"/><ellipse cx="245.95" cy="24" fill="#ADD1B2" rx="11" ry="11" style="stroke: #A80036; stroke-width: 1.0;"/><path d="M248.2938,19.6719 L248.4656,19.75 C248.6844,19.4375 248.8875,19.3438 249.1844,19.3438 C249.4813,19.3438 249.7625,19.4844 249.9188,19.75 C250.0125,19.9063 250.0281,20.0313 250.0281,20.4688 L250.0281,21.8906 C250.0281,22.3125 249.9969,22.5 249.8875,22.6563 C249.7156,22.875 249.45,23.0156 249.1844,23.0156 C248.9656,23.0156 248.7313,22.9063 248.5906,22.7656 C248.45,22.6406 248.4188,22.5156 248.3563,22.1094 C248.2625,21.7031 248.0906,21.4844 247.6063,21.2031 C247.1375,20.9531 246.5281,20.7969 245.95,20.7969 C244.2156,20.7969 242.9656,22.1094 242.9656,23.8906 L242.9656,24.9844 C242.9656,26.6875 244.2625,27.7813 246.3094,27.7813 C247.075,27.7813 247.7625,27.6563 248.1844,27.3906 C248.3719,27.2969 248.3719,27.2969 248.825,26.8125 C249.0125,26.625 249.2156,26.5469 249.4344,26.5469 C249.9031,26.5469 250.2938,26.9375 250.2938,27.3906 C250.2938,27.7813 249.9656,28.2344 249.3875,28.6406 C248.6375,29.1875 247.4813,29.4844 246.2625,29.4844 C243.3719,29.4844 241.2625,27.5938 241.2625,25.0156 L241.2625,23.8906 C241.2625,21.1719 243.2625,19.0938 245.8875,19.0938 C246.7625,19.0938 247.3563,19.2344 248.2938,19.6719 Z "/><text fill="#000000" font-family="sans-serif" font-size="12" lengthAdjust="spacingAndGlyphs" textLength="57" x="263.05" y="28.1543">Utilizador</text><line style="stroke: #A80036; stroke-width: 1.5;" x1="218" x2="336" y1="40" y2="40"/><rect fill="none" height="6" style="stroke: #C82930; stroke-width: 1.0;" width="6" x="225" y="48"/><text fill="#000000" font-family="sans-serif" font-size="11" lengthAdjust="spacingAndGlyphs" textLength="70" x="237" y="54.2104">String nome</text><rect fill="none" height="6" style="stroke: #C82930; stroke-width: 1.0;" width="6" x="225" y="60.8047"/><text fill="#000000" font-family="sans-serif" font-size="11" lengthAdjust="spacingAndGlyphs" textLength="69" x="237" y="67.0151">String email</text><rect fill="none" height="6" style="stroke: #C82930; stroke-width: 1.0;" width="6" x="225" y="73.6094"/><text fill="#000000" font-family="sans-serif" font-size="11" lengthAdjust="spacingAndGlyphs" textLength="94" x="237" y="79.8198">String password</text><line style="stroke: #A80036; stroke-width: 1.5;" x1="218" x2="336" y1="86.4141" y2="86.4141"/><!--MD5=[94150fb2341829ef7e29c5b8b7a9ec09]
class EspecificarTarefaController--><rect fill="#FEFECE" filter="url(#f1f242gswu36o)" height="163.2422" id="EspecificarTarefaController" style="stroke: #A80036; stroke-width: 1.5;" width="334" x="29" y="352"/><ellipse cx="107.25" cy="368" fill="#ADD1B2" rx="11" ry="11" style="stroke: #A80036; stroke-width: 1.0;"/><path d="M109.5938,363.6719 L109.7656,363.75 C109.9844,363.4375 110.1875,363.3438 110.4844,363.3438 C110.7813,363.3438 111.0625,363.4844 111.2188,363.75 C111.3125,363.9063 111.3281,364.0313 111.3281,364.4688 L111.3281,365.8906 C111.3281,366.3125 111.2969,366.5 111.1875,366.6563 C111.0156,366.875 110.75,367.0156 110.4844,367.0156 C110.2656,367.0156 110.0313,366.9063 109.8906,366.7656 C109.75,366.6406 109.7188,366.5156 109.6563,366.1094 C109.5625,365.7031 109.3906,365.4844 108.9063,365.2031 C108.4375,364.9531 107.8281,364.7969 107.25,364.7969 C105.5156,364.7969 104.2656,366.1094 104.2656,367.8906 L104.2656,368.9844 C104.2656,370.6875 105.5625,371.7813 107.6094,371.7813 C108.375,371.7813 109.0625,371.6563 109.4844,371.3906 C109.6719,371.2969 109.6719,371.2969 110.125,370.8125 C110.3125,370.625 110.5156,370.5469 110.7344,370.5469 C111.2031,370.5469 111.5938,370.9375 111.5938,371.3906 C111.5938,371.7813 111.2656,372.2344 110.6875,372.6406 C109.9375,373.1875 108.7813,373.4844 107.5625,373.4844 C104.6719,373.4844 102.5625,371.5938 102.5625,369.0156 L102.5625,367.8906 C102.5625,365.1719 104.5625,363.0938 107.1875,363.0938 C108.0625,363.0938 108.6563,363.2344 109.5938,363.6719 Z "/><text fill="#000000" font-family="sans-serif" font-size="12" lengthAdjust="spacingAndGlyphs" textLength="169" x="127.75" y="372.1543">EspecificarTarefaController</text><line style="stroke: #A80036; stroke-width: 1.5;" x1="30" x2="362" y1="384" y2="384"/><rect fill="none" height="6" style="stroke: #C82930; stroke-width: 1.0;" width="6" x="37" y="392"/><text fill="#000000" font-family="sans-serif" font-size="11" lengthAdjust="spacingAndGlyphs" textLength="96" x="49" y="398.2104">String referencia</text><rect fill="none" height="6" style="stroke: #C82930; stroke-width: 1.0;" width="6" x="37" y="404.8047"/><text fill="#000000" font-family="sans-serif" font-size="11" lengthAdjust="spacingAndGlyphs" textLength="117" x="49" y="411.0151">String designacaÁao</text><rect fill="none" height="6" style="stroke: #C82930; stroke-width: 1.0;" width="6" x="37" y="417.6094"/><text fill="#000000" font-family="sans-serif" font-size="11" lengthAdjust="spacingAndGlyphs" textLength="140" x="49" y="423.8198">String descricaoInformal</text><rect fill="none" height="6" style="stroke: #C82930; stroke-width: 1.0;" width="6" x="37" y="430.4141"/><text fill="#000000" font-family="sans-serif" font-size="11" lengthAdjust="spacingAndGlyphs" textLength="136" x="49" y="436.6245">String descricaoTecnica</text><rect fill="none" height="6" style="stroke: #C82930; stroke-width: 1.0;" width="6" x="37" y="443.2188"/><text fill="#000000" font-family="sans-serif" font-size="11" lengthAdjust="spacingAndGlyphs" textLength="84" x="49" y="449.4292">String duracao</text><rect fill="none" height="6" style="stroke: #C82930; stroke-width: 1.0;" width="6" x="37" y="456.0234"/><text fill="#000000" font-family="sans-serif" font-size="11" lengthAdjust="spacingAndGlyphs" textLength="73" x="49" y="462.2339">double custo</text><rect fill="none" height="6" style="stroke: #C82930; stroke-width: 1.0;" width="6" x="37" y="468.8281"/><text fill="#000000" font-family="sans-serif" font-size="11" lengthAdjust="spacingAndGlyphs" textLength="91" x="49" y="475.0386">String categoria</text><line style="stroke: #A80036; stroke-width: 1.5;" x1="30" x2="362" y1="481.6328" y2="481.6328"/><text fill="#000000" font-family="sans-serif" font-size="11" lengthAdjust="spacingAndGlyphs" textLength="322" x="35" y="495.8433">novaTarefa(referencia, designacaçao,descricaoInformal,</text><text fill="#000000" font-family="sans-serif" font-size="11" lengthAdjust="spacingAndGlyphs" textLength="256" x="35" y="508.6479">descricaoTecnica, duracao, custo, categoria)</text><!--MD5=[5f895453fcbea4fdc31262dbb2c08f97]
link Utilizador to EspecificarTarefaController--><path d="M273.078,94.031 C268.07,142.268 258.073,223.542 242,292 C237.791,309.929 232.327,328.846 226.643,346.787 " fill="none" id="Utilizador-&gt;EspecificarTarefaController" style="stroke: #A80036; stroke-width: 1.0; stroke-dasharray: 7.0,7.0;"/><polygon fill="#A80036" points="225.035,351.82,231.5839,344.4639,226.5564,347.0571,223.9633,342.0296,225.035,351.82" style="stroke: #A80036; stroke-width: 1.0;"/><!--MD5=[70fce0eff1c419192d018523999d0d55]
link Colaborador to EspecificarTarefaController--><path d="M141.522,292.271 C148.27,309.64 155.608,328.528 162.648,346.65 " fill="none" id="Colaborador-&gt;EspecificarTarefaController" style="stroke: #A80036; stroke-width: 1.0; stroke-dasharray: 7.0,7.0;"/><polygon fill="#A80036" points="164.625,351.739,165.0961,341.9014,162.8152,347.078,157.6386,344.7971,164.625,351.739" style="stroke: #A80036; stroke-width: 1.0;"/><!--MD5=[796b11d09879449b66048a2a93c9e067]
@startuml
class Colaborador {
  -String nome
  -String funcao
  -String telefone
  -String email
  Colaborador(nome,função,tlf, email)
  String getNome()
  String getEmail()
}
class Utilizador {
  -String nome
  -String email
  -String password
}
class EspecificarTarefaController {
  -String referencia
  -String designacaÁao
  -String descricaoInformal
  -String descricaoTecnica
  -String duracao
  -double custo
  -String categoria
  
  novaTarefa(referencia, designacaçao,descricaoInformal,
descricaoTecnica, duracao, custo, categoria)
}



Utilizador ...> EspecificarTarefaController


Colaborador ..> EspecificarTarefaController
@enduml

PlantUML version 1.2020.06beta1(Unknown compile time)
(GPL source distribution)
Java Runtime: Java(TM) SE Runtime Environment
JVM: Java HotSpot(TM) 64-Bit Server VM
Java Version: 1.7.0_25-b15
Operating System: Linux
Default Encoding: UTF-8
Language: en
Country: US
--></g></svg>