<?xml version="1.0" encoding="UTF-8" standalone="no"?><svg xmlns="http://www.w3.org/2000/svg" xmlns:xlink="http://www.w3.org/1999/xlink" contentScriptType="application/ecmascript" contentStyleType="text/css" height="462px" preserveAspectRatio="none" style="width:1724px;height:462px;" version="1.1" viewBox="0 0 1724 462" width="1724px" zoomAndPan="magnify"><defs><filter height="300%" id="f1nri8lj4rnwsj" width="300%" x="-1" y="-1"><feGaussianBlur result="blurOut" stdDeviation="2.0"/><feColorMatrix in="blurOut" result="blurOut2" type="matrix" values="0 0 0 0 0 0 0 0 0 0 0 0 0 0 0 0 0 0 .4 0"/><feOffset dx="4.0" dy="4.0" in="blurOut2" result="blurOut3"/><feBlend in="SourceGraphic" in2="blurOut3" mode="normal"/></filter></defs><g><!--MD5=[ecaed46f78f8cfe1e9ce18477649be18]
class Plataforma--><rect fill="#FEFECE" filter="url(#f1nri8lj4rnwsj)" height="52.8047" id="Plataforma" style="stroke: #A80036; stroke-width: 1.5;" width="120" x="6" y="155.5"/><ellipse cx="30" cy="171.5" fill="#ADD1B2" rx="11" ry="11" style="stroke: #A80036; stroke-width: 1.0;"/><path d="M32.3438,167.1719 C31.4063,166.7344 30.8125,166.5938 29.9375,166.5938 C27.3125,166.5938 25.3125,168.6719 25.3125,171.3906 L25.3125,172.5156 C25.3125,175.0938 27.4219,176.9844 30.3125,176.9844 C31.5313,176.9844 32.6875,176.6875 33.4375,176.1406 C34.0156,175.7344 34.3438,175.2813 34.3438,174.8906 C34.3438,174.4375 33.9531,174.0469 33.4844,174.0469 C33.2656,174.0469 33.0625,174.125 32.875,174.3125 C32.4219,174.7969 32.4219,174.7969 32.2344,174.8906 C31.8125,175.1563 31.125,175.2813 30.3594,175.2813 C28.3125,175.2813 27.0156,174.1875 27.0156,172.4844 L27.0156,171.3906 C27.0156,169.6094 28.2656,168.2969 30,168.2969 C30.5781,168.2969 31.1875,168.4531 31.6563,168.7031 C32.1406,168.9844 32.3125,169.2031 32.4063,169.6094 C32.4688,170.0156 32.5,170.1406 32.6406,170.2656 C32.7813,170.4063 33.0156,170.5156 33.2344,170.5156 C33.5,170.5156 33.7656,170.375 33.9375,170.1563 C34.0469,170 34.0781,169.8125 34.0781,169.3906 L34.0781,167.9688 C34.0781,167.5313 34.0625,167.4063 33.9688,167.25 C33.8125,166.9844 33.5313,166.8438 33.2344,166.8438 C32.9375,166.8438 32.7344,166.9375 32.5156,167.25 L32.3438,167.1719 Z "/><text fill="#000000" font-family="sans-serif" font-size="12" lengthAdjust="spacingAndGlyphs" textLength="68" x="46" y="175.6543">Plataforma</text><line style="stroke: #A80036; stroke-width: 1.5;" x1="7" x2="125" y1="187.5" y2="187.5"/><text fill="#000000" font-family="sans-serif" font-size="11" lengthAdjust="spacingAndGlyphs" textLength="108" x="12" y="201.7104">-String designacao</text><!--MD5=[1f687b5315377fe49fca59b457947463]
class Freelancer--><rect fill="#FEFECE" filter="url(#f1nri8lj4rnwsj)" height="116.8281" id="Freelancer" style="stroke: #A80036; stroke-width: 1.5;" width="362" x="468" y="123.5"/><ellipse cx="611.75" cy="139.5" fill="#ADD1B2" rx="11" ry="11" style="stroke: #A80036; stroke-width: 1.0;"/><path d="M614.0938,135.1719 C613.1563,134.7344 612.5625,134.5938 611.6875,134.5938 C609.0625,134.5938 607.0625,136.6719 607.0625,139.3906 L607.0625,140.5156 C607.0625,143.0938 609.1719,144.9844 612.0625,144.9844 C613.2813,144.9844 614.4375,144.6875 615.1875,144.1406 C615.7656,143.7344 616.0938,143.2813 616.0938,142.8906 C616.0938,142.4375 615.7031,142.0469 615.2344,142.0469 C615.0156,142.0469 614.8125,142.125 614.625,142.3125 C614.1719,142.7969 614.1719,142.7969 613.9844,142.8906 C613.5625,143.1563 612.875,143.2813 612.1094,143.2813 C610.0625,143.2813 608.7656,142.1875 608.7656,140.4844 L608.7656,139.3906 C608.7656,137.6094 610.0156,136.2969 611.75,136.2969 C612.3281,136.2969 612.9375,136.4531 613.4063,136.7031 C613.8906,136.9844 614.0625,137.2031 614.1563,137.6094 C614.2188,138.0156 614.25,138.1406 614.3906,138.2656 C614.5313,138.4063 614.7656,138.5156 614.9844,138.5156 C615.25,138.5156 615.5156,138.375 615.6875,138.1563 C615.7969,138 615.8281,137.8125 615.8281,137.3906 L615.8281,135.9688 C615.8281,135.5313 615.8125,135.4063 615.7188,135.25 C615.5625,134.9844 615.2813,134.8438 614.9844,134.8438 C614.6875,134.8438 614.4844,134.9375 614.2656,135.25 L614.0938,135.1719 Z "/><text fill="#000000" font-family="sans-serif" font-size="12" lengthAdjust="spacingAndGlyphs" textLength="66" x="632.25" y="143.6543">Freelancer</text><line style="stroke: #A80036; stroke-width: 1.5;" x1="469" x2="829" y1="155.5" y2="155.5"/><text fill="#000000" font-family="sans-serif" font-size="11" lengthAdjust="spacingAndGlyphs" textLength="76" x="474" y="169.7104">-String Nome</text><text fill="#000000" font-family="sans-serif" font-size="11" lengthAdjust="spacingAndGlyphs" textLength="59" x="474" y="182.5151">-String NIF</text><text fill="#000000" font-family="sans-serif" font-size="11" lengthAdjust="spacingAndGlyphs" textLength="132" x="474" y="195.3198">-String EnderecoPostal</text><text fill="#000000" font-family="sans-serif" font-size="11" lengthAdjust="spacingAndGlyphs" textLength="152" x="474" y="208.1245">-String ContactoTelefonico</text><text fill="#000000" font-family="sans-serif" font-size="11" lengthAdjust="spacingAndGlyphs" textLength="257" x="474" y="220.9292">-HabilitacaoAcademica habilitacaoAcademica</text><text fill="#000000" font-family="sans-serif" font-size="11" lengthAdjust="spacingAndGlyphs" textLength="350" x="474" y="233.7339">-ReconhecimentoCompetencia reconhecimentoCompetencia</text><!--MD5=[87602f047bdeda361e6d6669da197818]
class HabilitacaoAcademica--><rect fill="#FEFECE" filter="url(#f1nri8lj4rnwsj)" height="91.2188" id="HabilitacaoAcademica" style="stroke: #A80036; stroke-width: 1.5;" width="170" x="997.5" y="121.5"/><ellipse cx="1012.5" cy="137.5" fill="#ADD1B2" rx="11" ry="11" style="stroke: #A80036; stroke-width: 1.0;"/><path d="M1014.8438,133.1719 C1013.9063,132.7344 1013.3125,132.5938 1012.4375,132.5938 C1009.8125,132.5938 1007.8125,134.6719 1007.8125,137.3906 L1007.8125,138.5156 C1007.8125,141.0938 1009.9219,142.9844 1012.8125,142.9844 C1014.0313,142.9844 1015.1875,142.6875 1015.9375,142.1406 C1016.5156,141.7344 1016.8438,141.2813 1016.8438,140.8906 C1016.8438,140.4375 1016.4531,140.0469 1015.9844,140.0469 C1015.7656,140.0469 1015.5625,140.125 1015.375,140.3125 C1014.9219,140.7969 1014.9219,140.7969 1014.7344,140.8906 C1014.3125,141.1563 1013.625,141.2813 1012.8594,141.2813 C1010.8125,141.2813 1009.5156,140.1875 1009.5156,138.4844 L1009.5156,137.3906 C1009.5156,135.6094 1010.7656,134.2969 1012.5,134.2969 C1013.0781,134.2969 1013.6875,134.4531 1014.1563,134.7031 C1014.6406,134.9844 1014.8125,135.2031 1014.9063,135.6094 C1014.9688,136.0156 1015,136.1406 1015.1406,136.2656 C1015.2813,136.4063 1015.5156,136.5156 1015.7344,136.5156 C1016,136.5156 1016.2656,136.375 1016.4375,136.1563 C1016.5469,136 1016.5781,135.8125 1016.5781,135.3906 L1016.5781,133.9688 C1016.5781,133.5313 1016.5625,133.4063 1016.4688,133.25 C1016.3125,132.9844 1016.0313,132.8438 1015.7344,132.8438 C1015.4375,132.8438 1015.2344,132.9375 1015.0156,133.25 L1014.8438,133.1719 Z "/><text fill="#000000" font-family="sans-serif" font-size="12" lengthAdjust="spacingAndGlyphs" textLength="138" x="1026.5" y="141.6543">HabilitacaoAcademica</text><line style="stroke: #A80036; stroke-width: 1.5;" x1="998.5" x2="1166.5" y1="153.5" y2="153.5"/><text fill="#000000" font-family="sans-serif" font-size="11" lengthAdjust="spacingAndGlyphs" textLength="130" x="1003.5" y="167.7104">-String grauHabilitacao</text><text fill="#000000" font-family="sans-serif" font-size="11" lengthAdjust="spacingAndGlyphs" textLength="142" x="1003.5" y="180.5151">-String designacaoCurso</text><text fill="#000000" font-family="sans-serif" font-size="11" lengthAdjust="spacingAndGlyphs" textLength="100" x="1003.5" y="193.3198">-String instituicao</text><text fill="#000000" font-family="sans-serif" font-size="11" lengthAdjust="spacingAndGlyphs" textLength="112" x="1003.5" y="206.1245">-String mediaCurso</text><!--MD5=[4443f0e94c733a43dac2ec7eca7d437f]
class ReconhecimentoCompetencia--><rect fill="#FEFECE" filter="url(#f1nri8lj4rnwsj)" height="78.4141" id="ReconhecimentoCompetencia" style="stroke: #A80036; stroke-width: 1.5;" width="217" x="974" y="248"/><ellipse cx="989" cy="264" fill="#ADD1B2" rx="11" ry="11" style="stroke: #A80036; stroke-width: 1.0;"/><path d="M991.3438,259.6719 C990.4063,259.2344 989.8125,259.0938 988.9375,259.0938 C986.3125,259.0938 984.3125,261.1719 984.3125,263.8906 L984.3125,265.0156 C984.3125,267.5938 986.4219,269.4844 989.3125,269.4844 C990.5313,269.4844 991.6875,269.1875 992.4375,268.6406 C993.0156,268.2344 993.3438,267.7813 993.3438,267.3906 C993.3438,266.9375 992.9531,266.5469 992.4844,266.5469 C992.2656,266.5469 992.0625,266.625 991.875,266.8125 C991.4219,267.2969 991.4219,267.2969 991.2344,267.3906 C990.8125,267.6563 990.125,267.7813 989.3594,267.7813 C987.3125,267.7813 986.0156,266.6875 986.0156,264.9844 L986.0156,263.8906 C986.0156,262.1094 987.2656,260.7969 989,260.7969 C989.5781,260.7969 990.1875,260.9531 990.6563,261.2031 C991.1406,261.4844 991.3125,261.7031 991.4063,262.1094 C991.4688,262.5156 991.5,262.6406 991.6406,262.7656 C991.7813,262.9063 992.0156,263.0156 992.2344,263.0156 C992.5,263.0156 992.7656,262.875 992.9375,262.6563 C993.0469,262.5 993.0781,262.3125 993.0781,261.8906 L993.0781,260.4688 C993.0781,260.0313 993.0625,259.9063 992.9688,259.75 C992.8125,259.4844 992.5313,259.3438 992.2344,259.3438 C991.9375,259.3438 991.7344,259.4375 991.5156,259.75 L991.3438,259.6719 Z "/><text fill="#000000" font-family="sans-serif" font-size="12" lengthAdjust="spacingAndGlyphs" textLength="185" x="1003" y="268.1543">ReconhecimentoCompetencia</text><line style="stroke: #A80036; stroke-width: 1.5;" x1="975" x2="1190" y1="280" y2="280"/><text fill="#000000" font-family="sans-serif" font-size="11" lengthAdjust="spacingAndGlyphs" textLength="67" x="980" y="294.2104">-String data</text><text fill="#000000" font-family="sans-serif" font-size="11" lengthAdjust="spacingAndGlyphs" textLength="202" x="980" y="307.0151">-CompetenciaTecnica competencia</text><text fill="#000000" font-family="sans-serif" font-size="11" lengthAdjust="spacingAndGlyphs" textLength="134" x="980" y="319.8198">-String grauProficiencia</text><!--MD5=[a322db5a7ec64d2ff8f2d6cf1831dcec]
class CompetenciaTecnica--><rect fill="#FEFECE" filter="url(#f1nri8lj4rnwsj)" height="78.4141" id="CompetenciaTecnica" style="stroke: #A80036; stroke-width: 1.5;" width="161" x="1307" y="340"/><ellipse cx="1322" cy="356" fill="#ADD1B2" rx="11" ry="11" style="stroke: #A80036; stroke-width: 1.0;"/><path d="M1324.3438,351.6719 C1323.4063,351.2344 1322.8125,351.0938 1321.9375,351.0938 C1319.3125,351.0938 1317.3125,353.1719 1317.3125,355.8906 L1317.3125,357.0156 C1317.3125,359.5938 1319.4219,361.4844 1322.3125,361.4844 C1323.5313,361.4844 1324.6875,361.1875 1325.4375,360.6406 C1326.0156,360.2344 1326.3438,359.7813 1326.3438,359.3906 C1326.3438,358.9375 1325.9531,358.5469 1325.4844,358.5469 C1325.2656,358.5469 1325.0625,358.625 1324.875,358.8125 C1324.4219,359.2969 1324.4219,359.2969 1324.2344,359.3906 C1323.8125,359.6563 1323.125,359.7813 1322.3594,359.7813 C1320.3125,359.7813 1319.0156,358.6875 1319.0156,356.9844 L1319.0156,355.8906 C1319.0156,354.1094 1320.2656,352.7969 1322,352.7969 C1322.5781,352.7969 1323.1875,352.9531 1323.6563,353.2031 C1324.1406,353.4844 1324.3125,353.7031 1324.4063,354.1094 C1324.4688,354.5156 1324.5,354.6406 1324.6406,354.7656 C1324.7813,354.9063 1325.0156,355.0156 1325.2344,355.0156 C1325.5,355.0156 1325.7656,354.875 1325.9375,354.6563 C1326.0469,354.5 1326.0781,354.3125 1326.0781,353.8906 L1326.0781,352.4688 C1326.0781,352.0313 1326.0625,351.9063 1325.9688,351.75 C1325.8125,351.4844 1325.5313,351.3438 1325.2344,351.3438 C1324.9375,351.3438 1324.7344,351.4375 1324.5156,351.75 L1324.3438,351.6719 Z "/><text fill="#000000" font-family="sans-serif" font-size="12" lengthAdjust="spacingAndGlyphs" textLength="129" x="1336" y="360.1543">CompetenciaTecnica</text><line style="stroke: #A80036; stroke-width: 1.5;" x1="1308" x2="1467" y1="372" y2="372"/><text fill="#000000" font-family="sans-serif" font-size="11" lengthAdjust="spacingAndGlyphs" textLength="79" x="1313" y="386.2104">-String codigo</text><text fill="#000000" font-family="sans-serif" font-size="11" lengthAdjust="spacingAndGlyphs" textLength="106" x="1313" y="399.0151">-String descBreve</text><text fill="#000000" font-family="sans-serif" font-size="11" lengthAdjust="spacingAndGlyphs" textLength="129" x="1313" y="411.8198">-String descDetalhada</text><!--MD5=[b0f240be72c8ea8a063442502d85fc08]
class CaraterCT--><rect fill="#FEFECE" filter="url(#f1nri8lj4rnwsj)" height="52.8047" id="CaraterCT" style="stroke: #A80036; stroke-width: 1.5;" width="129" x="1584" y="352.5"/><ellipse cx="1613.85" cy="368.5" fill="#ADD1B2" rx="11" ry="11" style="stroke: #A80036; stroke-width: 1.0;"/><path d="M1616.1938,364.1719 C1615.2563,363.7344 1614.6625,363.5938 1613.7875,363.5938 C1611.1625,363.5938 1609.1625,365.6719 1609.1625,368.3906 L1609.1625,369.5156 C1609.1625,372.0938 1611.2719,373.9844 1614.1625,373.9844 C1615.3813,373.9844 1616.5375,373.6875 1617.2875,373.1406 C1617.8656,372.7344 1618.1938,372.2813 1618.1938,371.8906 C1618.1938,371.4375 1617.8031,371.0469 1617.3344,371.0469 C1617.1156,371.0469 1616.9125,371.125 1616.725,371.3125 C1616.2719,371.7969 1616.2719,371.7969 1616.0844,371.8906 C1615.6625,372.1563 1614.975,372.2813 1614.2094,372.2813 C1612.1625,372.2813 1610.8656,371.1875 1610.8656,369.4844 L1610.8656,368.3906 C1610.8656,366.6094 1612.1156,365.2969 1613.85,365.2969 C1614.4281,365.2969 1615.0375,365.4531 1615.5063,365.7031 C1615.9906,365.9844 1616.1625,366.2031 1616.2563,366.6094 C1616.3188,367.0156 1616.35,367.1406 1616.4906,367.2656 C1616.6313,367.4063 1616.8656,367.5156 1617.0844,367.5156 C1617.35,367.5156 1617.6156,367.375 1617.7875,367.1563 C1617.8969,367 1617.9281,366.8125 1617.9281,366.3906 L1617.9281,364.9688 C1617.9281,364.5313 1617.9125,364.4063 1617.8188,364.25 C1617.6625,363.9844 1617.3813,363.8438 1617.0844,363.8438 C1616.7875,363.8438 1616.5844,363.9375 1616.3656,364.25 L1616.1938,364.1719 Z "/><text fill="#000000" font-family="sans-serif" font-size="12" lengthAdjust="spacingAndGlyphs" textLength="64" x="1631.15" y="372.6543">CaraterCT</text><line style="stroke: #A80036; stroke-width: 1.5;" x1="1585" x2="1712" y1="384.5" y2="384.5"/><text fill="#000000" font-family="sans-serif" font-size="11" lengthAdjust="spacingAndGlyphs" textLength="117" x="1590" y="398.7104">-Boolean obrigatoria</text><!--MD5=[7bb95b5cb1c5d9061d1eedf13c97b467]
class Administrativo--><rect fill="#FEFECE" filter="url(#f1nri8lj4rnwsj)" height="40" id="Administrativo" style="stroke: #A80036; stroke-width: 1.5;" width="120" x="228" y="162"/><ellipse cx="243" cy="178" fill="#ADD1B2" rx="11" ry="11" style="stroke: #A80036; stroke-width: 1.0;"/><path d="M245.3438,173.6719 C244.4063,173.2344 243.8125,173.0938 242.9375,173.0938 C240.3125,173.0938 238.3125,175.1719 238.3125,177.8906 L238.3125,179.0156 C238.3125,181.5938 240.4219,183.4844 243.3125,183.4844 C244.5313,183.4844 245.6875,183.1875 246.4375,182.6406 C247.0156,182.2344 247.3438,181.7813 247.3438,181.3906 C247.3438,180.9375 246.9531,180.5469 246.4844,180.5469 C246.2656,180.5469 246.0625,180.625 245.875,180.8125 C245.4219,181.2969 245.4219,181.2969 245.2344,181.3906 C244.8125,181.6563 244.125,181.7813 243.3594,181.7813 C241.3125,181.7813 240.0156,180.6875 240.0156,178.9844 L240.0156,177.8906 C240.0156,176.1094 241.2656,174.7969 243,174.7969 C243.5781,174.7969 244.1875,174.9531 244.6563,175.2031 C245.1406,175.4844 245.3125,175.7031 245.4063,176.1094 C245.4688,176.5156 245.5,176.6406 245.6406,176.7656 C245.7813,176.9063 246.0156,177.0156 246.2344,177.0156 C246.5,177.0156 246.7656,176.875 246.9375,176.6563 C247.0469,176.5 247.0781,176.3125 247.0781,175.8906 L247.0781,174.4688 C247.0781,174.0313 247.0625,173.9063 246.9688,173.75 C246.8125,173.4844 246.5313,173.3438 246.2344,173.3438 C245.9375,173.3438 245.7344,173.4375 245.5156,173.75 L245.3438,173.6719 Z "/><text fill="#000000" font-family="sans-serif" font-size="12" lengthAdjust="spacingAndGlyphs" textLength="88" x="257" y="182.1543">Administrativo</text><line style="stroke: #A80036; stroke-width: 1.5;" x1="229" x2="347" y1="194" y2="194"/><!--MD5=[5dd1d6732c071e710b9290b531f2fa3b]
class Utilizador--><rect fill="#FEFECE" filter="url(#f1nri8lj4rnwsj)" height="78.4141" id="Utilizador" style="stroke: #A80036; stroke-width: 1.5;" width="110" x="1027.5" y="8"/><ellipse cx="1051.05" cy="24" fill="#ADD1B2" rx="11" ry="11" style="stroke: #A80036; stroke-width: 1.0;"/><path d="M1053.3938,19.6719 C1052.4563,19.2344 1051.8625,19.0938 1050.9875,19.0938 C1048.3625,19.0938 1046.3625,21.1719 1046.3625,23.8906 L1046.3625,25.0156 C1046.3625,27.5938 1048.4719,29.4844 1051.3625,29.4844 C1052.5813,29.4844 1053.7375,29.1875 1054.4875,28.6406 C1055.0656,28.2344 1055.3938,27.7813 1055.3938,27.3906 C1055.3938,26.9375 1055.0031,26.5469 1054.5344,26.5469 C1054.3156,26.5469 1054.1125,26.625 1053.925,26.8125 C1053.4719,27.2969 1053.4719,27.2969 1053.2844,27.3906 C1052.8625,27.6563 1052.175,27.7813 1051.4094,27.7813 C1049.3625,27.7813 1048.0656,26.6875 1048.0656,24.9844 L1048.0656,23.8906 C1048.0656,22.1094 1049.3156,20.7969 1051.05,20.7969 C1051.6281,20.7969 1052.2375,20.9531 1052.7063,21.2031 C1053.1906,21.4844 1053.3625,21.7031 1053.4563,22.1094 C1053.5188,22.5156 1053.55,22.6406 1053.6906,22.7656 C1053.8313,22.9063 1054.0656,23.0156 1054.2844,23.0156 C1054.55,23.0156 1054.8156,22.875 1054.9875,22.6563 C1055.0969,22.5 1055.1281,22.3125 1055.1281,21.8906 L1055.1281,20.4688 C1055.1281,20.0313 1055.1125,19.9063 1055.0188,19.75 C1054.8625,19.4844 1054.5813,19.3438 1054.2844,19.3438 C1053.9875,19.3438 1053.7844,19.4375 1053.5656,19.75 L1053.3938,19.6719 Z "/><text fill="#000000" font-family="sans-serif" font-size="12" lengthAdjust="spacingAndGlyphs" textLength="59" x="1066.95" y="28.1543">Utilizador</text><line style="stroke: #A80036; stroke-width: 1.5;" x1="1028.5" x2="1136.5" y1="40" y2="40"/><text fill="#000000" font-family="sans-serif" font-size="11" lengthAdjust="spacingAndGlyphs" textLength="75" x="1033.5" y="54.2104">-String nome</text><text fill="#000000" font-family="sans-serif" font-size="11" lengthAdjust="spacingAndGlyphs" textLength="74" x="1033.5" y="67.0151">-String email</text><text fill="#000000" font-family="sans-serif" font-size="11" lengthAdjust="spacingAndGlyphs" textLength="98" x="1033.5" y="79.8198">-String password</text><!--MD5=[a77d152358ce76c19672aacd9fb0ada1]
link Plataforma to CompetenciaTecnica--><path d="M74.7075,208.677 C96.1056,276.464 162.995,450 287,450 C287,450 287,450 1083.5,450 C1160.9,450 1246.55,427.7686 1306.99,408.1858 " fill="none" id="Plataforma-CompetenciaTecnica" style="stroke: #A80036; stroke-width: 1.0;"/><text fill="#000000" font-family="sans-serif" font-size="13" lengthAdjust="spacingAndGlyphs" textLength="41" x="622" y="446.0669">possui</text><polygon fill="#000000" points="666,440.0664,672,443.0664,666,446.0664,666,440.0664" style="stroke: #000000; stroke-width: 1.0;"/><text fill="#000000" font-family="sans-serif" font-size="13" lengthAdjust="spacingAndGlyphs" textLength="8" x="67.7373" y="228.256">1</text><text fill="#000000" font-family="sans-serif" font-size="13" lengthAdjust="spacingAndGlyphs" textLength="7" x="1291.9828" y="423.7359">*</text><!--MD5=[f565a7491b204a385cb975efa8989e6a]
link CompetenciaTecnica to CaraterCT--><path d="M1468.32,379 C1505.48,379 1549.07,379 1583.95,379 " fill="none" id="CompetenciaTecnica-CaraterCT" style="stroke: #A80036; stroke-width: 1.0;"/><text fill="#000000" font-family="sans-serif" font-size="13" lengthAdjust="spacingAndGlyphs" textLength="41" x="1499" y="375.0669">possui</text><polygon fill="#000000" points="1543,369.0664,1549,372.0664,1543,375.0664,1543,369.0664" style="stroke: #000000; stroke-width: 1.0;"/><text fill="#000000" font-family="sans-serif" font-size="13" lengthAdjust="spacingAndGlyphs" textLength="8" x="1475.8743" y="391.7223">1</text><text fill="#000000" font-family="sans-serif" font-size="13" lengthAdjust="spacingAndGlyphs" textLength="7" x="1569.0817" y="391.9531">*</text><!--MD5=[81e834ef6626e9dc0f465969ac08d630]
link Administrativo to CompetenciaTecnica--><path d="M328.888,202.126 C364.527,219.328 418.59,243.528 468,258 C769.377,346.274 1145.33,370.2821 1306.79,376.7053 " fill="none" id="Administrativo-CompetenciaTecnica" style="stroke: #A80036; stroke-width: 1.0;"/><text fill="#000000" font-family="sans-serif" font-size="13" lengthAdjust="spacingAndGlyphs" textLength="65" x="863" y="335.0669">especifica</text><polygon fill="#000000" points="931,329.0664,937,332.0664,931,335.0664,931,329.0664" style="stroke: #000000; stroke-width: 1.0;"/><text fill="#000000" font-family="sans-serif" font-size="13" lengthAdjust="spacingAndGlyphs" textLength="8" x="331.2628" y="221.9814">1</text><text fill="#000000" font-family="sans-serif" font-size="13" lengthAdjust="spacingAndGlyphs" textLength="7" x="1292.0269" y="389.2391">*</text><!--MD5=[83793280d21cff2204dcf19c1386ed48]
link Administrativo to Utilizador--><path d="M332.147,161.879 C376.055,141.732 441.331,112.773 468,106 C669.716,54.774 919.057,47.33 1027.22,46.71 " fill="none" id="Administrativo-Utilizador" style="stroke: #A80036; stroke-width: 1.0;"/><text fill="#000000" font-family="sans-serif" font-size="13" lengthAdjust="spacingAndGlyphs" textLength="69" x="608" y="50.0669">atua como</text><polygon fill="#000000" points="680,44.0664,686,47.0664,680,50.0664,680,44.0664" style="stroke: #000000; stroke-width: 1.0;"/><text fill="#000000" font-family="sans-serif" font-size="13" lengthAdjust="spacingAndGlyphs" textLength="22" x="319.8839" y="150.8517">0..1</text><text fill="#000000" font-family="sans-serif" font-size="13" lengthAdjust="spacingAndGlyphs" textLength="8" x="1011.6248" y="59.6827">1</text><!--MD5=[b585ec1f109bee2e6a0accf9e50b3199]
link Plataforma to Administrativo--><path d="M126.245,182 C157.68,182 196.198,182 227.649,182 " fill="none" id="Plataforma-Administrativo" style="stroke: #A80036; stroke-width: 1.0;"/><text fill="#000000" font-family="sans-serif" font-size="13" lengthAdjust="spacingAndGlyphs" textLength="27" x="157" y="178.0669">tem</text><polygon fill="#000000" points="187,172.0664,193,175.0664,187,178.0664,187,172.0664" style="stroke: #000000; stroke-width: 1.0;"/><text fill="#000000" font-family="sans-serif" font-size="13" lengthAdjust="spacingAndGlyphs" textLength="8" x="134.0749" y="195.001">1</text><text fill="#000000" font-family="sans-serif" font-size="13" lengthAdjust="spacingAndGlyphs" textLength="7" x="212.8672" y="194.9891">*</text><!--MD5=[39c0de7668d8063a4eb96c23050b3de2]
link Plataforma to Freelancer--><path d="M126.375,164.071 C156.494,156.077 193.844,147.827 228,145 C306.694,138.487 393.645,144.033 467.921,152.631 " fill="none" id="Plataforma-Freelancer" style="stroke: #A80036; stroke-width: 1.0;"/><text fill="#000000" font-family="sans-serif" font-size="13" lengthAdjust="spacingAndGlyphs" textLength="27" x="268" y="138.0669">tem</text><polygon fill="#000000" points="298,132.0664,304,135.0664,298,138.0664,298,132.0664" style="stroke: #000000; stroke-width: 1.0;"/><text fill="#000000" font-family="sans-serif" font-size="13" lengthAdjust="spacingAndGlyphs" textLength="8" x="133.8184" y="174.951">1</text><text fill="#000000" font-family="sans-serif" font-size="13" lengthAdjust="spacingAndGlyphs" textLength="7" x="453.1341" y="163.7817">*</text><!--MD5=[e84a49edc170857cb220956086931a77]
link Administrativo to Freelancer--><path d="M348.282,182 C381.341,182 424.469,182 467.662,182 " fill="none" id="Administrativo-Freelancer" style="stroke: #A80036; stroke-width: 1.0;"/><text fill="#000000" font-family="sans-serif" font-size="13" lengthAdjust="spacingAndGlyphs" textLength="45" x="379" y="178.0669">regista</text><polygon fill="#000000" points="427,172.0664,433,175.0664,427,178.0664,427,172.0664" style="stroke: #000000; stroke-width: 1.0;"/><text fill="#000000" font-family="sans-serif" font-size="13" lengthAdjust="spacingAndGlyphs" textLength="8" x="356.1164" y="194.9891">1</text><text fill="#000000" font-family="sans-serif" font-size="13" lengthAdjust="spacingAndGlyphs" textLength="7" x="452.8641" y="194.3897">*</text><!--MD5=[6a7c57800a31452a20aa2f5037e36afb]
link Freelancer to Utilizador--><path d="M830.082,131.111 C867.84,119.941 907.323,107.889 944,96 C971.603,87.053 1002.02,76.307 1027.21,67.161 " fill="none" id="Freelancer-Utilizador" style="stroke: #A80036; stroke-width: 1.0;"/><text fill="#000000" font-family="sans-serif" font-size="13" lengthAdjust="spacingAndGlyphs" textLength="69" x="861" y="92.0669">atua como</text><polygon fill="#000000" points="933,86.0664,939,89.0664,933,92.0664,933,86.0664" style="stroke: #000000; stroke-width: 1.0;"/><text fill="#000000" font-family="sans-serif" font-size="13" lengthAdjust="spacingAndGlyphs" textLength="22" x="838.1855" y="141.3538">0..1</text><text fill="#000000" font-family="sans-serif" font-size="13" lengthAdjust="spacingAndGlyphs" textLength="8" x="1011.6135" y="82.7539">1</text><!--MD5=[7a59ad2cb29ff6e914b8672ce881fef8]
link Freelancer to HabilitacaoAcademica--><path d="M830.182,175.736 C888.187,173.72 949.719,171.581 997.38,169.924 " fill="none" id="Freelancer-HabilitacaoAcademica" style="stroke: #A80036; stroke-width: 1.0;"/><text fill="#000000" font-family="sans-serif" font-size="13" lengthAdjust="spacingAndGlyphs" textLength="41" x="875" y="167.0669">possui</text><polygon fill="#000000" points="919,161.0664,925,164.0664,919,167.0664,919,161.0664" style="stroke: #000000; stroke-width: 1.0;"/><text fill="#000000" font-family="sans-serif" font-size="13" lengthAdjust="spacingAndGlyphs" textLength="8" x="837.9944" y="187.8615">1</text><text fill="#000000" font-family="sans-serif" font-size="13" lengthAdjust="spacingAndGlyphs" textLength="8" x="981.4428" y="182.9155">1</text><!--MD5=[6408d16e00cbb9d678f015aa10482eaa]
link Freelancer to ReconhecimentoCompetencia--><path d="M830.182,225.845 C879.059,237.739 930.44,250.241 973.916,260.821 " fill="none" id="Freelancer-ReconhecimentoCompetencia" style="stroke: #A80036; stroke-width: 1.0;"/><text fill="#000000" font-family="sans-serif" font-size="13" lengthAdjust="spacingAndGlyphs" textLength="41" x="875" y="230.0669">possui</text><polygon fill="#000000" points="919,224.0664,925,227.0664,919,230.0664,919,224.0664" style="stroke: #000000; stroke-width: 1.0;"/><text fill="#000000" font-family="sans-serif" font-size="13" lengthAdjust="spacingAndGlyphs" textLength="8" x="837.9944" y="240.0844">1</text><text fill="#000000" font-family="sans-serif" font-size="13" lengthAdjust="spacingAndGlyphs" textLength="7" x="959.0351" y="271.5646">*</text><!--MD5=[c797bee71d447a2f02b65462e91753a8]
link ReconhecimentoCompetencia to CompetenciaTecnica--><path d="M1191.18,319.695 C1229.28,331.264 1271.43,344.061 1306.79,354.798 " fill="none" id="ReconhecimentoCompetencia-CompetenciaTecnica" style="stroke: #A80036; stroke-width: 1.0;"/><text fill="#000000" font-family="sans-serif" font-size="13" lengthAdjust="spacingAndGlyphs" textLength="41" x="1222" y="326.0669">possui</text><polygon fill="#000000" points="1266,320.0664,1272,323.0664,1266,326.0664,1266,320.0664" style="stroke: #000000; stroke-width: 1.0;"/><text fill="#000000" font-family="sans-serif" font-size="13" lengthAdjust="spacingAndGlyphs" textLength="8" x="1199.1028" y="334.5782">1</text><text fill="#000000" font-family="sans-serif" font-size="13" lengthAdjust="spacingAndGlyphs" textLength="8" x="1290.9808" y="365.3122">1</text><!--MD5=[57d147609b38c83cd651f650471f72b4]
@startuml
hide methods
left to right direction
skinparam classAttributeIconSize 0


class Plataforma {
  -String designacao
}

class Freelancer {
  -String Nome
  -String NIF
  -String EnderecoPostal
  -String ContactoTelefonico
  -HabilitacaoAcademica habilitacaoAcademica
  -ReconhecimentoCompetencia reconhecimentoCompetencia
}

class HabilitacaoAcademica{
-String grauHabilitacao
-String designacaoCurso
-String instituicao
-String mediaCurso

}

class ReconhecimentoCompetencia{
-String data
-CompetenciaTecnica competencia
-String grauProficiencia
}

class CompetenciaTecnica {
  -String codigo
  -String descBreve
  -String descDetalhada
}

class CaraterCT {
  -Boolean obrigatoria
}

class Administrativo {

}

class Utilizador {
  -String nome
  -String email
  -String password
}





Plataforma "1" - - "*" CompetenciaTecnica : possui >
CompetenciaTecnica "1" - - "*" CaraterCT : possui >
Administrativo "1" - - "*" CompetenciaTecnica: especifica >
Administrativo "0..1" - - "1" Utilizador: atua como >
Plataforma "1" - - "*" Administrativo : tem >
Plataforma "1" - - "*" Freelancer : tem >
Administrativo "1" - - "*" Freelancer : regista >
Freelancer "0..1" - - "1" Utilizador: atua como >
Freelancer "1" - - "1" HabilitacaoAcademica : possui >
Freelancer "1" - - "*" ReconhecimentoCompetencia : possui >
ReconhecimentoCompetencia "1" - - "1" CompetenciaTecnica: possui >
@enduml

PlantUML version 1.2020.07(Sun Apr 19 11:42:40 UTC 2020)
(GPL source distribution)
Java Runtime: Java(TM) SE Runtime Environment
JVM: Java HotSpot(TM) 64-Bit Server VM
Java Version: 14.0.1+7
Operating System: Linux
Default Encoding: UTF-8
Language: en
Country: US
--></g></svg>